<?xml version="1.0" encoding="UTF-8"?>
<svg version="1.1" xmlns="http://www.w3.org/2000/svg" width="512" height="512">
<path d="M0 0 C1.18588966 -0.0098568 1.18588966 -0.0098568 2.39573669 -0.01991272 C5.0127675 -0.03962754 7.62974098 -0.05130392 10.24682617 -0.0612793 C11.14125616 -0.06535482 12.03568615 -0.06943035 12.95722008 -0.07362938 C17.69087874 -0.09448184 22.42450848 -0.10878742 27.15820312 -0.11816406 C32.04418281 -0.12923003 36.92970727 -0.16363436 41.81552601 -0.20333576 C45.57566671 -0.22949448 49.33569878 -0.2378552 53.09592247 -0.24144554 C54.89682784 -0.24631301 56.6977283 -0.25793159 58.49854469 -0.27648354 C61.02153129 -0.30086078 63.54333766 -0.29991293 66.06640625 -0.29296875 C66.80688202 -0.30577881 67.54735779 -0.31858887 68.31027222 -0.33178711 C74.30728083 -0.27177307 77.84812147 1.79685595 82.01904297 5.96948242 C82.74667847 6.8727124 82.74667847 6.8727124 83.48901367 7.79418945 C84.04492188 8.47650635 84.60083008 9.15882324 85.17358398 9.86181641 C86.0354834 10.94595825 86.0354834 10.94595825 86.91479492 12.05200195 C87.82890137 13.18158325 87.82890137 13.18158325 88.76147461 14.33398438 C93.34868738 20.02004203 97.86732085 25.76120766 102.33666992 31.5402832 C102.77524348 32.0767093 103.21381704 32.61313541 103.66568071 33.16581684 C105.22729492 35.17700195 105.22729492 35.17700195 107.15682286 38.10579294 C111.75894389 44.61219167 111.75894389 44.61219167 118.59786284 48.28684437 C122.62261062 48.69508844 126.55918542 48.73465833 130.59468079 48.63783264 C132.14245557 48.64505778 133.69021309 48.65756465 135.23790807 48.6748628 C139.47115289 48.70707591 143.70084068 48.66498336 147.93373406 48.61035526 C152.50566637 48.56456064 157.07730638 48.58839452 161.64936829 48.60375977 C169.56502649 48.62102208 177.47957587 48.59485016 185.39504433 48.53926277 C196.84464893 48.45918457 208.29351155 48.44838469 219.74335637 48.45487802 C238.32814931 48.46382291 256.91244672 48.42149807 275.49707031 48.34472656 C293.53449823 48.27036597 311.57181486 48.21265628 329.609375 48.18261719 C330.7210571 48.18075529 331.83273919 48.1788934 332.97810862 48.17697508 C345.11108148 48.15714682 357.24405618 48.14217663 369.37703991 48.13096523 C370.97577214 48.12945969 370.97577214 48.12945969 372.60680198 48.12792374 C381.37558156 48.11969296 381.37558156 48.11969296 385.38749697 48.11640017 C397.86475493 48.10591872 410.3417846 48.08051497 422.81894239 48.0285899 C430.64008955 47.99616759 438.46122408 47.97289272 446.28242192 47.95682598 C451.66592349 47.94510273 457.0491697 47.92096804 462.43257524 47.88713831 C465.69483245 47.86978852 468.95701662 47.86487372 472.21931603 47.86368483 C473.71575178 47.86061978 475.21218744 47.85238715 476.70856229 47.83854295 C478.73866265 47.82043202 480.76891367 47.82256596 482.79909229 47.82576084 C483.92789619 47.82115457 485.05670009 47.8165483 486.21971017 47.81180245 C489.64322798 48.22750711 491.48124303 49.11978584 494.22729492 51.17700195 C497.15164582 55.56352831 496.84863108 59.01817155 496.22729492 64.17700195 C494.86416439 69.64268097 493.06767624 74.93806462 491.25073242 80.2668457 C490.72714433 81.83852457 490.20492188 83.41065896 489.68397522 84.98321533 C488.57905529 88.3094098 487.46507785 91.63236657 486.34347534 94.95297241 C484.58713867 100.15278968 482.85095016 105.35918961 481.11816406 110.56689453 C479.11707237 116.5770201 477.11178273 122.58570261 475.09963322 128.59213543 C471.49781956 139.34468494 467.95278802 150.11470153 464.46124268 160.90359497 C463.13554647 164.99980221 461.80400249 169.09410887 460.47338867 173.1887207 C460.08509888 174.38445961 460.08509888 174.38445961 459.68896484 175.60435486 C457.5739191 182.1163047 455.45061104 188.62554105 453.32495117 195.1340332 C452.98912521 196.16231735 452.65329926 197.1906015 452.30729675 198.25004578 C450.60997272 203.44631295 448.91170107 208.64226889 447.21240234 213.83789062 C443.87042762 224.05951212 440.54279296 234.28545541 437.24291992 244.52075195 C436.29139418 247.46591645 435.33949059 250.41095854 434.38745117 253.35595703 C433.78863974 255.21198333 433.19158529 257.06857756 432.59643555 258.92578125 C431.77464264 261.49012303 430.94686672 264.05246538 430.11791992 266.61450195 C429.88316956 267.35293335 429.64841919 268.09136475 429.40655518 268.85217285 C428.71608465 270.97502506 427.98219864 273.07625342 427.22729492 275.17700195 C426.81972961 276.37800537 426.81972961 276.37800537 426.40393066 277.60327148 C426.10039673 278.4023291 425.79686279 279.20138672 425.48413086 280.0246582 C425.22017517 280.74790283 424.95621948 281.47114746 424.68426514 282.21630859 C422.49803603 285.15838994 419.64991835 286.17994081 416.22729492 287.17700195 C412.79076039 287.58755599 409.39020382 287.56962268 405.93251038 287.5377655 C404.39833211 287.54161041 404.39833211 287.54161041 402.83316034 287.545533 C399.41367716 287.55046557 395.99463767 287.53398622 392.57519531 287.51757812 C390.12099213 287.51673174 387.66678819 287.51720721 385.21258545 287.51890564 C379.93279909 287.5195883 374.65315025 287.51109157 369.37339973 287.49419212 C361.73986204 287.46977462 354.10637807 287.46199405 346.47280555 287.45822815 C334.0868203 287.45166797 321.70089443 287.4317186 309.31494141 287.40332031 C297.28564755 287.3757685 285.25636984 287.35454042 273.22705078 287.34179688 C272.48512795 287.3410087 271.74320511 287.34022053 270.97879977 287.33940848 C267.25666057 287.33549327 263.53452125 287.33170217 259.81238186 287.32797277 C228.95064303 287.29689037 198.08897801 287.24384285 167.22729492 287.17700195 C167.43032132 287.98095587 167.63334772 288.78490978 167.84252644 289.61322594 C168.11043586 290.67852343 168.37834528 291.74382092 168.65437317 292.84140015 C168.91927457 293.89285406 169.18417597 294.94430798 169.45710468 296.02762413 C170.5827286 300.63040253 171.54720396 305.2602734 172.48901367 309.90356445 C172.68453323 310.85846771 172.8800528 311.81337097 173.08149719 312.79721069 C173.4885405 314.78829541 173.89430988 316.77964098 174.29882812 318.77124023 C174.92056609 321.830398 175.54729154 324.88850528 176.17456055 327.9465332 C176.57133761 329.8904839 176.96783251 331.83449222 177.36401367 333.77856445 C177.55146652 334.69304352 177.73891937 335.60752258 177.93205261 336.54971313 C178.1025563 337.39174286 178.27306 338.23377258 178.44873047 339.10131836 C178.59956589 339.84233795 178.75040131 340.58335754 178.9058075 341.34683228 C179.22729492 343.17700195 179.22729492 343.17700195 179.22729492 345.17700195 C183.18729492 345.17700195 187.14729492 345.17700195 191.22729492 345.17700195 C191.55729492 343.89825195 191.88729492 342.61950195 192.22729492 341.30200195 C195.4188113 331.8318482 202.44691057 324.70978157 211.22729492 320.17700195 C221.92718965 315.46682299 232.91954288 315.09606072 243.93432617 319.1809082 C253.74129692 323.74544297 260.64595214 330.31681092 265.22729492 340.17700195 C265.55729492 341.82700195 265.88729492 343.47700195 266.22729492 345.17700195 C317.21229492 344.68200195 317.21229492 344.68200195 369.22729492 344.17700195 C370.87729492 340.87700195 372.52729492 337.57700195 374.22729492 334.17700195 C381.03072757 324.47248294 389.48357413 318.73536685 401.16479492 316.67700195 C413.81528852 315.33591137 424.55582384 318.39726003 434.47729492 326.36450195 C442.83504637 334.18195432 447.16570017 344.74484701 447.60229492 356.11450195 C447.11725734 368.84673839 442.39719864 378.88299644 433.20385742 387.6105957 C424.46041656 394.53968619 413.24689837 397.43279722 402.22729492 396.17700195 C389.90863705 393.56485281 380.31177303 387.78015656 373.22729492 377.17700195 C371.74229492 372.72200195 371.74229492 372.72200195 370.22729492 368.17700195 C335.90729492 368.17700195 301.58729492 368.17700195 266.22729492 368.17700195 C265.56729492 370.48700195 264.90729492 372.79700195 264.22729492 375.17700195 C258.24703693 385.03890497 249.48028847 392.17510181 238.41479492 395.42700195 C227.82952516 397.69233206 216.94927839 396.23631633 207.61401367 390.59887695 C200.32216952 385.15756804 194.56519128 378.7180897 191.22729492 370.17700195 C191.22729492 369.51700195 191.22729492 368.85700195 191.22729492 368.17700195 C190.59227051 368.18747559 189.95724609 368.19794922 189.30297852 368.20874023 C186.40279153 368.25052662 183.5026681 368.27639967 180.60229492 368.30200195 C179.60327148 368.31875977 178.60424805 368.33551758 177.57495117 368.3527832 C166.02063791 368.42930183 166.02063791 368.42930183 161.1930542 364.53677368 C158.67075327 361.50890832 158.1130032 359.01554898 157.23608398 355.1784668 C157.07322025 354.4782308 156.91035652 353.7779948 156.74255753 353.05653954 C156.2180204 350.7672066 155.71917087 348.4735623 155.22729492 346.17700195 C155.06363937 345.41901558 154.89998383 344.66102921 154.73136902 343.88007355 C153.46759309 337.98100869 152.274197 332.06836448 151.08666992 326.15356445 C150.68763759 324.17942343 150.28834771 322.20533445 149.88882446 320.23129272 C148.80648444 314.87722901 147.72934325 309.52213196 146.65355682 304.16674805 C145.9724426 300.77785917 145.28992428 297.38925589 144.60699463 294.00073242 C135.58116353 249.20840466 126.72549869 204.38233899 117.94532013 159.54126549 C116.77186068 153.54950575 115.59205948 147.55915986 114.3972168 141.57162476 C112.21515092 130.59863466 110.1024056 119.62557727 108.22851372 108.59518433 C107.35635172 103.48692388 106.44553821 98.38587605 105.53178787 93.28491211 C105.11271047 90.88311196 104.71229921 88.47796144 104.33286667 86.06958008 C101.86405705 70.43115523 98.05123795 60.12776959 86.79288292 48.77921867 C84.70287931 46.64031704 82.83564255 44.34662462 80.97338867 42.0090332 C80.12744141 40.98132813 80.12744141 40.98132813 79.2644043 39.93286133 C78.16271542 38.59442368 77.06116075 37.25587554 75.9597168 35.91723633 C75.40735352 35.2462793 74.85499023 34.57532227 74.28588867 33.8840332 C73.81465576 33.31144775 73.34342285 32.7388623 72.85791016 32.14892578 C72.31980713 31.49819092 71.7817041 30.84745605 71.22729492 30.17700195 C70.51661865 29.1612912 69.80594238 28.14558044 69.07373047 27.09909058 C66.91142496 24.5239544 66.37729235 24.21028076 62.89503479 23.43769836 C61.62739792 23.44230576 60.35976105 23.44691315 59.05371094 23.45166016 C57.9990564 23.44294388 57.9990564 23.44294388 56.9230957 23.43405151 C54.60828281 23.42128568 52.29584964 23.44992643 49.98120117 23.4777832 C48.36603346 23.47414755 46.75087 23.46744305 45.13572693 23.45780945 C40.88808901 23.43875073 36.64126904 23.45275945 32.39367676 23.47631836 C25.599439 23.51071795 18.80540569 23.50486235 12.01115227 23.48018456 C9.64342501 23.47782037 7.27646018 23.49559113 4.90882874 23.51545715 C3.44931026 23.51570542 1.98979148 23.51530708 0.53027344 23.51416016 C-0.73815903 23.52115433 -2.00659149 23.5281485 -3.3134613 23.53535461 C-7.88223412 23.06206276 -11.18324798 21.55453144 -14.64770508 18.55200195 C-16.43196244 14.78523641 -16.54174233 11.25501601 -15.77270508 7.17700195 C-12.07508139 0.34844021 -7.12093647 0.02564805 0 0 Z M124.22729492 70.17700195 C124.97268808 78.06765546 124.97268808 78.06765546 126.22262573 85.78616333 C126.51637337 87.27566498 126.51637337 87.27566498 126.8160553 88.79525757 C127.13539284 90.37665024 127.13539284 90.37665024 127.46118164 91.98999023 C127.68749771 93.130448 127.91381378 94.27090576 128.14698792 95.44592285 C128.89586323 99.21395609 129.65143348 102.98061422 130.40698242 106.74731445 C130.94069068 109.42362251 131.47291172 112.10022571 132.00515747 114.77682495 C133.27032929 121.13498669 134.54020823 127.49219831 135.81191838 133.84905517 C137.35237167 141.55010989 138.88778126 149.25216782 140.42260742 156.9543457 C140.55887496 157.6381718 140.69514249 158.3219979 140.83553934 159.026546 C141.03998171 160.052499 141.03998171 160.052499 141.24855423 161.09917831 C141.38477086 161.7827447 141.52098749 162.46631108 141.66133189 163.17059159 C141.93612328 164.54956378 142.210905 165.9285379 142.485677 167.30751395 C143.30694127 171.42870821 144.12903539 175.54973594 144.95175576 179.67063975 C147.81286616 194.00262895 150.65851056 208.33744183 153.46655273 222.67993164 C153.59590438 223.34031646 153.72525603 224.00070127 153.85852742 224.68109775 C155.20804994 231.57111318 156.55443005 238.46172707 157.89596558 245.353302 C158.32554416 247.55219243 158.75515831 249.7510759 159.18481445 251.94995117 C159.37855778 252.95007107 159.5723011 253.95019096 159.77191544 254.98061752 C159.95023785 255.89160328 160.12856026 256.80258904 160.31228638 257.74118042 C160.4658919 258.53066008 160.61949741 259.32013973 160.77775764 260.13354301 C161.23025632 262.360915 161.23025632 262.360915 162.22729492 265.17700195 C242.74729492 265.17700195 323.26729492 265.17700195 406.22729492 265.17700195 C414.84905404 238.77286467 423.44755784 212.38897329 431.87744141 185.92773438 C435.96102077 173.1309261 440.1238311 160.36138112 444.32495117 147.6027832 C444.59075863 146.79539074 444.85656609 145.98799828 445.13042831 145.15613937 C447.79082848 137.07664051 450.45510561 128.99843638 453.12772465 120.92297077 C454.13374613 117.88175869 455.13769981 114.83986608 456.14135551 111.79787254 C456.60304368 110.40034146 457.06568004 109.0031231 457.52946663 107.606287 C461.65166777 95.19054781 465.41578171 82.70054535 469.22729492 70.17700195 C355.37729492 70.17700195 241.52729492 70.17700195 124.22729492 70.17700195 Z M213.78979492 347.23950195 C211.32532113 351.87271268 210.53880179 355.97505381 211.22729492 361.17700195 C213.38365579 366.98980082 217.23340774 370.43056776 222.47729492 373.48950195 C227.89117817 374.84297277 232.60908989 374.00137056 237.53979492 371.48950195 C242.27940568 367.41123223 245.00378305 363.1385342 245.47729492 356.86450195 C245.07940873 350.99568059 243.04553128 347.69887673 238.72729492 343.86450195 C234.85203757 340.62662245 231.51396123 339.81520638 226.41870117 339.8996582 C220.94200424 340.5927874 217.18457492 342.97426555 213.78979492 347.23950195 Z M394.47729492 346.05200195 C390.79946164 351.16010373 389.66306236 354.60472837 390.56713867 360.8293457 C391.95105812 365.75085807 394.7855415 369.60217359 399.08666992 372.3762207 C404.04613473 374.56830415 409.08043289 374.94931271 414.22729492 373.17700195 C418.15731089 370.65585964 421.23252895 367.75204807 423.72729492 363.80200195 C424.8374442 357.97371822 425.17408189 353.17035003 422.16479492 347.86450195 C419.47403481 344.08839322 416.68396393 341.59139391 412.22729492 340.17700195 C404.86026437 339.05844758 399.70285667 340.58891467 394.47729492 346.05200195 Z " fill="#000000" transform="translate(15.772705078125,57.822998046875)"/>
<path d="M0 0 C0.93754692 -0.00297112 1.87509385 -0.00594224 2.84105128 -0.0090034 C5.99623124 -0.01770501 9.15137331 -0.01919988 12.30656433 -0.02069092 C14.5632536 -0.02531804 16.81994208 -0.03034255 19.07662964 -0.03573608 C25.21715459 -0.04887188 31.35766861 -0.05530729 37.49820542 -0.05974674 C41.33239976 -0.06267543 45.16659109 -0.06677983 49.00078392 -0.07125092 C59.6166118 -0.08336097 70.23243706 -0.09374274 80.84827137 -0.09712601 C81.52770722 -0.09734557 82.20714308 -0.09756514 82.90716789 -0.09779136 C83.58822887 -0.09800964 84.26928986 -0.09822791 84.97098905 -0.09845281 C86.35107664 -0.09889627 87.73116424 -0.09934284 89.11125183 -0.09979248 C89.79582286 -0.10001391 90.48039389 -0.10023534 91.1857095 -0.10046348 C102.27805514 -0.10441144 113.37033508 -0.1218655 124.46265534 -0.145152 C135.85104925 -0.16886708 147.2393991 -0.18106995 158.6278221 -0.18249393 C165.02197823 -0.1835433 171.41604171 -0.18947932 177.81017494 -0.20731354 C183.82410729 -0.22376071 189.83787702 -0.22596599 195.85182381 -0.21717453 C198.06012659 -0.21640237 200.268438 -0.22077031 202.4767189 -0.23063278 C205.48963841 -0.24330058 208.50197743 -0.2375034 211.51489258 -0.22705078 C212.39028728 -0.23510719 213.26568198 -0.24316359 214.16760379 -0.25146413 C219.1639054 -0.21088016 222.63397543 0.33721804 226.94792175 3.14044189 C229.37597963 6.50839314 230.20216944 9.11956998 229.94792175 13.20294189 C229.21304507 17.41838838 227.35678308 19.52433902 223.94792175 22.14044189 C221.2285779 23.02143331 218.76222595 23.266705 215.91452312 23.27186966 C215.11666163 23.2757108 214.31880014 23.27955195 213.49676102 23.28350949 C212.19069601 23.28220977 212.19069601 23.28220977 210.85824585 23.28088379 C209.92871717 23.28385491 208.9991885 23.28682603 208.04149228 23.28988719 C204.91939135 23.29857526 201.79732875 23.30008253 198.67521667 23.30157471 C196.4397066 23.30620277 194.20419732 23.31122741 191.96868896 23.31661987 C185.89013758 23.32974623 179.81159724 23.33618919 173.7330339 23.34063053 C169.93651604 23.34356062 166.14000121 23.34766529 162.34348488 23.3521347 C151.82884347 23.36424287 141.31420385 23.37462537 130.79955578 23.3780098 C129.79048486 23.37833915 129.79048486 23.37833915 128.76102867 23.37867515 C128.08672114 23.37889343 127.41241361 23.3791117 126.71767253 23.3793366 C125.35130703 23.37978006 123.98494154 23.38022662 122.61857605 23.38067627 C121.94081406 23.3808977 121.26305207 23.38111913 120.56475184 23.38134727 C109.58307598 23.38529513 98.60146649 23.40274965 87.61981627 23.42603579 C76.34100098 23.44975874 65.06221782 23.46195416 53.78337365 23.46337771 C47.45235735 23.46442655 41.12143466 23.47035134 34.79044151 23.48819733 C28.83558818 23.5046565 22.88089907 23.5068439 16.92603111 23.49805832 C14.74072327 23.49728682 12.55540668 23.5016455 10.370121 23.51151657 C7.38606736 23.52420503 4.40259809 23.5183759 1.41854858 23.50793457 C0.12252182 23.52001918 0.12252182 23.52001918 -1.1996873 23.53234792 C-6.55643231 23.48853411 -10.31668295 22.70869346 -15.05207825 20.14044189 C-17.54741447 16.78733384 -18.29962437 14.17792459 -18.05207825 10.07794189 C-17.3267579 5.8710839 -15.41508752 3.78280632 -12.05207825 1.14044189 C-8.04068337 -0.19668973 -4.18280366 -0.00410881 0 0 Z " fill="#000000" transform="translate(201.0520782470703,176.85955810546875)"/>
<path d="M0 0 C0.7709757 -0.00226556 1.5419514 -0.00453111 2.33629 -0.00686532 C4.92176916 -0.01319948 7.50719582 -0.01237633 10.09268188 -0.0115509 C11.94558276 -0.01454275 13.79848302 -0.01794534 15.65138245 -0.02172852 C20.68651516 -0.03056997 25.72163088 -0.03290669 30.75677061 -0.0335443 C34.95909767 -0.03449348 39.16142076 -0.03817187 43.36374629 -0.0417164 C53.27778806 -0.04986148 63.19182075 -0.05230058 73.10586548 -0.05158997 C83.33506605 -0.05098912 93.5642139 -0.06154229 103.79340112 -0.07733363 C112.57397249 -0.09040598 121.35452661 -0.09577399 130.13510764 -0.09513456 C135.38010296 -0.09487948 140.62505144 -0.09773582 145.87003708 -0.10831261 C150.80300101 -0.11798845 155.73587326 -0.11807627 160.66884041 -0.11079597 C162.47883933 -0.1097495 164.28884394 -0.11211672 166.09883308 -0.11815643 C168.57079814 -0.12587049 171.0424461 -0.12123546 173.5144043 -0.11352539 C174.229588 -0.11866895 174.9447717 -0.12381252 175.68162763 -0.12911195 C181.09868735 -0.09180974 185.52740566 0.52784888 189.69668579 4.13371277 C192.41097246 7.35064512 192.77435629 9.80156245 192.74356079 14.02824402 C192.10836765 17.7496473 190.04439563 19.53684126 187.38418579 22.13371277 C184.31838468 23.66661333 181.10747997 23.28170783 177.74313354 23.28088379 C176.94528183 23.28456048 176.14743011 23.28823717 175.32540107 23.29202527 C172.63698175 23.30308745 169.94860105 23.30691023 167.26016235 23.31071472 C165.33859127 23.31697746 163.41702141 23.32362409 161.49545288 23.33062744 C156.26393455 23.34805484 151.03242538 23.35859395 145.8008852 23.36683297 C142.53405154 23.37197946 139.26722074 23.37805535 136.0003891 23.3843441 C125.78405498 23.40340107 115.56772812 23.4176311 105.35137963 23.42595607 C93.54942925 23.43573122 81.74766628 23.46205593 69.94578195 23.50245696 C60.82979809 23.53259492 51.71386802 23.54742274 42.5978353 23.55073708 C37.15041788 23.55309023 31.70320057 23.56208507 26.25583649 23.58719826 C21.13076922 23.61044332 16.00603431 23.61472652 10.88092804 23.60443687 C8.99996842 23.60394053 7.11899265 23.6102898 5.23808289 23.62399292 C2.66937977 23.6416595 0.10187616 23.6346319 -2.46682739 23.62145996 C-3.21061197 23.63242921 -3.95439655 23.64339845 -4.72072005 23.6547001 C-9.80832091 23.59174585 -12.69764847 22.33765721 -16.61581421 19.13371277 C-18.89570764 15.56518392 -18.9459972 12.23813208 -18.29159546 8.06730652 C-17.0392232 4.48392924 -14.7601107 3.16825756 -11.61581421 1.13371277 C-7.85301146 -0.22130296 -3.94792577 -0.00849553 0 0 Z " fill="#000000" transform="translate(219.61581420898438,248.8662872314453)"/>
</svg>
