<?xml version="1.0" encoding="UTF-8"?>
<svg version="1.1" xmlns="http://www.w3.org/2000/svg" width="48" height="48">
<path d="M0 0 C15.84 0 31.68 0 48 0 C48 15.84 48 31.68 48 48 C32.16 48 16.32 48 0 48 C0 32.16 0 16.32 0 0 Z " fill="#F6DA45" transform="translate(0,0)"/>
<path d="M0 0 C6.6 0 13.2 0 20 0 C20 0.66 20 1.32 20 2 C19.39671875 2.30292969 18.7934375 2.60585938 18.171875 2.91796875 C11.4735871 6.42916805 7.50616796 9.67183799 5 17 C4.12580091 24.3697016 4.47614501 30.91923388 9 37 C13.97380455 41.8462711 18.63622189 43.28207373 25.5 43.25 C26.6034375 43.25515625 27.706875 43.2603125 28.84375 43.265625 C31.96392334 43.00303615 34.18304814 42.32438782 37 41 C36.67 41.99 36.34 42.98 36 44 C35.34 44 34.68 44 34 44 C34 44.99 34 45.98 34 47 C29.99679847 47.95377184 26.27788253 48.1157616 22.16796875 48.09765625 C21.00289795 48.09515869 19.83782715 48.09266113 18.63745117 48.09008789 C16.43472534 48.07643188 16.43472534 48.07643188 14.1875 48.0625 C9.505625 48.041875 4.82375 48.02125 0 48 C0 32.16 0 16.32 0 0 Z " fill="#C4AA18" transform="translate(0,0)"/>
<path d="M0 0 C3.3 0 6.6 0 10 0 C10.02685938 2.14576637 10.04633088 4.29162645 10.0625 6.4375 C10.07410156 7.63246094 10.08570313 8.82742188 10.09765625 10.05859375 C10 13 10 13 9 14 C8.2821783 19.17341774 8.2821783 19.17341774 10.19042969 23.82666016 C11.84345041 25.59440317 13.56085081 27.21076701 15.375 28.8125 C16.57204916 29.92130515 17.76742888 31.03191599 18.9609375 32.14453125 C19.49509277 32.62253174 20.02924805 33.10053223 20.57958984 33.59301758 C23.11507684 36.10453555 23.98449344 37.60458262 24.125 41.1875 C24.08375 42.115625 24.0425 43.04375 24 44 C22.68 43.67 21.36 43.34 20 43 C20.33 42.34 20.66 41.68 21 41 C21.66 41.33 22.32 41.66 23 42 C20.25727687 36.62004309 17.72154999 33.71696488 13 30 C11.99426222 28.67098936 10.99204592 27.33926199 10 26 C9.34 26 8.68 26 8 26 C9.3089572 29.12197478 9.3089572 29.12197478 12 31 C11.67 31.66 11.34 32.32 11 33 C9.50870692 31.95458849 8.03230598 30.88791186 6.5625 29.8125 C5.73878906 29.22082031 4.91507813 28.62914063 4.06640625 28.01953125 C1.62310414 25.63165376 1.28885427 24.35596146 1 21 C1 18.66666667 1 16.33333333 1 14 C0.67 13.67 0.34 13.34 0 13 C-0.07258946 10.81360547 -0.08373783 8.62499611 -0.0625 6.4375 C-0.05347656 5.23996094 -0.04445313 4.04242188 -0.03515625 2.80859375 C-0.02355469 1.88175781 -0.01195313 0.95492187 0 0 Z " fill="#C0A621" transform="translate(20,0)"/>
<path d="M0 0 C5.94 0 11.88 0 18 0 C18 5.61 18 11.22 18 17 C15.54373427 13.72497903 13.25111712 10.41548804 11 7 C11 8.80918907 12.50708476 10.23949861 13.5 11.6875 C15.79480366 15.2751508 16.54169918 17.66640659 16 22 C15.34 22 14.68 22 14 22 C13.84144531 21.40832031 13.68289062 20.81664063 13.51953125 20.20703125 C11.92303445 14.80011114 10.39079478 11.58196416 6 8 C5.67 8 5.34 8 5 8 C5 10.64 5 13.28 5 16 C4.01 16.33 3.02 16.66 2 17 C2 17.99 2 18.98 2 20 C1 22.1875 1 22.1875 0 24 C-2 22 -2 22 -2.23046875 20.08984375 C-2.11111111 14.11111111 -2.11111111 14.11111111 -1 13 C-0.76518307 10.81707226 -0.58636677 8.62796826 -0.4375 6.4375 C-0.293125 4.313125 -0.14875 2.18875 0 0 Z " fill="#F9DE44" transform="translate(30,0)"/>
<path d="M0 0 C6.6 0 13.2 0 20 0 C20 0.66 20 1.32 20 2 C18.4840625 2.309375 18.4840625 2.309375 16.9375 2.625 C10.29110867 4.57192271 6.37094549 8.95707637 3.0625 14.875 C2.36059356 16.24270194 1.66773589 17.61529424 1 19 C0.67 19 0.34 19 0 19 C0 12.73 0 6.46 0 0 Z " fill="#FCFBEF" transform="translate(0,0)"/>
<path d="M0 0 C1 3 1 3 1 5 C-0.175625 5.12375 -0.175625 5.12375 -1.375 5.25 C-4.14044802 5.71525923 -4.14044802 5.71525923 -5.1875 8 C-5.455625 8.66 -5.72375 9.32 -6 10 C-6.99 10.495 -6.99 10.495 -8 11 C-8 15.95 -8 20.9 -8 26 C-7.34 26 -6.68 26 -6 26 C-5.525625 26.804375 -5.05125 27.60875 -4.5625 28.4375 C-3.20016328 31.2918076 -3.20016328 31.2918076 0 32 C0 32.66 0 33.32 0 34 C1.98 34.33 3.96 34.66 6 35 C6.33 34.34 6.66 33.68 7 33 C7.66 33 8.32 33 9 33 C9 33.66 9 34.32 9 35 C11.64 34.34 14.28 33.68 17 33 C17.33 33.66 17.66 34.32 18 35 C12.61002274 37.41820601 7.83717696 37.79300583 2 37 C-3.67531919 34.80340636 -7.09191934 31.35086841 -10 26 C-11.90195321 20.29414036 -11.90252212 14.22853262 -9.4375 8.6875 C-7.10718158 4.54003798 -4.00633171 2.4654349 0 0 Z " fill="#C9AA18" transform="translate(17,5)"/>
<path d="M0 0 C2.44222099 3.05277623 4.23645999 5.35793014 6.125 8.5625 C9.26855001 13.10428519 13.90173253 14.40617269 19 16 C19 16.33 19 16.66 19 17 C12.73 17 6.46 17 0 17 C0 11.39 0 5.78 0 0 Z " fill="#FCFDFB" transform="translate(0,31)"/>
<path d="M0 0 C0.33 0 0.66 0 1 0 C1 6.6 1 13.2 1 20 C-5.27 20 -11.54 20 -18 20 C-18 19.67 -18 19.34 -18 19 C-16.35 19 -14.7 19 -13 19 C-13 18.01 -13 17.02 -13 16 C-7.58461538 13.78461538 -7.58461538 13.78461538 -4.625 14.875 C-4.08875 15.24625 -3.5525 15.6175 -3 16 C-3.33 13.36 -3.66 10.72 -4 8 C-3.34 8 -2.68 8 -2 8 C-1.855625 7.236875 -1.71125 6.47375 -1.5625 5.6875 C-1 3 -1 3 0 0 Z " fill="#FDFAE8" transform="translate(47,28)"/>
<path d="M0 0 C1.27945847 2.55891695 0.92800285 4.15195443 0.75 7 C0.7169158 13.31081175 2.28156451 17.89941224 6 23 C12.1288395 28.97106739 16.80112635 30.14073031 25.25 30.0625 C26.51328125 30.05347656 27.7765625 30.04445313 29.078125 30.03515625 C30.52445313 30.01775391 30.52445313 30.01775391 32 30 C32 30.66 32 31.32 32 32 C24.38517026 34.03062126 16.64226963 33.7585887 9.40234375 30.61328125 C4.24932479 27.1527986 0.74777704 21.49555408 -2 16 C-2.12257461 14.04450744 -2.17552388 12.08429382 -2.1875 10.125 C-2.20167969 9.07570313 -2.21585937 8.02640625 -2.23046875 6.9453125 C-2.00504937 4.06452929 -1.48964317 2.43759792 0 0 Z " fill="#F6E15A" transform="translate(2,15)"/>
<path d="M0 0 C0.33 0 0.66 0 1 0 C1.02578125 0.69867188 1.0515625 1.39734375 1.078125 2.1171875 C1.13484375 3.02726563 1.1915625 3.93734375 1.25 4.875 C1.29640625 5.77992188 1.3428125 6.68484375 1.390625 7.6171875 C1.75611148 10.17110544 1.75611148 10.17110544 4.046875 11.3203125 C4.69140625 11.54460938 5.3359375 11.76890625 6 12 C5.01 12.495 5.01 12.495 4 13 C3.53248212 15.35599235 3.53248212 15.35599235 3.375 18.0625 C3.30023437 18.98160156 3.22546875 19.90070312 3.1484375 20.84765625 C3.09945313 21.55792969 3.05046875 22.26820312 3 23 C4.32 23 5.64 23 7 23 C7 19.7 7 16.4 7 13 C7.33 13 7.66 13 8 13 C8.03222656 14.01578125 8.06445312 15.0315625 8.09765625 16.078125 C8.80698944 21.02974438 11.87051958 23.50729053 15.4375 26.75 C16.62560647 27.86776647 17.81187847 28.98748684 18.99609375 30.109375 C19.52388428 30.59374023 20.0516748 31.07810547 20.59545898 31.57714844 C23.09991073 34.11424991 23.98443764 35.60315971 24.125 39.1875 C24.08375 40.115625 24.0425 41.04375 24 42 C22.68 41.67 21.36 41.34 20 41 C20.33 40.34 20.66 39.68 21 39 C21.66 39.33 22.32 39.66 23 40 C20.25727687 34.62004309 17.72154999 31.71696488 13 28 C11.99426222 26.67098936 10.99204592 25.33926199 10 24 C9.34 24 8.68 24 8 24 C9.3089572 27.12197478 9.3089572 27.12197478 12 29 C11.67 29.66 11.34 30.32 11 31 C9.50870692 29.95458849 8.03230598 28.88791186 6.5625 27.8125 C5.73878906 27.22082031 4.91507813 26.62914063 4.06640625 26.01953125 C1.62310414 23.63165376 1.28885427 22.35596146 1 19 C1 16.66666667 1 14.33333333 1 12 C0.67 11.67 0.34 11.34 0 11 C-0.07226502 9.14712498 -0.0838122 7.29166122 -0.0625 5.4375 C-0.05347656 4.42558594 -0.04445313 3.41367188 -0.03515625 2.37109375 C-0.02355469 1.58863281 -0.01195313 0.80617187 0 0 Z " fill="#BDA218" transform="translate(20,2)"/>
<path d="M0 0 C5.94 0 11.88 0 18 0 C18 5.61 18 11.22 18 17 C15 13 15 13 13.25 10.0625 C9.67365925 5.19470287 5.35230805 2.67615403 0 0 Z " fill="#FCFAEC" transform="translate(30,0)"/>
<path d="M0 0 C1.9375 0.8125 1.9375 0.8125 4 2 C4.33 2.99 4.66 3.98 5 5 C6.32089969 5.69097484 7.65605051 6.35500234 9 7 C10.703125 8.62109375 10.703125 8.62109375 12.25 10.4375 C12.77078125 11.03433594 13.2915625 11.63117187 13.828125 12.24609375 C15 14 15 14 15 17 C10.8275894 16.48118887 8.74583179 15.28848726 5.6875 12.4375 C4.99011719 11.79683594 4.29273438 11.15617187 3.57421875 10.49609375 C3.05472656 10.00238281 2.53523438 9.50867187 2 9 C2.33 8.34 2.66 7.68 3 7 C2.67 6.67 2.34 6.34 2 6 C1 5 0 4 -1 3 C-0.67 2.01 -0.34 1.02 0 0 Z " fill="#C8AE18" transform="translate(28,25)"/>
<path d="M0 0 C2.64 0 5.28 0 8 0 C8.02688151 1.64574566 8.04634123 3.29161413 8.0625 4.9375 C8.07410156 5.85402344 8.08570313 6.77054688 8.09765625 7.71484375 C8 10 8 10 7 11 C4 11.125 4 11.125 1 11 C0 10 0 10 -0.09765625 7.71484375 C-0.08605469 6.79832031 -0.07445313 5.88179688 -0.0625 4.9375 C-0.05347656 4.01839844 -0.04445313 3.09929688 -0.03515625 2.15234375 C-0.02355469 1.44207031 -0.01195313 0.73179687 0 0 Z " fill="#F1D644" transform="translate(21,2)"/>
<path d="M0 0 C4.91511449 0.42129553 6.84412512 2.30531722 10 6 C15.84420081 13.51990767 15.84420081 13.51990767 16.375 18.5625 C16.25125 19.366875 16.1275 20.17125 16 21 C15.34 21 14.68 21 14 21 C13.84144531 20.40832031 13.68289062 19.81664063 13.51953125 19.20703125 C11.93063726 13.8258599 10.26909551 10.81971703 6 7 C5.67 6.01 5.34 5.02 5 4 C2.49552484 2.78130071 2.49552484 2.78130071 0 2 C0 1.34 0 0.68 0 0 Z " fill="#EADD92" transform="translate(30,1)"/>
<path d="M0 0 C3.91025991 0.57929776 6.16056336 2.3061755 9 5 C12.68012492 10.20293523 12.71669548 15.83828046 12 22 C10.98046875 24.3359375 10.98046875 24.3359375 10 26 C8.90341064 22.71023192 9.20046862 21.28696233 10 18 C9.34 18 8.68 18 8 18 C8 17.34 8 16.68 8 16 C8.66 16 9.32 16 10 16 C9.67 13.69 9.34 11.38 9 9 C8.34 9 7.68 9 7 9 C6.525625 8.195625 6.05125 7.39125 5.5625 6.5625 C4.20016328 3.7081924 4.20016328 3.7081924 1 3 C0.67 2.01 0.34 1.02 0 0 Z " fill="#C6AA19" transform="translate(32,6)"/>
<path d="M0 0 C0.70382812 0.2165625 1.40765625 0.433125 2.1328125 0.65625 C10.21979278 2.93665175 17.62667361 3.33443759 26 3 C26 3.66 26 4.32 26 5 C17.20364334 7.34569511 8.96811922 6.41063569 1 2 C0.67 1.34 0.34 0.68 0 0 Z " fill="#F8E369" transform="translate(8,42)"/>
<path d="M0 0 C1.19882812 0.15275391 1.19882812 0.15275391 2.421875 0.30859375 C3.02515625 0.39238281 3.6284375 0.47617187 4.25 0.5625 C4.58 1.5525 4.91 2.5425 5.25 3.5625 C-1.02 3.5625 -7.29 3.5625 -13.75 3.5625 C-13.75 3.2325 -13.75 2.9025 -13.75 2.5625 C-12.1 2.5625 -10.45 2.5625 -8.75 2.5625 C-8.75 1.9025 -8.75 1.2425 -8.75 0.5625 C-5.62819599 -0.40411363 -3.22916205 -0.42738909 0 0 Z " fill="#FDFCF7" transform="translate(42.75,44.4375)"/>
<path d="M0 0 C6.92307692 5.53846154 6.92307692 5.53846154 9 9 C9 9.99 9 10.98 9 12 C7.68 11.34 6.36 10.68 5 10 C5 9.34 5 8.68 5 8 C4.38125 7.773125 3.7625 7.54625 3.125 7.3125 C0.38589791 5.62070165 -0.05024472 4.00755839 -1 1 C-0.67 0.67 -0.34 0.34 0 0 Z " fill="#F4DB56" transform="translate(34,30)"/>
<path d="M0 0 C0.8971875 0.309375 0.8971875 0.309375 1.8125 0.625 C1.28140625 0.90472656 0.7503125 1.18445313 0.203125 1.47265625 C-5.17702279 4.5259883 -7.47368226 7.09298691 -10.1875 12.625 C-10.8475 13.285 -11.5075 13.945 -12.1875 14.625 C-12.921875 12.9140625 -12.921875 12.9140625 -13.1875 10.625 C-11.640625 8.3359375 -11.640625 8.3359375 -9.4375 6 C-8.72078125 5.22398437 -8.0040625 4.44796875 -7.265625 3.6484375 C-2.99183355 -0.51288575 -2.99183355 -0.51288575 0 0 Z " fill="#C0AE37" transform="translate(16.1875,2.375)"/>
<path d="M0 0 C0.99 0 1.98 0 3 0 C3.33 3.3 3.66 6.6 4 10 C2.68 10 1.36 10 0 10 C0 6.7 0 3.4 0 0 Z " fill="#EBCE39" transform="translate(23,15)"/>
<path d="M0 0 C2.475 0.99 2.475 0.99 5 2 C4.34 2.66 3.68 3.32 3 4 C3.66 4.33 4.32 4.66 5 5 C4.67 6.32 4.34 7.64 4 9 C2.68 9 1.36 9 0 9 C0 6.03 0 3.06 0 0 Z " fill="#F0D341" transform="translate(30,3)"/>
<path d="M0 0 C0.99 0.33 1.98 0.66 3 1 C2.71640113 2.4391134 2.42278601 3.87625518 2.125 5.3125 C1.88136719 6.51326172 1.88136719 6.51326172 1.6328125 7.73828125 C1 10 1 10 -1 13 C-0.34 13.33 0.32 13.66 1 14 C0.01 14.33 -0.98 14.66 -2 15 C-1.47462276 9.9697924 -0.89405214 4.98114761 0 0 Z " fill="#F4DD4F" transform="translate(44,22)"/>
<path d="M0 0 C0.33 0 0.66 0 1 0 C1 3.3 1 6.6 1 10 C0.01 9.67 -0.98 9.34 -2 9 C-2 10.98 -2 12.96 -2 15 C-2.33 15 -2.66 15 -3 15 C-3.33 12.69 -3.66 10.38 -4 8 C-3.34 8 -2.68 8 -2 8 C-1.855625 7.236875 -1.71125 6.47375 -1.5625 5.6875 C-1 3 -1 3 0 0 Z " fill="#F7F3D5" transform="translate(47,28)"/>
<path d="M0 0 C0.99 0.8971875 0.99 0.8971875 2 1.8125 C5.58183997 4.42425831 8.81377726 5.58094144 13 7 C13 7.33 13 7.66 13 8 C9.92576817 8.35471906 7.05991472 8.52666346 4 8 C0 3.51219512 0 3.51219512 0 0 Z " fill="#FEF8CE" transform="translate(6,40)"/>
<path d="M0 0 C2.40072955 2.88087546 4.47291037 5.56404834 6 9 C4.02 8.34 2.04 7.68 0 7 C0 4.69 0 2.38 0 0 Z " fill="#FEF8D0" transform="translate(0,31)"/>
<path d="M0 0 C1.32 0.66 2.64 1.32 4 2 C4 2.99 4 3.98 4 5 C2.68 4.67 1.36 4.34 0 4 C0 2.68 0 1.36 0 0 Z " fill="#F2D743" transform="translate(28,25)"/>
<path d="M0 0 C0.99 0 1.98 0 3 0 C4.35439668 2.70879335 4.06501451 5.00933268 4 8 C3.34 8 2.68 8 2 8 C1.34 5.36 0.68 2.72 0 0 Z " fill="#F9E67C" transform="translate(42,14)"/>
<path d="M0 0 C2.29633824 3.44450737 2.54016485 5.93812283 3 10 C1.5 8.9375 1.5 8.9375 0 7 C-0.1875 3.3125 -0.1875 3.3125 0 0 Z " fill="#F0DC50" transform="translate(2,28)"/>
<path d="M0 0 C0.99 0.33 1.98 0.66 3 1 C1.68 2.32 0.36 3.64 -1 5 C-1.99 4.67 -2.98 4.34 -4 4 C-2.68 2.68 -1.36 1.36 0 0 Z " fill="#F1D63F" transform="translate(12,5)"/>
</svg>
