<?xml version="1.0" encoding="UTF-8"?>
<svg version="1.1" xmlns="http://www.w3.org/2000/svg" width="48" height="48">
<path d="M0 0 C15.84 0 31.68 0 48 0 C48 15.84 48 31.68 48 48 C32.16 48 16.32 48 0 48 C0 32.16 0 16.32 0 0 Z " fill="#BEA523" transform="translate(0,0)"/>
<path d="M0 0 C15.84 0 31.68 0 48 0 C48 15.84 48 31.68 48 48 C32.16 48 16.32 48 0 48 C0 32.16 0 16.32 0 0 Z M16.3046875 2.23046875 C14.78617111 3.93236874 14.78617111 3.93236874 14.9609375 6.2265625 C15.09757813 7.01804687 15.23421875 7.80953125 15.375 8.625 C15.61489394 10.07847507 15.83092145 11.53659598 16 13 C14.29020752 14.70979248 11.96069337 14.32834799 9.625 14.5 C6.47979491 14.73236344 4.00372093 14.99875969 1 16 C1 20.29 1 24.58 1 29 C1.99 29 2.98 29 4 29 C3.83242188 29.69867187 3.66484375 30.39734375 3.4921875 31.1171875 C3.18667969 32.48230469 3.18667969 32.48230469 2.875 33.875 C2.66617187 34.77992187 2.45734375 35.68484375 2.2421875 36.6171875 C2.12230469 37.79667969 2.12230469 37.79667969 2 39 C2.66 39.66 3.32 40.32 4 41 C5.32 41 6.64 41 8 41 C8.33 41.99 8.66 42.98 9 44 C10.98 43.505 10.98 43.505 13 43 C12.01 42.67 11.02 42.34 10 42 C14.12494151 41.94215292 18.24977944 41.90645593 22.375 41.875 C23.550625 41.85824219 24.72625 41.84148438 25.9375 41.82421875 C27.61972656 41.81455078 27.61972656 41.81455078 29.3359375 41.8046875 C30.37282715 41.79421387 31.4097168 41.78374023 32.47802734 41.77294922 C35 42 35 42 37 44 C39.60280568 43.67958603 39.60280568 43.67958603 42 43 C42 42.34 42 41.68 42 41 C43.65 41 45.3 41 47 41 C46.62095792 37.70924004 46.62095792 37.70924004 45 35 C44.60430892 32.98688551 44.25747809 30.96402792 43.9375 28.9375 C43.76089844 27.83277344 43.58429687 26.72804688 43.40234375 25.58984375 C43.20318359 24.30787109 43.20318359 24.30787109 43 23 C43.99 23 44.98 23 46 23 C46 20.69 46 18.38 46 16 C43.36 16 40.72 16 38 16 C38 15.34 38 14.68 38 14 C31.4 14 24.8 14 18 14 C18.66 13.67 19.32 13.34 20 13 C19.34 11.68 18.68 10.36 18 9 C19.98 9 21.96 9 24 9 C23.01 10.485 23.01 10.485 22 12 C23.65 12 25.3 12 27 12 C27 10.35 27 8.7 27 7 C28.32 7 29.64 7 31 7 C31 5.68 31 4.36 31 3 C23.50784869 0.29805949 23.50784869 0.29805949 16.3046875 2.23046875 Z " fill="#FDFCF2" transform="translate(0,0)"/>
<path d="M0 0 C0 0.66 0 1.32 0 2 C2.64 2 5.28 2 8 2 C8 4.31 8 6.62 8 9 C7.01 9 6.02 9 5 9 C5.28168297 10.95979427 5.57566717 12.91782378 5.875 14.875 C6.03742187 15.96554688 6.19984375 17.05609375 6.3671875 18.1796875 C6.76256513 21.11932714 6.76256513 21.11932714 9 23 C9 24.32 9 25.64 9 27 C7.35 27 5.7 27 4 27 C3.67 27.99 3.34 28.98 3 30 C-1.875 29.125 -1.875 29.125 -3 28 C-5.32817964 27.63239269 -7.6618385 27.29758419 -10 27 C-9.34 26.34 -8.68 25.68 -8 25 C-8.1009857 21.20412565 -8.79999766 17.60000701 -10 14 C-11.65261839 12.97695052 -13.31791365 11.97383946 -15 11 C-15.45570813 7.96377597 -15.28755958 5.04813151 -15 2 C-15.99 1.67 -16.98 1.34 -18 1 C-15.56257869 0.83210874 -13.12507454 0.66563867 -10.6875 0.5 C-9.99720703 0.45230469 -9.30691406 0.40460937 -8.59570312 0.35546875 C-5.72337641 0.16120511 -2.87986212 0 0 0 Z " fill="#BAA015" transform="translate(38,14)"/>
<path d="M0 0 C4.95 0 9.9 0 15 0 C15.22786458 2.21354167 15.45572917 4.42708333 15.68359375 6.640625 C15.93490397 8.99537346 15.93490397 8.99537346 16.66015625 11.171875 C16.77230469 11.77515625 16.88445313 12.3784375 17 13 C14.14206684 15.85793316 11.85334416 15.40799941 7.875 15.625 C6.59367188 15.69976562 5.31234375 15.77453125 3.9921875 15.8515625 C3.00476563 15.90054687 2.01734375 15.94953125 1 16 C1 20.29 1 24.58 1 29 C1.99 29 2.98 29 4 29 C4.12752881 34.61126761 4.12752881 34.61126761 3.3515625 36.9765625 C2.78786194 39.03377051 2.78786194 39.03377051 3.92578125 40.8515625 C4.38339844 41.43679687 4.84101562 42.02203125 5.3125 42.625 C5.76238281 43.21539062 6.21226562 43.80578125 6.67578125 44.4140625 C8.05864458 46.11835884 8.05864458 46.11835884 10 48 C6.7 48 3.4 48 0 48 C0 32.16 0 16.32 0 0 Z " fill="#FDFDF5" transform="translate(0,0)"/>
<path d="M0 0 C2.94851556 2.34488245 3.93035506 3.42333987 4.390625 7.234375 C4.34421875 8.39453125 4.2978125 9.5546875 4.25 10.75 C4.21390625 11.92046875 4.1778125 13.0909375 4.140625 14.296875 C4.09421875 15.18890625 4.0478125 16.0809375 4 17 C-1.32017615 17.09906509 -6.63981247 17.17156072 -11.96069336 17.21972656 C-13.7697078 17.23981053 -15.57865757 17.26708341 -17.38745117 17.30175781 C-19.99153621 17.35041892 -22.59476115 17.37300051 -25.19921875 17.390625 C-26.40731453 17.42159271 -26.40731453 17.42159271 -27.63981628 17.45318604 C-31.60458787 17.45476131 -33.57126852 17.25820665 -37.05004883 15.16308594 C-39 13 -39 13 -39 10 C-37.66666667 10 -36.33333333 10 -35 10 C-34.18539307 9.98952637 -33.37078613 9.97905273 -32.53149414 9.96826172 C-29.04186283 9.9267966 -25.55228099 9.90075484 -22.0625 9.875 C-20.84369141 9.85824219 -19.62488281 9.84148438 -18.36914062 9.82421875 C-16.62600586 9.81455078 -16.62600586 9.81455078 -14.84765625 9.8046875 C-13.77523682 9.79421387 -12.70281738 9.78374023 -11.59790039 9.77294922 C-9 10 -9 10 -7 12 C-5.68 12 -4.36 12 -3 12 C-2.67 11.34 -2.34 10.68 -2 10 C-0.35 10 1.3 10 3 10 C2.690625 9.278125 2.38125 8.55625 2.0625 7.8125 C1.07439461 5.19692691 0.4712246 2.74881018 0 0 Z " fill="#F6DD51" transform="translate(44,31)"/>
<path d="M0 0 C2.00720923 0.28674418 4.0085944 0.61866701 6 1 C6 3.97 6 6.94 6 10 C7.32 10.33 8.64 10.66 10 11 C12.52480693 13.52480693 12.55738633 15.13823034 13.125 18.625 C13.29257812 19.62789062 13.46015625 20.63078125 13.6328125 21.6640625 C13.81457031 22.82035156 13.81457031 22.82035156 14 24 C12.68 24 11.36 24 10 24 C9.86464844 23.30132812 9.72929687 22.60265625 9.58984375 21.8828125 C8.92751188 19.08277479 8.24498223 16.59766188 7 14 C3.50656314 12.29755893 3.50656314 12.29755893 0 12 C-1 11 -1 11 -1.1328125 8.75 C-1.13023438 7.8425 -1.12765625 6.935 -1.125 6 C-1.12757812 5.0925 -1.13015625 4.185 -1.1328125 3.25 C-1 1 -1 1 0 0 Z " fill="#FADD47" transform="translate(17,15)"/>
<path d="M0 0 C1.60875 0.020625 3.2175 0.04125 4.875 0.0625 C5.205 3.6925 5.535 7.3225 5.875 11.0625 C1.585 11.0625 -2.705 11.0625 -7.125 11.0625 C-7.125 7.7625 -7.125 4.4625 -7.125 1.0625 C-4.60024538 -0.19987731 -2.81299534 -0.03606404 0 0 Z " fill="#F9DD44" transform="translate(9.125,16.9375)"/>
<path d="M0 0 C2.97 0 5.94 0 9 0 C9 7.92 9 15.84 9 24 C8.34 24 7.68 24 7 24 C6.79503906 23.08476563 6.59007812 22.16953125 6.37890625 21.2265625 C6.10949219 20.03804687 5.84007812 18.84953125 5.5625 17.625 C5.29566406 16.44164063 5.02882813 15.25828125 4.75390625 14.0390625 C4.14365305 11.10505419 4.14365305 11.10505419 3 9 C2.01 8.67 1.02 8.34 0 8 C0 5.36 0 2.72 0 0 Z " fill="#F6D941" transform="translate(25,16)"/>
<path d="M0 0 C2.38416056 0.56013411 4.66345825 1.25230664 7 2 C7 3.32 7 4.64 7 6 C5.68 6 4.36 6 3 6 C3 7.65 3 9.3 3 11 C1.35 11 -0.3 11 -2 11 C-1.34 10.01 -0.68 9.02 0 8 C-1.98 8 -3.96 8 -6 8 C-5.34 9.32 -4.68 10.64 -4 12 C-5.32 12.99 -6.64 13.98 -8 15 C-8 14.01 -8 13.02 -8 12 C-8.34342543 9.71601402 -8.69820587 7.43511594 -9.07421875 5.15625 C-9 3 -9 3 -7.69140625 1.23828125 C-5.08296006 -0.67136643 -3.17060044 -0.30486543 0 0 Z " fill="#BAAB50" transform="translate(24,1)"/>
<path d="M0 0 C0.33 0 0.66 0 1 0 C1 3.3 1 6.6 1 10 C2.32 10.66 3.64 11.32 5 12 C6.4375 14.8125 6.4375 14.8125 7 18 C5.66873553 20.92878184 4.26695035 22.73304965 2 25 C1.01 25 0.02 25 -1 25 C-1.02886984 21.02084841 -1.04675406 17.04172347 -1.0625 13.0625 C-1.07087891 11.92619141 -1.07925781 10.78988281 -1.08789062 9.61914062 C-1.09111328 8.53955078 -1.09433594 7.45996094 -1.09765625 6.34765625 C-1.10289307 5.34742432 -1.10812988 4.34719238 -1.11352539 3.31665039 C-1 1 -1 1 0 0 Z " fill="#F6D942" transform="translate(36,15)"/>
<path d="M0 0 C0.33 0 0.66 0 1 0 C1 3.96 1 7.92 1 12 C1.99 12 2.98 12 4 12 C4.12752881 17.61126761 4.12752881 17.61126761 3.3515625 19.9765625 C2.78786194 22.03377051 2.78786194 22.03377051 3.92578125 23.8515625 C4.38339844 24.43679687 4.84101562 25.02203125 5.3125 25.625 C5.76238281 26.21539062 6.21226562 26.80578125 6.67578125 27.4140625 C8.05864458 29.11835884 8.05864458 29.11835884 10 31 C6.7 31 3.4 31 0 31 C0 20.77 0 10.54 0 0 Z " fill="#FDFCED" transform="translate(0,17)"/>
<path d="M0 0 C1.0725 -0.01417969 2.145 -0.02835938 3.25 -0.04296875 C6 0.1875 6 0.1875 8 2.1875 C8.1953125 4.3515625 8.1953125 4.3515625 8.125 6.8125 C8.10695313 7.62976562 8.08890625 8.44703125 8.0703125 9.2890625 C8.04710938 9.91554688 8.02390625 10.54203125 8 11.1875 C7.34 11.1875 6.68 11.1875 6 11.1875 C5.67 9.5375 5.34 7.8875 5 6.1875 C-1.93 5.6925 -1.93 5.6925 -9 5.1875 C-8.67 3.8675 -8.34 2.5475 -8 1.1875 C-5.27457733 -0.17521133 -3.03912726 0.01826399 0 0 Z " fill="#EFD33B" transform="translate(14,28.8125)"/>
<path d="M0 0 C2.64 0 5.28 0 8 0 C7.01 1.485 7.01 1.485 6 3 C6.84304687 2.98839844 7.68609375 2.97679687 8.5546875 2.96484375 C9.65039062 2.95582031 10.74609375 2.94679688 11.875 2.9375 C12.96554688 2.92589844 14.05609375 2.91429687 15.1796875 2.90234375 C18 3 18 3 20 4 C20 4.66 20 5.32 20 6 C17.703463 7.1482685 16.41686833 7.11561175 13.8671875 7.09765625 C13.06152344 7.09443359 12.25585938 7.09121094 11.42578125 7.08789062 C10.58402344 7.07951172 9.74226563 7.07113281 8.875 7.0625 C8.02550781 7.05798828 7.17601562 7.05347656 6.30078125 7.04882812 C4.20049091 7.03702874 2.1002367 7.01909306 0 7 C0.33 6.34 0.66 5.68 1 5 C1.66 5 2.32 5 3 5 C2.01 3.35 1.02 1.7 0 0 Z " fill="#DFDA9F" transform="translate(17,8)"/>
<path d="M0 0 C0.77988281 -0.06058594 1.55976563 -0.12117188 2.36328125 -0.18359375 C4.6875 0.4375 4.6875 0.4375 8.6875 6.4375 C2.4175 6.4375 -3.8525 6.4375 -10.3125 6.4375 C-4.09623702 0.22123702 -4.09623702 0.22123702 0 0 Z " fill="#FDFDF6" transform="translate(26.3125,41.5625)"/>
<path d="M0 0 C1.08410156 0.00257812 2.16820312 0.00515625 3.28515625 0.0078125 C4.90744141 0.00394531 4.90744141 0.00394531 6.5625 0 C9.34765625 0.1328125 9.34765625 0.1328125 11.34765625 1.1328125 C11.34765625 2.4528125 11.34765625 3.7728125 11.34765625 5.1328125 C6.72765625 5.1328125 2.10765625 5.1328125 -2.65234375 5.1328125 C-2.98234375 3.8128125 -3.31234375 2.4928125 -3.65234375 1.1328125 C-2.65234375 0.1328125 -2.65234375 0.1328125 0 0 Z " fill="#EFD23B" transform="translate(7.65234375,34.8671875)"/>
<path d="M0 0 C0.99 0 1.98 0 3 0 C3.33 0.66 3.66 1.32 4 2 C5.66611905 2.042721 7.33382885 2.04063832 9 2 C9.33 1.67 9.66 1.34 10 1 C12.33297433 0.95907063 14.66705225 0.95758277 17 1 C13.25 5.875 13.25 5.875 11 7 C7.14809417 7.42798954 5.44580746 7.28105253 2.125 5.1875 C0 3 0 3 0 0 Z " fill="#F8E057" transform="translate(5,41)"/>
<path d="M0 0 C2.64 0 5.28 0 8 0 C8 2.31 8 4.62 8 7 C7.01 7 6.02 7 5 7 C4.67 7.99 4.34 8.98 4 10 C2.68 9.34 1.36 8.68 0 8 C0 5.36 0 2.72 0 0 Z " fill="#CEBF60" transform="translate(38,16)"/>
<path d="M0 0 C0.99 0.33 1.98 0.66 3 1 C3.94921875 3.72265625 3.94921875 3.72265625 4.6875 7.0625 C4.93886719 8.16722656 5.19023437 9.27195312 5.44921875 10.41015625 C5.63097656 11.26480469 5.81273437 12.11945312 6 13 C4.02 13 2.04 13 0 13 C0 8.71 0 4.42 0 0 Z " fill="#BFA311" transform="translate(22,28)"/>
<path d="M0 0 C3.79336648 0.21074258 6.76785416 1.03321333 10.375 2.1875 C10.045 3.1775 9.715 4.1675 9.375 5.1875 C4.375 5.1875 -0.625 5.1875 -5.625 5.1875 C-3.22643198 0.23045943 -3.22643198 0.23045943 0 0 Z " fill="#B5AC63" transform="translate(20.625,0.8125)"/>
<path d="M0 0 C2.94851556 2.34488245 3.93035506 3.42333987 4.390625 7.234375 C4.34421875 8.39453125 4.2978125 9.5546875 4.25 10.75 C4.21390625 11.92046875 4.1778125 13.0909375 4.140625 14.296875 C4.09421875 15.18890625 4.0478125 16.0809375 4 17 C2.02 17 0.04 17 -2 17 C-1.67 15.02 -1.34 13.04 -1 11 C0.32 10.67 1.64 10.34 3 10 C2.5359375 8.9171875 2.5359375 8.9171875 2.0625 7.8125 C1.07439461 5.19692691 0.4712246 2.74881018 0 0 Z " fill="#F5E05F" transform="translate(44,31)"/>
<path d="M0 0 C1.9296875 0.72265625 1.9296875 0.72265625 4 2 C4.7578125 4.05859375 4.7578125 4.05859375 5.125 6.4375 C5.66325452 9.77138261 6.05291502 11.07937253 8 14 C7.67 14.66 7.34 15.32 7 16 C5.02 16 3.04 16 1 16 C1 13 1 13 2.1875 10.125 C3.36961313 6.98539221 3.36961313 6.98539221 1.625 4.25 C1.08875 3.5075 0.5525 2.765 0 2 C0 1.34 0 0.68 0 0 Z " fill="#CEB525" transform="translate(39,24)"/>
<path d="M0 0 C0.66 0 1.32 0 2 0 C2 2.31 2 4.62 2 7 C2.93585937 7.11021484 2.93585937 7.11021484 3.890625 7.22265625 C6 8 6 8 7.046875 9.99609375 C7.27890625 10.80175781 7.5109375 11.60742188 7.75 12.4375 C8.11351562 13.64212891 8.11351562 13.64212891 8.484375 14.87109375 C9 17 9 17 9 19 C8.34 19 7.68 19 7 19 C6.82984375 18.37351562 6.6596875 17.74703125 6.484375 17.1015625 C6.24203125 16.28429687 5.9996875 15.46703125 5.75 14.625 C5.51796875 13.81289063 5.2859375 13.00078125 5.046875 12.1640625 C3.7785108 9.54214546 2.67576692 9.00617682 0 8 C0 5.36 0 2.72 0 0 Z " fill="#C8AA13" transform="translate(23,17)"/>
<path d="M0 0 C3.96 0 7.92 0 12 0 C11.67 0.99 11.34 1.98 11 3 C7.04 3 3.08 3 -1 3 C-0.67 2.01 -0.34 1.02 0 0 Z " fill="#FBE047" transform="translate(6,30)"/>
<path d="M0 0 C0.33 0 0.66 0 1 0 C1 3.96 1 7.92 1 12 C1.99 12 2.98 12 4 12 C4 13.98 4 15.96 4 18 C3.34 18.33 2.68 18.66 2 19 C-0.04898287 14.78103134 -0.21207997 11.34627854 -0.125 6.6875 C-0.10695312 5.43324219 -0.08890625 4.17898437 -0.0703125 2.88671875 C-0.03550781 1.45779297 -0.03550781 1.45779297 0 0 Z " fill="#F9EFC5" transform="translate(0,17)"/>
<path d="M0 0 C4.62 0 9.24 0 14 0 C14.33 0.99 14.66 1.98 15 3 C13.33388095 3.042721 11.66617115 3.04063832 10 3 C9.67 2.67 9.34 2.34 9 2 C4.96839809 1.73706944 3.44107266 1.70595156 0 4 C0 2.68 0 1.36 0 0 Z " fill="#FCF9DB" transform="translate(15,0)"/>
<path d="M0 0 C7.59 0 15.18 0 23 0 C23 0.33 23 0.66 23 1 C21.19402344 1.09087891 21.19402344 1.09087891 19.3515625 1.18359375 C17.77602923 1.26799732 16.20050904 1.35264541 14.625 1.4375 C13.8309375 1.47681641 13.036875 1.51613281 12.21875 1.55664062 C7.97398779 1.68893404 7.97398779 1.68893404 4 3 C1.875 2.0625 1.875 2.0625 0 1 C0 0.67 0 0.34 0 0 Z " fill="#E0C742" transform="translate(9,41)"/>
<path d="M0 0 C1.32 0 2.64 0 4 0 C4.33 2.31 4.66 4.62 5 7 C3.68 7 2.36 7 1 7 C0.67 4.69 0.34 2.38 0 0 Z " fill="#F5D93E" transform="translate(26,32)"/>
<path d="M0 0 C0.66 0 1.32 0 2 0 C2.66 3.3 3.32 6.6 4 10 C2.68 10 1.36 10 0 10 C0 6.7 0 3.4 0 0 Z " fill="#F6E369" transform="translate(2,18)"/>
<path d="M0 0 C-0.33 0.66 -0.66 1.32 -1 2 C-2.36125 1.87625 -2.36125 1.87625 -3.75 1.75 C-7.73735823 2.05671986 -8.32027434 3.23095015 -11 6 C-13.25 5.75 -13.25 5.75 -15 5 C-10.11364631 -0.01164481 -6.90153688 -0.69015369 0 0 Z " fill="#FEFBDC" transform="translate(31,42)"/>
<path d="M0 0 C2.31 0.33 4.62 0.66 7 1 C6.67 1.99 6.34 2.98 6 4 C3.69 4 1.38 4 -1 4 C-0.67 2.68 -0.34 1.36 0 0 Z " fill="#D4C983" transform="translate(24,2)"/>
<path d="M0 0 C0.33 0 0.66 0 1 0 C1 1.98 1 3.96 1 6 C-0.98 6 -2.96 6 -5 6 C-4.67 5.34 -4.34 4.68 -4 4 C-3.34 4 -2.68 4 -2 4 C-2 3.34 -2 2.68 -2 2 C-1.34 2 -0.68 2 0 2 C0 1.34 0 0.68 0 0 Z " fill="#FBF9D6" transform="translate(47,42)"/>
<path d="M0 0 C1.80330533 3.60661066 2.46599103 6.08393425 3 10 C2.01 10 1.02 10 0 10 C0 6.7 0 3.4 0 0 Z " fill="#EED143" transform="translate(23,30)"/>
<path d="M0 0 C2.64 0 5.28 0 8 0 C7.01 1.485 7.01 1.485 6 3 C3.5625 2.625 3.5625 2.625 1 2 C0.67 1.34 0.34 0.68 0 0 Z " fill="#FEFCE2" transform="translate(17,8)"/>
<path d="M0 0 C2.64 0 5.28 0 8 0 C7.01 0.33 6.02 0.66 5 1 C4.67 1.99 4.34 2.98 4 4 C2.68 3.34 1.36 2.68 0 2 C0 1.34 0 0.68 0 0 Z " fill="#E8D255" transform="translate(38,22)"/>
<path d="M0 0 C0.99 0.33 1.98 0.66 3 1 C2.67 1.99 2.34 2.98 2 4 C0.35 4 -1.3 4 -3 4 C-2.67 3.01 -2.34 2.02 -2 1 C-1.34 0.67 -0.68 0.34 0 0 Z " fill="#FBF6CD" transform="translate(20,2)"/>
</svg>
