<?xml version="1.0" encoding="UTF-8"?>
<svg version="1.1" xmlns="http://www.w3.org/2000/svg" width="48" height="48">
<path d="M0 0 C15.84 0 31.68 0 48 0 C48 15.84 48 31.68 48 48 C32.16 48 16.32 48 0 48 C0 32.16 0 16.32 0 0 Z " fill="#B8A42D" transform="translate(0,0)"/>
<path d="M0 0 C7.92 0 15.84 0 24 0 C24 15.84 24 31.68 24 48 C16.08 48 8.16 48 0 48 C5 43 5 43 8 42 C8.68620031 40.67661368 9.34786461 39.34050052 10 38 C12.52562802 34.82677506 15.13634437 31.86365563 18 29 C20.83909637 24.74135544 20.51085825 20.99683225 20 16 C18.68914549 12.68836756 17.92772454 11.460641 14.75 9.8828125 C11.72911667 8.9130403 9.35007969 8.79879326 6.1875 8.875 C5.21167969 8.89304687 4.23585938 8.91109375 3.23046875 8.9296875 C2.49441406 8.95289063 1.75835938 8.97609375 1 9 C1.020625 8.071875 1.04125 7.14375 1.0625 6.1875 C1.15769604 2.97713989 1.15769604 2.97713989 0 0 Z " fill="#FDFBEB" transform="translate(24,0)"/>
<path d="M0 0 C7.59 0 15.18 0 23 0 C22.67 2.97 22.34 5.94 22 9 C20.78763672 8.93039062 20.78763672 8.93039062 19.55078125 8.859375 C12.94048034 8.52531894 12.94048034 8.52531894 6.875 10.75 C3.16304498 15.20434603 2.49185145 18.10547677 3 24 C5.29301092 30.28284992 9.97732636 34.28006876 14.6875 38.8125 C16.25590257 40.33779369 17.82242232 41.8650267 19.38671875 43.39453125 C20.07983154 44.06331299 20.77294434 44.73209473 21.48706055 45.42114258 C23 47 23 47 23 48 C15.41 48 7.82 48 0 48 C0 32.16 0 16.32 0 0 Z " fill="#FDFCF5" transform="translate(0,0)"/>
<path d="M0 0 C0.86625 -0.01675781 1.7325 -0.03351562 2.625 -0.05078125 C5.44664997 0.38081981 6.15263902 1.2287208 8 3.3125 C8.66 3.3125 9.32 3.3125 10 3.3125 C10.14695312 4.25609375 10.14695312 4.25609375 10.296875 5.21875 C11.35486424 11.27482635 13.1030111 15.90478739 16 21.3125 C16 21.9725 16 22.6325 16 23.3125 C15.34 23.3125 14.68 23.3125 14 23.3125 C13.34 22.3225 12.68 21.3325 12 20.3125 C8.5 19.8125 8.5 19.8125 5 20.3125 C4.34 21.3025 3.68 22.2925 3 23.3125 C2.34 22.9825 1.68 22.6525 1 22.3125 C2.98 18.3525 4.96 14.3925 7 10.3125 C5.40177282 13.50895437 3.72199346 16.51094558 1.875 19.5625 C1.33617187 20.45453125 0.79734375 21.3465625 0.2421875 22.265625 C-0.16773438 22.94109375 -0.57765625 23.6165625 -1 24.3125 C-2.32 23.6525 -3.64 22.9925 -5 22.3125 C-5 21.6525 -5 20.9925 -5 20.3125 C-5.61875 20.065 -6.2375 19.8175 -6.875 19.5625 C-9.48998244 18.02427504 -10.06708246 17.18899576 -11 14.3125 C-11.45466086 9.31123056 -11.09261015 6.32143908 -8 2.3125 C-4.78169935 0.16696623 -3.73213493 0.01666132 0 0 Z " fill="#FBDF43" transform="translate(15,9.6875)"/>
<path d="M0 0 C3.01113945 1.27537931 3.80962762 2.31679384 6 5 C7.32346541 9.13489475 7.51859982 12.60626299 6 16.6875 C3.28757166 19.82374526 0.2369734 22.4192897 -3 25 C-4.34320438 22.67177907 -5.67527042 20.33865723 -7 18 C-7.37125 17.360625 -7.7425 16.72125 -8.125 16.0625 C-10.16914398 11.24416062 -11.32789905 6.24638488 -11 1 C-7.49759552 -0.75120224 -3.82168145 -0.54503846 0 0 Z " fill="#FBDE44" transform="translate(37,10)"/>
<path d="M0 0 C7.92 0 15.84 0 24 0 C24 5.28 24 10.56 24 16 C22.35 14.35 20.7 12.7 19 11 C13.11437249 8.52803645 7.26956905 8.79592723 1 9 C1.020625 8.071875 1.04125 7.14375 1.0625 6.1875 C1.15769604 2.97713989 1.15769604 2.97713989 0 0 Z " fill="#FDFDFA" transform="translate(24,0)"/>
<path d="M0 0 C3.160755 2.13167197 4.32031654 3.24263207 5.6875 6.8125 C5.91870475 10.16239986 5.86320724 13.46104715 5.6875 16.8125 C5.0275 17.1425 4.3675 17.4725 3.6875 17.8125 C3.72230469 17.22082031 3.75710937 16.62914063 3.79296875 16.01953125 C3.96180004 11.09126563 3.94669114 7.79595584 0.6875 3.8125 C-2.73344242 1.53187172 -3.99437222 1.59324993 -8 1.6875 C-8.99386719 1.70554687 -9.98773437 1.72359375 -11.01171875 1.7421875 C-11.77097656 1.76539063 -12.53023437 1.78859375 -13.3125 1.8125 C-13.00067931 3.22931634 -12.68801263 4.64594651 -12.375 6.0625 C-12.20097656 6.85140625 -12.02695312 7.6403125 -11.84765625 8.453125 C-11.58275391 9.62101562 -11.58275391 9.62101562 -11.3125 10.8125 C-11.09400391 11.88757813 -11.09400391 11.88757813 -10.87109375 12.984375 C-10.40002656 15.03804875 -10.40002656 15.03804875 -8.3125 16.8125 C-6.99368625 19.76043662 -6.01268878 22.66165051 -5.3125 25.8125 C-7.2925 25.8125 -9.2725 25.8125 -11.3125 25.8125 C-11.6425 24.8225 -11.9725 23.8325 -12.3125 22.8125 C-13.9625 22.4825 -15.6125 22.1525 -17.3125 21.8125 C-17.68375 22.451875 -18.055 23.09125 -18.4375 23.75 C-20.89302793 26.45108072 -22.75828805 26.49657005 -26.3125 26.8125 C-24.60924105 22.37925125 -22.52053673 18.23088295 -20.3359375 14.01953125 C-19.17227111 11.91556109 -19.17227111 11.91556109 -19.3125 9.8125 C-17.9925 10.1425 -16.6725 10.4725 -15.3125 10.8125 C-15.9725 10.8125 -16.6325 10.8125 -17.3125 10.8125 C-17.51746094 11.42738281 -17.72242188 12.04226562 -17.93359375 12.67578125 C-19.05989583 16.0546875 -20.18619792 19.43359375 -21.3125 22.8125 C-20.6525 21.8225 -19.9925 20.8325 -19.3125 19.8125 C-15.6875 19.625 -15.6875 19.625 -12.3125 19.8125 C-11.6525 21.1325 -10.9925 22.4525 -10.3125 23.8125 C-9.6525 23.8125 -8.9925 23.8125 -8.3125 23.8125 C-8.66183594 23.12542969 -9.01117187 22.43835938 -9.37109375 21.73046875 C-10.05365234 20.37888672 -10.05365234 20.37888672 -10.75 19 C-11.20246094 18.10667969 -11.65492187 17.21335937 -12.12109375 16.29296875 C-14.21231815 11.93910811 -14.40299628 8.60880306 -14.3125 3.8125 C-14.9725 3.8125 -15.6325 3.8125 -16.3125 3.8125 C-16.6425 5.1325 -16.9725 6.4525 -17.3125 7.8125 C-17.3125 5.8325 -17.3125 3.8525 -17.3125 1.8125 C-16.3225 1.8125 -15.3325 1.8125 -14.3125 1.8125 C-14.3125 1.1525 -14.3125 0.4925 -14.3125 -0.1875 C-9.25449996 -1.87350001 -4.94491784 -1.77270639 0 0 Z " fill="#C7AB1B" transform="translate(39.3125,9.1875)"/>
<path d="M0 0 C1.65 0.33 3.3 0.66 5 1 C5.33 2.32 5.66 3.64 6 5 C7.98 5 9.96 5 12 5 C11.06409496 6.1055189 10.12620142 7.20935453 9.1875 8.3125 C8.66542969 8.92738281 8.14335937 9.54226562 7.60546875 10.17578125 C6.12827531 11.85424679 4.59960869 13.43882034 3 15 C-0.18673962 13.59698853 -2.32221406 11.92234929 -4.75 9.4375 C-5.36359375 8.81746094 -5.9771875 8.19742188 -6.609375 7.55859375 C-8 6 -8 6 -8 5 C-6.8553125 4.87625 -6.8553125 4.87625 -5.6875 4.75 C-2.47626739 3.85384206 -1.70625501 2.78388975 0 0 Z " fill="#FBDF44" transform="translate(22,30)"/>
<path d="M0 0 C0.66 0 1.32 0 2 0 C2.14695312 0.94359375 2.14695312 0.94359375 2.296875 1.90625 C3.35486424 7.96232635 5.1030111 12.59228739 8 18 C8 18.66 8 19.32 8 20 C7.34 20 6.68 20 6 20 C5.34 19.01 4.68 18.02 4 17 C0.5 16.5 0.5 16.5 -3 17 C-3.66 17.99 -4.32 18.98 -5 20 C-5.66 19.67 -6.32 19.34 -7 19 C-5.02 15.04 -3.04 11.08 -1 7 C-1.66 6.34 -2.32 5.68 -3 5 C-1.625 2.5 -1.625 2.5 0 0 Z " fill="#D4B932" transform="translate(23,13)"/>
<path d="M0 0 C1.31677734 0.00966797 1.31677734 0.00966797 2.66015625 0.01953125 C4.9375 0.1875 4.9375 0.1875 6.9375 1.1875 C6.82262252 2.77159994 6.69515492 4.35478963 6.5625 5.9375 C6.49289063 6.81921875 6.42328125 7.7009375 6.3515625 8.609375 C5.93899945 11.17816382 5.22589043 12.94591015 3.9375 15.1875 C3.6075 15.1875 3.2775 15.1875 2.9375 15.1875 C2.98632812 12.16015625 2.98632812 12.16015625 3.03515625 9.1328125 C3.06399242 7.10564596 3.06399242 7.10564596 1.9375 5.1875 C0.9475 4.8575 -0.0425 4.5275 -1.0625 4.1875 C-1.0625 3.5275 -1.0625 2.8675 -1.0625 2.1875 C-3.0425 2.8475 -5.0225 3.5075 -7.0625 4.1875 C-7.7225 7.4875 -8.3825 10.7875 -9.0625 14.1875 C-9.7225 14.1875 -10.3825 14.1875 -11.0625 14.1875 C-11.35647316 9.18995633 -11.1604156 6.20331652 -8.0625 2.1875 C-4.79122414 0.00664943 -3.78873277 -0.06137859 0 0 Z " fill="#F9DE4C" transform="translate(15.0625,9.8125)"/>
<path d="M0 0 C3 3 3 3 3.07421875 5.04296875 C2.71614583 7.02864583 2.35807292 9.01432292 2 11 C0.95199219 10.98839844 -0.09601562 10.97679687 -1.17578125 10.96484375 C-2.55468572 10.95546345 -3.93359211 10.9463635 -5.3125 10.9375 C-6.00279297 10.92912109 -6.69308594 10.92074219 -7.40429688 10.91210938 C-10.5483025 10.89692094 -12.99420019 10.99806673 -16 12 C-17.21869929 14.50447516 -17.21869929 14.50447516 -18 17 C-18.66 16.34 -19.32 15.68 -20 15 C-17.78071806 12.09197539 -16.07030857 10.04687238 -13 8 C-10.84375 7.76953125 -10.84375 7.76953125 -8.5 7.8125 C-7.7265625 7.81894531 -6.953125 7.82539062 -6.15625 7.83203125 C-4 8 -4 8 -1 9 C-0.67 6.03 -0.34 3.06 0 0 Z " fill="#C0AC36" transform="translate(23,0)"/>
<path d="M0 0 C3.39527689 1.40494216 5.30647023 2.69761694 7 6 C8.10644697 11.45555041 7.20437482 15.31039745 4.25 20 C1.65277778 23.77777778 1.65277778 23.77777778 -1.203125 24.75 C-2.09257813 24.87375 -2.09257813 24.87375 -3 25 C-1.97407374 21.92222122 -1.24530756 21.15549526 1 19 C3.83320671 14.75018994 3.53392409 10.99102956 3 6 C1.67014431 2.4952235 1.67014431 2.4952235 0 0 Z " fill="#F7E573" transform="translate(41,10)"/>
<path d="M0 0 C5.33333333 -0.35555556 5.33333333 -0.35555556 7.875 1 C9.70488947 4.25313684 9.18128355 7.31390109 9 11 C7.35 11.33 5.7 11.66 4 12 C3.67 8.7 3.34 5.4 3 2 C2.01 1.67 1.02 1.34 0 1 C0 0.67 0 0.34 0 0 Z " fill="#F7E169" transform="translate(34,12)"/>
<path d="M0 0 C0.33 0.66 0.66 1.32 1 2 C0.54109375 2.51949219 0.0821875 3.03898437 -0.390625 3.57421875 C-1.00421875 4.27160156 -1.6178125 4.96898437 -2.25 5.6875 C-2.89453125 6.4196875 -3.5390625 7.151875 -4.203125 7.90625 C-5.52853358 9.45063913 -6.78499204 11.05483305 -8 12.6875 C-10.66036672 15.76354902 -13.62855155 17.73075585 -17 20 C-16.42619828 16.33622257 -15.02730342 14.67232775 -12.40234375 12.109375 C-11.68369141 11.40039062 -10.96503906 10.69140625 -10.22460938 9.9609375 C-9.46986328 9.23132812 -8.71511719 8.50171875 -7.9375 7.75 C-7.17888672 7.00492188 -6.42027344 6.25984375 -5.63867188 5.4921875 C-3.76567793 3.65453306 -1.88604389 1.82424276 0 0 Z " fill="#C6AB1C" transform="translate(42,27)"/>
<path d="M0 0 C0.33 0 0.66 0 1 0 C1 1.65 1 3.3 1 5 C2.32 5 3.64 5 5 5 C5.33 4.01 5.66 3.02 6 2 C10 8.75 10 8.75 10 11 C9.34 11 8.68 11 8 11 C7.34 10.01 6.68 9.02 6 8 C2.5 7.5 2.5 7.5 -1 8 C-1.99 9.485 -1.99 9.485 -3 11 C-3.66 10.67 -4.32 10.34 -5 10 C-3.35 6.7 -1.7 3.4 0 0 Z " fill="#F6DA46" transform="translate(21,22)"/>
<path d="M0 0 C1.22589844 0.01353516 1.22589844 0.01353516 2.4765625 0.02734375 C3.41628906 0.04474609 3.41628906 0.04474609 4.375 0.0625 C4.705 0.7225 5.035 1.3825 5.375 2.0625 C2.375 4.0625 2.375 4.0625 -0.6875 5.0625 C-3.70555734 5.84871891 -3.70555734 5.84871891 -5.625 8.0625 C-5.955 5.7525 -6.285 3.4425 -6.625 1.0625 C-4.21954362 -0.14022819 -2.67503047 -0.03821472 0 0 Z " fill="#F9DF53" transform="translate(32.625,9.9375)"/>
<path d="M0 0 C0.66 0.33 1.32 0.66 2 1 C2.37890625 3.328125 2.37890625 3.328125 2.5625 6.25 C2.80559241 9.92119148 3.20618904 13.40488921 4 17 C2 16 2 16 0.875 13.375 C-0.05654649 9.78189212 -0.14783375 6.69584376 0 3 C-0.66 3 -1.32 3 -2 3 C-2.33 4.32 -2.66 5.64 -3 7 C-3 5.02 -3 3.04 -3 1 C-2.01 0.67 -1.02 0.34 0 0 Z " fill="#C1A511" transform="translate(25,10)"/>
<path d="M0 0 C0.33 0 0.66 0 1 0 C1.16435547 0.99580078 1.16435547 0.99580078 1.33203125 2.01171875 C2.22808182 7.00191905 3.18438706 10.70954218 6 15 C5.67 15.66 5.34 16.32 5 17 C0.22562854 11.49110985 -1.28028297 8.56764032 -1 1 C-0.67 0.67 -0.34 0.34 0 0 Z " fill="#B1A336" transform="translate(3,16)"/>
<path d="M0 0 C0.33 0.66 0.66 1.32 1 2 C6.28 2 11.56 2 17 2 C17.33 2.99 17.66 3.98 18 5 C17.071875 4.835 16.14375 4.67 15.1875 4.5 C10.14266379 3.76299718 5.08564289 3.91723185 0 4 C0 2.68 0 1.36 0 0 Z " fill="#F8F1C9" transform="translate(25,5)"/>
<path d="M0 0 C0 0.66 0 1.32 0 2 C-0.61875 2.165 -1.2375 2.33 -1.875 2.5 C-5.27756949 4.90181375 -5.22612026 8.00162134 -6 12 C-6.66 12 -7.32 12 -8 12 C-8.43702768 7.54231767 -8.51445113 5.65349198 -5.6875 2.0625 C-3 0 -3 0 0 0 Z " fill="#C9A619" transform="translate(14,12)"/>
<path d="M0 0 C1.98 0 3.96 0 6 0 C6 0.66 6 1.32 6 2 C5.01 2 4.02 2 3 2 C3.33 2.99 3.66 3.98 4 5 C5.32 5 6.64 5 8 5 C8.33 5.66 8.66 6.32 9 7 C6.69 7 4.38 7 2 7 C1.34 4.69 0.68 2.38 0 0 Z " fill="#FBF9EA" transform="translate(24,0)"/>
<path d="M0 0 C0.33 0 0.66 0 1 0 C1.36258758 5.09636993 1.54014017 8.90042893 -0.75 13.5625 C-2.94390056 15.9392256 -3.82865008 16.77347501 -7 17 C-5.97407374 13.92222122 -5.24530756 13.15549526 -3 11 C-1.06604999 8.09907498 -0.69868059 7.10325263 -0.375 3.8125 C-0.189375 1.9253125 -0.189375 1.9253125 0 0 Z " fill="#ECD75B" transform="translate(45,18)"/>
<path d="M0 0 C0.33 0 0.66 0 1 0 C1.12117187 0.67546875 1.24234375 1.3509375 1.3671875 2.046875 C1.53476562 2.93890625 1.70234375 3.8309375 1.875 4.75 C2.03742188 5.63171875 2.19984375 6.5134375 2.3671875 7.421875 C2.96796264 9.86947744 3.77997117 11.80599857 5 14 C3.68 14.33 2.36 14.66 1 15 C-0.00109515 11.68929162 -0.10356134 8.69915231 -0.0625 5.25 C-0.05347656 4.26515625 -0.04445312 3.2803125 -0.03515625 2.265625 C-0.02355469 1.51796875 -0.01195313 0.7703125 0 0 Z " fill="#FBF7DE" transform="translate(1,17)"/>
<path d="M0 0 C2.375 0.3125 2.375 0.3125 5 1 C7.29013653 4.4352048 7.17842973 5.985331 7 10 C6.34 10 5.68 10 5 10 C5 8.02 5 6.04 5 4 C4.34 4 3.68 4 3 4 C3 3.34 3 2.68 3 2 C2.01 1.67 1.02 1.34 0 1 C0 0.67 0 0.34 0 0 Z " fill="#FEF9B4" transform="translate(34,12)"/>
<path d="M0 0 C1.5625 1.0625 1.5625 1.0625 3 3 C2.6875 6.6875 2.6875 6.6875 2 10 C1.34 10 0.68 10 0 10 C-1.125 3.375 -1.125 3.375 0 0 Z " fill="#C8C17A" transform="translate(23,0)"/>
<path d="M0 0 C0.66 0 1.32 0 2 0 C2 2.31 2 4.62 2 7 C0.35 6.67 -1.3 6.34 -3 6 C-2 4 -1 2 0 0 Z " fill="#E5CA33" transform="translate(23,13)"/>
<path d="M0 0 C0.99 0.33 1.98 0.66 3 1 C2.21625 1.226875 1.4325 1.45375 0.625 1.6875 C-2.21875 2.78125 -2.21875 2.78125 -3.3125 5.625 C-3.539375 6.40875 -3.76625 7.1925 -4 8 C-4.66 7.34 -5.32 6.68 -6 6 C-2.25 1.125 -2.25 1.125 0 0 Z " fill="#B8A83E" transform="translate(9,9)"/>
</svg>
