<?xml version="1.0" encoding="UTF-8"?>
<svg version="1.1" xmlns="http://www.w3.org/2000/svg" width="474" height="474">
<path d="M0 0 C156.42 0 312.84 0 474 0 C474 156.42 474 312.84 474 474 C317.58 474 161.16 474 0 474 C0 317.58 0 161.16 0 0 Z " fill="#FDFDFD" transform="translate(0,0)"/>
<path d="M0 0 C0.73184006 -0.00807175 1.46368011 -0.01614349 2.21769714 -0.02445984 C3.76839874 -0.03825643 5.31913013 -0.04899827 6.86987305 -0.05688477 C8.42400292 -0.06829683 9.97809704 -0.08857334 11.53198242 -0.1184082 C22.79215075 -0.33400026 32.64507447 0.94364708 43.41796875 4.23828125 C44.25078369 4.48989014 45.08359863 4.74149902 45.94165039 5.00073242 C59.07451174 9.23213628 70.86730456 15.66276289 81.4296875 24.57421875 C83.51924484 26.38426283 83.51924484 26.38426283 86.41796875 28.23828125 C86.41796875 28.89828125 86.41796875 29.55828125 86.41796875 30.23828125 C86.99289062 30.48191406 87.5678125 30.72554687 88.16015625 30.9765625 C104.3604821 40.02968577 115.19335158 65.94672641 120.29296875 82.86328125 C125.66652156 101.95765339 126.30646828 122.00665464 121.41796875 141.23828125 C121.25167969 141.89393066 121.08539063 142.54958008 120.9140625 143.22509766 C114.19097096 168.74172008 99.23348168 190.17883508 78.41796875 206.23828125 C77.71414063 206.80546875 77.0103125 207.37265625 76.28515625 207.95703125 C56.74592041 222.80404916 34.20849035 228.40872333 10.13305664 228.47851562 C8.11888218 228.48821665 6.10573346 228.51934802 4.09179688 228.55078125 C-4.55931583 228.58479054 -12.258438 227.56265549 -20.58203125 225.23828125 C-21.67894287 224.94824219 -22.77585449 224.65820312 -23.90600586 224.359375 C-42.14417514 219.42474411 -56.9912846 209.10213221 -70.58203125 196.23828125 C-71.36707031 195.50609375 -72.15210938 194.77390625 -72.9609375 194.01953125 C-78.3050815 188.88336578 -82.61049963 183.4897662 -86.58203125 177.23828125 C-87.18015625 176.29984375 -87.77828125 175.36140625 -88.39453125 174.39453125 C-98.58203125 157.70810884 -98.58203125 157.70810884 -98.58203125 149.23828125 C-94.52730138 148.89401173 -90.62925805 148.75000992 -86.58203125 149.23828125 C-84.24357641 151.45365952 -83.72334281 152.37423526 -82.58203125 155.23828125 C-70.17834857 181.81760128 -49.98539361 199.97387926 -22.57080078 210.54248047 C-17.36628487 212.36335824 -12.01180861 213.36363928 -6.58203125 214.23828125 C-5.5146875 214.43357422 -5.5146875 214.43357422 -4.42578125 214.6328125 C21.50136674 218.75259237 48.98706139 210.36826393 70.06640625 195.3515625 C72.22922346 193.69531876 74.32770062 191.98452609 76.41796875 190.23828125 C77.90296875 189.12453125 77.90296875 189.12453125 79.41796875 187.98828125 C96.97541891 173.10578887 107.33897503 148.49701415 110.1015625 126.09765625 C112.47360483 97.16459676 105.41566244 70.6735863 86.41796875 48.23828125 C71.3913544 30.88780178 52.62556376 20.4593518 30.41796875 15.23828125 C29.08185547 14.89603516 29.08185547 14.89603516 27.71875 14.546875 C3.58662825 9.12945991 -22.88959263 15.23878264 -43.58203125 28.23828125 C-61.80927243 40.2854707 -73.60516527 55.06668927 -83.8046875 74.0703125 C-85.58203125 77.23828125 -85.58203125 77.23828125 -87.58203125 79.23828125 C-90.18359375 79.43359375 -90.18359375 79.43359375 -93.20703125 79.36328125 C-94.20992187 79.34523438 -95.2128125 79.3271875 -96.24609375 79.30859375 C-97.01695312 79.28539062 -97.7878125 79.2621875 -98.58203125 79.23828125 C-95.87076245 60.00521817 -82.94065071 44.40214547 -69.58203125 31.23828125 C-68.71449219 30.37203125 -67.84695312 29.50578125 -66.953125 28.61328125 C-51.70668128 14.14548622 -32.81105298 5.94792045 -12.58203125 1.23828125 C-11.45849243 0.96890747 -11.45849243 0.96890747 -10.31225586 0.6940918 C-6.87240772 0.11980972 -3.47795776 0.03725649 0 0 Z " fill="#070707" transform="translate(244.58203125,122.76171875)"/>
<path d="M0 0 C2.20692786 0.08911585 4.41627968 0.13017265 6.625 0.125 C7.73101562 0.12757813 8.83703125 0.13015625 9.9765625 0.1328125 C12.84057606 0.10948351 12.84057606 0.10948351 14.91821289 -0.48632812 C23.6353187 -2.6372359 31.53838365 0.01743596 39.76000977 2.94287109 C41.6875186 3.62500658 43.62434923 4.27265575 45.56445312 4.91796875 C60.57041077 10.14082154 60.57041077 10.14082154 64 17 C64.17878097 19.88980391 64.27779906 22.73325538 64.3125 25.625 C64.35600586 26.79869141 64.35600586 26.79869141 64.40039062 27.99609375 C64.46254545 33.76214917 63.34389427 38.23193245 60 43 C54.21281845 47.60612409 49.6092473 48.15593006 42.43286133 48.19287109 C41.55769867 48.20104858 40.68253601 48.20922607 39.78085327 48.21765137 C36.88125286 48.24248592 33.9817014 48.25901785 31.08203125 48.2734375 C29.59519113 48.28142302 29.59519113 48.28142302 28.07831383 48.28956985 C22.8301305 48.31629502 17.58197089 48.3356706 12.33374023 48.35009766 C7.99498376 48.36342967 3.6566984 48.3912698 -0.68188477 48.43212891 C-5.92440297 48.48149974 -11.16649425 48.50622445 -16.409235 48.51332474 C-18.40387951 48.52002901 -20.3985148 48.53522955 -22.39302635 48.55921555 C-25.19114835 48.59094159 -27.98763299 48.59089256 -30.78588867 48.58349609 C-31.60333054 48.59990143 -32.4207724 48.61630676 -33.26298523 48.63320923 C-39.20125093 48.569252 -43.49090455 46.93554191 -48 43 C-52.90141105 36.11536711 -52.82415487 28.17446632 -52 20 C-50.88193019 14.63191784 -48.40897414 12.03472854 -44 9 C-40.69189453 7.5144043 -40.69189453 7.5144043 -37.1328125 6.32421875 C-36.49439423 6.10933304 -35.85597595 5.89444733 -35.19821167 5.67304993 C-33.85746678 5.22555843 -32.51448276 4.78472441 -31.16943359 4.3503418 C-29.13084235 3.68939419 -27.1027415 3.00169812 -25.07421875 2.31054688 C-15.96125025 -0.73172664 -9.47290945 -1.65077511 0 0 Z " fill="#020202" transform="translate(248,249)"/>
<path d="M0 0 C0.64324219 0.4125 1.28648437 0.825 1.94921875 1.25 C2.64402344 1.6625 3.33882813 2.075 4.0546875 2.5 C10.83976696 6.98095304 14.35262157 13.25850706 17.32421875 20.6875 C19.22607568 31.52808448 17.30736107 39.89351632 12.19921875 49.5625 C6.02419488 56.93822296 -2.05665355 61.48507281 -11.6015625 62.703125 C-21.8734686 63.1647837 -29.6369115 60.99713702 -37.4296875 54.1640625 C-44.9420863 46.27811901 -47.67108849 39.04842314 -47.52172852 28.20288086 C-47.07432361 18.1214361 -43.31872084 11.10568251 -36.05078125 4.25 C-26.50979778 -3.90131849 -11.28905465 -6.19285284 0 0 Z " fill="#030303" transform="translate(269.05078125,179.75)"/>
<path d="M0 0 C2.2295249 1.77999438 4.10068481 3.46824886 6.0625 5.50390625 C6.61687744 6.06061508 7.17125488 6.61732391 7.74243164 7.19090271 C8.91136014 8.36955102 10.0742641 9.55420103 11.23144531 10.74438477 C12.98228207 12.54428555 14.75075118 14.3251571 16.5234375 16.10351562 C22.14357723 21.78120454 27.43927983 27.41138818 32 34 C31.6189209 34.40613525 31.2378418 34.81227051 30.84521484 35.23071289 C29.68884389 36.46326544 28.5326071 37.69594387 27.37646484 38.92871094 C26.03082274 40.3633184 24.68478754 41.79755724 23.33837891 43.23144531 C19.89971056 46.89603505 16.4697846 50.56791249 13.0625 54.26171875 C12.44197754 54.93259521 11.82145508 55.60347168 11.18212891 56.29467773 C10.00447458 57.56890544 8.8295294 58.84564397 7.65771484 60.12524414 C-0.19019946 68.60272671 -0.19019946 68.60272671 -4.5625 69.5625 C-7 69 -7 69 -9.375 66.8125 C-11 64 -11 64 -10.9609375 61.69921875 C-9.62047923 57.93394777 -7.09947165 55.67307578 -4.25 53 C-3.7240625 52.49210937 -3.198125 51.98421875 -2.65625 51.4609375 C-1.6123745 50.4532359 -0.56489214 49.44925601 0.48632812 48.44921875 C2.69391898 46.33562854 4.84654145 44.1685177 7 42 C7.99 41.01 7.99 41.01 9 40 C-19.05 39.67 -47.1 39.34 -76 39 C-76 34.71 -76 30.42 -76 26 C-48.94 26 -21.88 26 6 26 C1.06029518 20.35462306 -3.63737839 15.44293997 -9.15625 10.4921875 C-11 8 -11 8 -10.88671875 4.81640625 C-10 2 -10 2 -8.3125 0.0625 C-5.0590261 -1.43233936 -3.43693471 -0.96741618 0 0 Z " fill="#060606" transform="translate(181,203)"/>
<path d="M0 0 C0.99 0.33 1.98 0.66 3 1 C1.30753427 5.2208444 -1.68898309 8.17117098 -4.75 11.4375 C-5.26304687 11.99759766 -5.77609375 12.55769531 -6.3046875 13.13476562 C-15.15638561 22.66479738 -15.15638561 22.66479738 -19.75 23.5 C-22 23 -22 23 -24 20 C-22.35 19.67 -20.7 19.34 -19 19 C-18.67 18.01 -18.34 17.02 -18 16 C-16.68 16 -15.36 16 -14 16 C-14.33 15.01 -14.66 14.02 -15 13 C-14.34 13 -13.68 13 -13 13 C-13 12.34 -13 11.68 -13 11 C-12.34 11 -11.68 11 -11 11 C-10.67 10.34 -10.34 9.68 -10 9 C-10 9.66 -10 10.32 -10 11 C-9.34 11 -8.68 11 -8 11 C-7.731875 10.21625 -7.46375 9.4325 -7.1875 8.625 C-6 6 -6 6 -3 4 C-2.01 3.67 -1.02 3.34 0 3 C0 2.01 0 1.02 0 0 Z " fill="#0C0C0C" transform="translate(196,249)"/>
<path d="M0 0 C26.73 0 53.46 0 81 0 C79.35 1.65 77.7 3.3 76 5 C75.505 3.515 75.505 3.515 75 2 C50.25 1.67 25.5 1.34 0 1 C0 0.67 0 0.34 0 0 Z " fill="#EFEFEF" transform="translate(110,242)"/>
<path d="M0 0 C2.475 0.99 2.475 0.99 5 2 C-3.83878505 14.24065421 -3.83878505 14.24065421 -8.3125 15.8125 C-8.869375 15.874375 -9.42625 15.93625 -10 16 C-10.28875 15.38125 -10.5775 14.7625 -10.875 14.125 C-11.93720042 11.86674235 -11.93720042 11.86674235 -14 10 C-10.62182575 9.15545644 -8.32534757 8.89155081 -5 10 C-5.33 9.01 -5.66 8.02 -6 7 C-5.071875 6.6596875 -5.071875 6.6596875 -4.125 6.3125 C-1.38589791 4.62070165 -0.94975528 3.00755839 0 0 Z " fill="#0F0F0F" transform="translate(339,306)"/>
<path d="M0 0 C0.66 0.66 1.32 1.32 2 2 C1.01 2.495 1.01 2.495 0 3 C-0.33 3.99 -0.66 4.98 -1 6 C-0.01 6.33 0.98 6.66 2 7 C2 8.32 2 9.64 2 11 C-0.5 12.75 -0.5 12.75 -3 14 C-3.99 13.34 -4.98 12.68 -6 12 C-6.33 12.66 -6.66 13.32 -7 14 C-7.99 13.01 -8.98 12.02 -10 11 C-8.89718873 9.72799029 -7.79269231 8.45744147 -6.6875 7.1875 C-6.07261719 6.47980469 -5.45773438 5.77210938 -4.82421875 5.04296875 C-3.26665665 3.29863261 -1.67341125 1.63221959 0 0 Z " fill="#EBEBEB" transform="translate(202,248)"/>
<path d="M0 0 C0.99 0.33 1.98 0.66 3 1 C2.38125 1.5775 1.7625 2.155 1.125 2.75 C-0.81347053 4.80249821 -1.90014249 6.43366582 -3 9 C-3.99 9 -4.98 9 -6 9 C-6.33 9.99 -6.66 10.98 -7 12 C-8.66666667 12.66666667 -10.33333333 13.33333333 -12 14 C-12.33 14.99 -12.66 15.98 -13 17 C-13.66 17 -14.32 17 -15 17 C-13.49770909 13.17598678 -11.1988409 11.4791017 -8 9 C-7.34 8.01 -6.68 7.02 -6 6 C-5.34 6 -4.68 6 -4 6 C-3.566875 5.071875 -3.566875 5.071875 -3.125 4.125 C-2 2 -2 2 0 0 Z " fill="#E9E9E9" transform="translate(342,310)"/>
<path d="M0 0 C0.66 0.33 1.32 0.66 2 1 C1.34 1.66 0.68 2.32 0 3 C-0.39764263 4.98821313 -0.73775349 6.98944339 -1 9 C-1.66 9 -2.32 9 -3 9 C-3.33 9.66 -3.66 10.32 -4 11 C-5.32 11 -6.64 11 -8 11 C-8.66 10.34 -9.32 9.68 -10 9 C-6.7 6.03 -3.4 3.06 0 0 Z " fill="#040404" transform="translate(338,297)"/>
<path d="M0 0 C1.65 0 3.3 0 5 0 C5.33 0.99 5.66 1.98 6 3 C1.76038904 6.87621574 1.76038904 6.87621574 -1.6875 7.4375 C-2.8321875 7.2209375 -2.8321875 7.2209375 -4 7 C-4.66 6.01 -5.32 5.02 -6 4 C-4.35 3.67 -2.7 3.34 -1 3 C-0.67 2.01 -0.34 1.02 0 0 Z " fill="#151515" transform="translate(178,265)"/>
<path d="M0 0 C0.66 0.33 1.32 0.66 2 1 C1.34 1.66 0.68 2.32 0 3 C0.66 3.66 1.32 4.32 2 5 C1.14728516 4.9690625 1.14728516 4.9690625 0.27734375 4.9375 C-3.60353898 5.04116298 -6.10349568 5.20590535 -9.0859375 7.84765625 C-10.29474762 9.29363797 -11.46541505 10.77262687 -12.58984375 12.28515625 C-13.28787109 13.13400391 -13.28787109 13.13400391 -14 14 C-14.66 14 -15.32 14 -16 14 C-13.41351318 7.99565559 -8.12500665 4.2592632 -2.625 1 C-1.75875 0.67 -0.8925 0.34 0 0 Z " fill="#1C1C1C" transform="translate(243,178)"/>
<path d="M0 0 C1 3 1 3 0.3125 5.5 C-1.12928019 8.24624799 -2.35244403 9.42801364 -5 11 C-5.66 11 -6.32 11 -7 11 C-7 10.34 -7 9.68 -7 9 C-7.66 8.67 -8.32 8.34 -9 8 C-8.34 7.67 -7.68 7.34 -7 7 C-7.33 6.34 -7.66 5.68 -8 5 C-7.05125 4.731875 -6.1025 4.46375 -5.125 4.1875 C-1.74732727 3.25013412 -1.74732727 3.25013412 0 0 Z " fill="#E5E5E5" transform="translate(160,197)"/>
<path d="M0 0 C0.33 0.99 0.66 1.98 1 3 C0.34 3 -0.32 3 -1 3 C-0.34 4.65 0.32 6.3 1 8 C0.01 8.495 0.01 8.495 -1 9 C-3.125 8.0625 -3.125 8.0625 -5 7 C-4.67 7.99 -4.34 8.98 -4 10 C-5.65 10.33 -7.3 10.66 -9 11 C-7.59155282 7.78475695 -5.89655214 5.67816132 -3.375 3.25 C-2.74335938 2.63640625 -2.11171875 2.0228125 -1.4609375 1.390625 C-0.73777344 0.70226562 -0.73777344 0.70226562 0 0 Z " fill="#EEEEEE" transform="translate(191,260)"/>
<path d="M0 0 C3.3 0.99 6.6 1.98 10 3 C9.67 3.99 9.34 4.98 9 6 C5.86559131 7.0448029 4.97903963 7.15317663 2 6 C0 3 0 3 0 0 Z " fill="#0E0E0E" transform="translate(274,248)"/>
<path d="M0 0 C5 1 5 1 7 2 C7 4.64 7 7.28 7 10 C6.01 10.495 6.01 10.495 5 11 C3.35 7.37 1.7 3.74 0 0 Z " fill="#E8E8E8" transform="translate(280,189)"/>
<path d="M0 0 C3.465 1.98 3.465 1.98 7 4 C6.01 4.99 5.02 5.98 4 7 C3.67 6.34 3.34 5.68 3 5 C1.02 5.99 -0.96 6.98 -3 8 C-3.33 7.34 -3.66 6.68 -4 6 C-3.34 5.01 -2.68 4.02 -2 3 C-1.34 3 -0.68 3 0 3 C0 2.01 0 1.02 0 0 Z " fill="#111111" transform="translate(196,320)"/>
<path d="M0 0 C0.33 0.66 0.66 1.32 1 2 C-0.98 4.64 -2.96 7.28 -5 10 C-5.99 9.01 -6.98 8.02 -8 7 C-3.375 1.125 -3.375 1.125 0 0 Z " fill="#111111" transform="translate(178,167)"/>
<path d="M0 0 C1.32 0.66 2.64 1.32 4 2 C3.29445932 5.66881155 1.72264494 8.70450534 0 12 C-0.33 12 -0.66 12 -1 12 C-1.02687279 10.18757948 -1.04633715 8.37504767 -1.0625 6.5625 C-1.07410156 5.55316406 -1.08570313 4.54382813 -1.09765625 3.50390625 C-1 1 -1 1 0 0 Z " fill="#EEEEEE" transform="translate(155,169)"/>
<path d="M0 0 C0.99 0.33 1.98 0.66 3 1 C2.67 2.65 2.34 4.3 2 6 C0.02 6.66 -1.96 7.32 -4 8 C-2.66666667 5.33333333 -1.33333333 2.66666667 0 0 Z M-6 8 C-5.34 8.33 -4.68 8.66 -4 9 C-5.98 9.99 -5.98 9.99 -8 11 C-7.34 10.01 -6.68 9.02 -6 8 Z " fill="#E4E4E4" transform="translate(283,224)"/>
<path d="M0 0 C0.66 0.66 1.32 1.32 2 2 C1.67 2.598125 1.34 3.19625 1 3.8125 C-0.20787988 6.05386471 -0.20787988 6.05386471 0 9 C-0.99 9.66 -1.98 10.32 -3 11 C-3.33 10.01 -3.66 9.02 -4 8 C-4.66 8 -5.32 8 -6 8 C-4.768606 4.30581799 -2.79208646 2.64890254 0 0 Z " fill="#131313" transform="translate(189,151)"/>
<path d="M0 0 C0.99 0.33 1.98 0.66 3 1 C2.38125 1.5775 1.7625 2.155 1.125 2.75 C-0.81347053 4.80249821 -1.90014249 6.43366582 -3 9 C-4.32 8.34 -5.64 7.68 -7 7 C-6.01 6.67 -5.02 6.34 -4 6 C-2.90833725 4.06669397 -2.90833725 4.06669397 -2 2 C-1.34 1.34 -0.68 0.68 0 0 Z " fill="#D7D7D7" transform="translate(342,310)"/>
<path d="M0 0 C1.09570312 0.00902344 2.19140625 0.01804688 3.3203125 0.02734375 C4.16335938 0.03894531 5.00640625 0.05054688 5.875 0.0625 C5.875 0.3925 5.875 0.7225 5.875 1.0625 C3.235 1.0625 0.595 1.0625 -2.125 1.0625 C-2.125 1.7225 -2.125 2.3825 -2.125 3.0625 C-4.105 3.3925 -6.085 3.7225 -8.125 4.0625 C-8.125 3.0725 -8.125 2.0825 -8.125 1.0625 C-5.36047967 -0.31976016 -3.0788637 -0.03275387 0 0 Z " fill="#E3E3E3" transform="translate(252.125,241.9375)"/>
<path d="M0 0 C0.33 0.99 0.66 1.98 1 3 C1.33 2.01 1.66 1.02 2 0 C2.66 0 3.32 0 4 0 C4.66 1.65 5.32 3.3 6 5 C3 6 3 6 0.8125 5.0625 C0.214375 4.711875 -0.38375 4.36125 -1 4 C-0.67 2.68 -0.34 1.36 0 0 Z " fill="#020202" transform="translate(173,263)"/>
<path d="M0 0 C2 3.75 2 3.75 2 6 C1.34 6 0.68 6 0 6 C-0.33 6.66 -0.66 7.32 -1 8 C-1.99 7.01 -2.98 6.02 -4 5 C-2.68 3.35 -1.36 1.7 0 0 Z " fill="#E1E1E1" transform="translate(196,254)"/>
<path d="M0 0 C2.3125 0.1875 2.3125 0.1875 4 1 C3.67 1.99 3.34 2.98 3 4 C1.35 4 -0.3 4 -2 4 C-2 4.66 -2 5.32 -2 6 C-2.99 5.67 -3.98 5.34 -5 5 C-2.75 2.4375 -2.75 2.4375 0 0 Z " fill="#121212" transform="translate(171,158)"/>
<path d="M0 0 C0.33 0.66 0.66 1.32 1 2 C0.34 1.67 -0.32 1.34 -1 1 C-0.67 0.67 -0.34 0.34 0 0 Z M-1 2 C-1.33 3.65 -1.66 5.3 -2 7 C-3.32 7.33 -4.64 7.66 -6 8 C-6.33 7.01 -6.66 6.02 -7 5 C-3.25 2 -3.25 2 -1 2 Z " fill="#E9E9E9" transform="translate(201,150)"/>
<path d="M0 0 C0.66 0.66 1.32 1.32 2 2 C-3.29230769 6.92307692 -3.29230769 6.92307692 -6.875 7.3125 C-7.926875 7.1578125 -7.926875 7.1578125 -9 7 C-6.03716687 4.61327331 -3.05729491 2.2646629 0 0 Z " fill="#181818" transform="translate(316,317)"/>
<path d="M0 0 C1.98 0.495 1.98 0.495 4 1 C4 2.32 4 3.64 4 5 C3.01 4.67 2.02 4.34 1 4 C0.67 4.66 0.34 5.32 0 6 C-1.125 2.25 -1.125 2.25 0 0 Z " fill="#1A1A1A" transform="translate(155,272)"/>
<path d="M0 0 C3.16115776 1.36983503 3.9927092 1.9890638 6 5 C5.01 5.33 4.02 5.66 3 6 C0.3125 4.0625 0.3125 4.0625 -2 2 C-1.34 1.34 -0.68 0.68 0 0 Z " fill="#191919" transform="translate(306,146)"/>
<path d="M0 0 C0.66 0.33 1.32 0.66 2 1 C-0.05233685 3.2477975 -1.00667261 4.0022242 -4 5 C-4.66 5.66 -5.32 6.32 -6 7 C-6 6.34 -6 5.68 -6 5 C-6.66 4.67 -7.32 4.34 -8 4 C-6.71349294 3.30289269 -5.42059335 2.61757124 -4.125 1.9375 C-3.40570313 1.55464844 -2.68640625 1.17179687 -1.9453125 0.77734375 C-1.30335938 0.52082031 -0.66140625 0.26429688 0 0 Z " fill="#DEDEDE" transform="translate(311,336)"/>
<path d="M0 0 C0.99 0.33 1.98 0.66 3 1 C1.515 3.475 1.515 3.475 0 6 C-1.32 5.34 -2.64 4.68 -4 4 C-2.68 2.68 -1.36 1.36 0 0 Z " fill="#222222" transform="translate(332,302)"/>
<path d="M0 0 C0.99 0 1.98 0 3 0 C2.67 1.65 2.34 3.3 2 5 C0.68 4.67 -0.64 4.34 -2 4 C-1.34 2.68 -0.68 1.36 0 0 Z " fill="#1A1A1A" transform="translate(185,247)"/>
<path d="M0 0 C2.31 0 4.62 0 7 0 C5.35 1.65 3.7 3.3 2 5 C1.34 3.35 0.68 1.7 0 0 Z " fill="#DDDDDD" transform="translate(184,242)"/>
<path d="M0 0 C4.03384128 2.07143201 5.92856799 3.96615872 8 8 C4.63820226 6.55922954 2.40843732 4.75249979 0 2 C0 1.34 0 0.68 0 0 Z " fill="#232323" transform="translate(273,183)"/>
<path d="M0 0 C0.66 0.33 1.32 0.66 2 1 C1.01 2.485 1.01 2.485 0 4 C0.99 4.33 1.98 4.66 3 5 C2.01 5.495 2.01 5.495 1 6 C-1.625 5.0625 -1.625 5.0625 -4 4 C-2.68 2.68 -1.36 1.36 0 0 Z " fill="#D7D7D7" transform="translate(223,329)"/>
<path d="M0 0 C-0.33 0.99 -0.66 1.98 -1 3 C-2.65 2.67 -4.3 2.34 -6 2 C-6 1.34 -6 0.68 -6 0 C-3.50907189 -1.24546405 -2.58919267 -0.7767578 0 0 Z " fill="#131313" transform="translate(327,324)"/>
<path d="M0 0 C0.66 0.33 1.32 0.66 2 1 C1.43628586 4.26954202 0.50037734 5.82575883 -2 8 C-2.66 7.67 -3.32 7.34 -4 7 C-2.68 4.69 -1.36 2.38 0 0 Z " fill="#E0E0E0" transform="translate(356,289)"/>
</svg>
