<svg width="0" height="0" class="hidden">
  <symbol version="1.1" xmlns="http://www.w3.org/2000/svg" viewBox="0 0 48 48" id="img1">
    <path d="M0 0 C15.84 0 31.68 0 48 0 C48 15.84 48 31.68 48 48 C32.16 48 16.32 48 0 48 C0 32.16 0 16.32 0 0 Z " fill="#F6DA45" transform="translate(0,0)"></path>
    <path d="M0 0 C6.6 0 13.2 0 20 0 C20 0.66 20 1.32 20 2 C19.39671875 2.30292969 18.7934375 2.60585938 18.171875 2.91796875 C11.4735871 6.42916805 7.50616796 9.67183799 5 17 C4.12580091 24.3697016 4.47614501 30.91923388 9 37 C13.97380455 41.8462711 18.63622189 43.28207373 25.5 43.25 C26.6034375 43.25515625 27.706875 43.2603125 28.84375 43.265625 C31.96392334 43.00303615 34.18304814 42.32438782 37 41 C36.67 41.99 36.34 42.98 36 44 C35.34 44 34.68 44 34 44 C34 44.99 34 45.98 34 47 C29.99679847 47.95377184 26.27788253 48.1157616 22.16796875 48.09765625 C21.00289795 48.09515869 19.83782715 48.09266113 18.63745117 48.09008789 C16.43472534 48.07643188 16.43472534 48.07643188 14.1875 48.0625 C9.505625 48.041875 4.82375 48.02125 0 48 C0 32.16 0 16.32 0 0 Z " fill="#C4AA18" transform="translate(0,0)"></path>
    <path d="M0 0 C3.3 0 6.6 0 10 0 C10.02685938 2.14576637 10.04633088 4.29162645 10.0625 6.4375 C10.07410156 7.63246094 10.08570313 8.82742188 10.09765625 10.05859375 C10 13 10 13 9 14 C8.2821783 19.17341774 8.2821783 19.17341774 10.19042969 23.82666016 C11.84345041 25.59440317 13.56085081 27.21076701 15.375 28.8125 C16.57204916 29.92130515 17.76742888 31.03191599 18.9609375 32.14453125 C19.49509277 32.62253174 20.02924805 33.10053223 20.57958984 33.59301758 C23.11507684 36.10453555 23.98449344 37.60458262 24.125 41.1875 C24.08375 42.115625 24.0425 43.04375 24 44 C22.68 43.67 21.36 43.34 20 43 C20.33 42.34 20.66 41.68 21 41 C21.66 41.33 22.32 41.66 23 42 C20.25727687 36.62004309 17.72154999 33.71696488 13 30 C11.99426222 28.67098936 10.99204592 27.33926199 10 26 C9.34 26 8.68 26 8 26 C9.3089572 29.12197478 9.3089572 29.12197478 12 31 C11.67 31.66 11.34 32.32 11 33 C9.50870692 31.95458849 8.03230598 30.88791186 6.5625 29.8125 C5.73878906 29.22082031 4.91507813 28.62914063 4.06640625 28.01953125 C1.62310414 25.63165376 1.28885427 24.35596146 1 21 C1 18.66666667 1 16.33333333 1 14 C0.67 13.67 0.34 13.34 0 13 C-0.07258946 10.81360547 -0.08373783 8.62499611 -0.0625 6.4375 C-0.05347656 5.23996094 -0.04445313 4.04242188 -0.03515625 2.80859375 C-0.02355469 1.88175781 -0.01195313 0.95492187 0 0 Z " fill="#C0A621" transform="translate(20,0)"></path>
    <path d="M0 0 C5.94 0 11.88 0 18 0 C18 5.61 18 11.22 18 17 C15.54373427 13.72497903 13.25111712 10.41548804 11 7 C11 8.80918907 12.50708476 10.23949861 13.5 11.6875 C15.79480366 15.2751508 16.54169918 17.66640659 16 22 C15.34 22 14.68 22 14 22 C13.84144531 21.40832031 13.68289062 20.81664063 13.51953125 20.20703125 C11.92303445 14.80011114 10.39079478 11.58196416 6 8 C5.67 8 5.34 8 5 8 C5 10.64 5 13.28 5 16 C4.01 16.33 3.02 16.66 2 17 C2 17.99 2 18.98 2 20 C1 22.1875 1 22.1875 0 24 C-2 22 -2 22 -2.23046875 20.08984375 C-2.11111111 14.11111111 -2.11111111 14.11111111 -1 13 C-0.76518307 10.81707226 -0.58636677 8.62796826 -0.4375 6.4375 C-0.293125 4.313125 -0.14875 2.18875 0 0 Z " fill="#F9DE44" transform="translate(30,0)"></path>
    <path d="M0 0 C6.6 0 13.2 0 20 0 C20 0.66 20 1.32 20 2 C18.4840625 2.309375 18.4840625 2.309375 16.9375 2.625 C10.29110867 4.57192271 6.37094549 8.95707637 3.0625 14.875 C2.36059356 16.24270194 1.66773589 17.61529424 1 19 C0.67 19 0.34 19 0 19 C0 12.73 0 6.46 0 0 Z " fill="#FCFBEF" transform="translate(0,0)"></path>
    <path d="M0 0 C1 3 1 3 1 5 C-0.175625 5.12375 -0.175625 5.12375 -1.375 5.25 C-4.14044802 5.71525923 -4.14044802 5.71525923 -5.1875 8 C-5.455625 8.66 -5.72375 9.32 -6 10 C-6.99 10.495 -6.99 10.495 -8 11 C-8 15.95 -8 20.9 -8 26 C-7.34 26 -6.68 26 -6 26 C-5.525625 26.804375 -5.05125 27.60875 -4.5625 28.4375 C-3.20016328 31.2918076 -3.20016328 31.2918076 0 32 C0 32.66 0 33.32 0 34 C1.98 34.33 3.96 34.66 6 35 C6.33 34.34 6.66 33.68 7 33 C7.66 33 8.32 33 9 33 C9 33.66 9 34.32 9 35 C11.64 34.34 14.28 33.68 17 33 C17.33 33.66 17.66 34.32 18 35 C12.61002274 37.41820601 7.83717696 37.79300583 2 37 C-3.67531919 34.80340636 -7.09191934 31.35086841 -10 26 C-11.90195321 20.29414036 -11.90252212 14.22853262 -9.4375 8.6875 C-7.10718158 4.54003798 -4.00633171 2.4654349 0 0 Z " fill="#C9AA18" transform="translate(17,5)"></path>
    <path d="M0 0 C2.44222099 3.05277623 4.23645999 5.35793014 6.125 8.5625 C9.26855001 13.10428519 13.90173253 14.40617269 19 16 C19 16.33 19 16.66 19 17 C12.73 17 6.46 17 0 17 C0 11.39 0 5.78 0 0 Z " fill="#FCFDFB" transform="translate(0,31)"></path>
    <path d="M0 0 C0.33 0 0.66 0 1 0 C1 6.6 1 13.2 1 20 C-5.27 20 -11.54 20 -18 20 C-18 19.67 -18 19.34 -18 19 C-16.35 19 -14.7 19 -13 19 C-13 18.01 -13 17.02 -13 16 C-7.58461538 13.78461538 -7.58461538 13.78461538 -4.625 14.875 C-4.08875 15.24625 -3.5525 15.6175 -3 16 C-3.33 13.36 -3.66 10.72 -4 8 C-3.34 8 -2.68 8 -2 8 C-1.855625 7.236875 -1.71125 6.47375 -1.5625 5.6875 C-1 3 -1 3 0 0 Z " fill="#FDFAE8" transform="translate(47,28)"></path>
    <path d="M0 0 C1.27945847 2.55891695 0.92800285 4.15195443 0.75 7 C0.7169158 13.31081175 2.28156451 17.89941224 6 23 C12.1288395 28.97106739 16.80112635 30.14073031 25.25 30.0625 C26.51328125 30.05347656 27.7765625 30.04445313 29.078125 30.03515625 C30.52445313 30.01775391 30.52445313 30.01775391 32 30 C32 30.66 32 31.32 32 32 C24.38517026 34.03062126 16.64226963 33.7585887 9.40234375 30.61328125 C4.24932479 27.1527986 0.74777704 21.49555408 -2 16 C-2.12257461 14.04450744 -2.17552388 12.08429382 -2.1875 10.125 C-2.20167969 9.07570313 -2.21585937 8.02640625 -2.23046875 6.9453125 C-2.00504937 4.06452929 -1.48964317 2.43759792 0 0 Z " fill="#F6E15A" transform="translate(2,15)"></path>
    <path d="M0 0 C0.33 0 0.66 0 1 0 C1.02578125 0.69867188 1.0515625 1.39734375 1.078125 2.1171875 C1.13484375 3.02726563 1.1915625 3.93734375 1.25 4.875 C1.29640625 5.77992188 1.3428125 6.68484375 1.390625 7.6171875 C1.75611148 10.17110544 1.75611148 10.17110544 4.046875 11.3203125 C4.69140625 11.54460938 5.3359375 11.76890625 6 12 C5.01 12.495 5.01 12.495 4 13 C3.53248212 15.35599235 3.53248212 15.35599235 3.375 18.0625 C3.30023437 18.98160156 3.22546875 19.90070312 3.1484375 20.84765625 C3.09945313 21.55792969 3.05046875 22.26820312 3 23 C4.32 23 5.64 23 7 23 C7 19.7 7 16.4 7 13 C7.33 13 7.66 13 8 13 C8.03222656 14.01578125 8.06445312 15.0315625 8.09765625 16.078125 C8.80698944 21.02974438 11.87051958 23.50729053 15.4375 26.75 C16.62560647 27.86776647 17.81187847 28.98748684 18.99609375 30.109375 C19.52388428 30.59374023 20.0516748 31.07810547 20.59545898 31.57714844 C23.09991073 34.11424991 23.98443764 35.60315971 24.125 39.1875 C24.08375 40.115625 24.0425 41.04375 24 42 C22.68 41.67 21.36 41.34 20 41 C20.33 40.34 20.66 39.68 21 39 C21.66 39.33 22.32 39.66 23 40 C20.25727687 34.62004309 17.72154999 31.71696488 13 28 C11.99426222 26.67098936 10.99204592 25.33926199 10 24 C9.34 24 8.68 24 8 24 C9.3089572 27.12197478 9.3089572 27.12197478 12 29 C11.67 29.66 11.34 30.32 11 31 C9.50870692 29.95458849 8.03230598 28.88791186 6.5625 27.8125 C5.73878906 27.22082031 4.91507813 26.62914063 4.06640625 26.01953125 C1.62310414 23.63165376 1.28885427 22.35596146 1 19 C1 16.66666667 1 14.33333333 1 12 C0.67 11.67 0.34 11.34 0 11 C-0.07226502 9.14712498 -0.0838122 7.29166122 -0.0625 5.4375 C-0.05347656 4.42558594 -0.04445313 3.41367188 -0.03515625 2.37109375 C-0.02355469 1.58863281 -0.01195313 0.80617187 0 0 Z " fill="#BDA218" transform="translate(20,2)"></path>
    <path d="M0 0 C5.94 0 11.88 0 18 0 C18 5.61 18 11.22 18 17 C15 13 15 13 13.25 10.0625 C9.67365925 5.19470287 5.35230805 2.67615403 0 0 Z " fill="#FCFAEC" transform="translate(30,0)"></path>
    <path d="M0 0 C1.9375 0.8125 1.9375 0.8125 4 2 C4.33 2.99 4.66 3.98 5 5 C6.32089969 5.69097484 7.65605051 6.35500234 9 7 C10.703125 8.62109375 10.703125 8.62109375 12.25 10.4375 C12.77078125 11.03433594 13.2915625 11.63117187 13.828125 12.24609375 C15 14 15 14 15 17 C10.8275894 16.48118887 8.74583179 15.28848726 5.6875 12.4375 C4.99011719 11.79683594 4.29273438 11.15617187 3.57421875 10.49609375 C3.05472656 10.00238281 2.53523438 9.50867187 2 9 C2.33 8.34 2.66 7.68 3 7 C2.67 6.67 2.34 6.34 2 6 C1 5 0 4 -1 3 C-0.67 2.01 -0.34 1.02 0 0 Z " fill="#C8AE18" transform="translate(28,25)"></path>
    <path d="M0 0 C2.64 0 5.28 0 8 0 C8.02688151 1.64574566 8.04634123 3.29161413 8.0625 4.9375 C8.07410156 5.85402344 8.08570313 6.77054688 8.09765625 7.71484375 C8 10 8 10 7 11 C4 11.125 4 11.125 1 11 C0 10 0 10 -0.09765625 7.71484375 C-0.08605469 6.79832031 -0.07445313 5.88179688 -0.0625 4.9375 C-0.05347656 4.01839844 -0.04445313 3.09929688 -0.03515625 2.15234375 C-0.02355469 1.44207031 -0.01195313 0.73179687 0 0 Z " fill="#F1D644" transform="translate(21,2)"></path>
    <path d="M0 0 C4.91511449 0.42129553 6.84412512 2.30531722 10 6 C15.84420081 13.51990767 15.84420081 13.51990767 16.375 18.5625 C16.25125 19.366875 16.1275 20.17125 16 21 C15.34 21 14.68 21 14 21 C13.84144531 20.40832031 13.68289062 19.81664063 13.51953125 19.20703125 C11.93063726 13.8258599 10.26909551 10.81971703 6 7 C5.67 6.01 5.34 5.02 5 4 C2.49552484 2.78130071 2.49552484 2.78130071 0 2 C0 1.34 0 0.68 0 0 Z " fill="#EADD92" transform="translate(30,1)"></path>
    <path d="M0 0 C3.91025991 0.57929776 6.16056336 2.3061755 9 5 C12.68012492 10.20293523 12.71669548 15.83828046 12 22 C10.98046875 24.3359375 10.98046875 24.3359375 10 26 C8.90341064 22.71023192 9.20046862 21.28696233 10 18 C9.34 18 8.68 18 8 18 C8 17.34 8 16.68 8 16 C8.66 16 9.32 16 10 16 C9.67 13.69 9.34 11.38 9 9 C8.34 9 7.68 9 7 9 C6.525625 8.195625 6.05125 7.39125 5.5625 6.5625 C4.20016328 3.7081924 4.20016328 3.7081924 1 3 C0.67 2.01 0.34 1.02 0 0 Z " fill="#C6AA19" transform="translate(32,6)"></path>
    <path d="M0 0 C0.70382812 0.2165625 1.40765625 0.433125 2.1328125 0.65625 C10.21979278 2.93665175 17.62667361 3.33443759 26 3 C26 3.66 26 4.32 26 5 C17.20364334 7.34569511 8.96811922 6.41063569 1 2 C0.67 1.34 0.34 0.68 0 0 Z " fill="#F8E369" transform="translate(8,42)"></path>
    <path d="M0 0 C1.19882812 0.15275391 1.19882812 0.15275391 2.421875 0.30859375 C3.02515625 0.39238281 3.6284375 0.47617187 4.25 0.5625 C4.58 1.5525 4.91 2.5425 5.25 3.5625 C-1.02 3.5625 -7.29 3.5625 -13.75 3.5625 C-13.75 3.2325 -13.75 2.9025 -13.75 2.5625 C-12.1 2.5625 -10.45 2.5625 -8.75 2.5625 C-8.75 1.9025 -8.75 1.2425 -8.75 0.5625 C-5.62819599 -0.40411363 -3.22916205 -0.42738909 0 0 Z " fill="#FDFCF7" transform="translate(42.75,44.4375)"></path>
    <path d="M0 0 C6.92307692 5.53846154 6.92307692 5.53846154 9 9 C9 9.99 9 10.98 9 12 C7.68 11.34 6.36 10.68 5 10 C5 9.34 5 8.68 5 8 C4.38125 7.773125 3.7625 7.54625 3.125 7.3125 C0.38589791 5.62070165 -0.05024472 4.00755839 -1 1 C-0.67 0.67 -0.34 0.34 0 0 Z " fill="#F4DB56" transform="translate(34,30)"></path>
    <path d="M0 0 C0.8971875 0.309375 0.8971875 0.309375 1.8125 0.625 C1.28140625 0.90472656 0.7503125 1.18445313 0.203125 1.47265625 C-5.17702279 4.5259883 -7.47368226 7.09298691 -10.1875 12.625 C-10.8475 13.285 -11.5075 13.945 -12.1875 14.625 C-12.921875 12.9140625 -12.921875 12.9140625 -13.1875 10.625 C-11.640625 8.3359375 -11.640625 8.3359375 -9.4375 6 C-8.72078125 5.22398437 -8.0040625 4.44796875 -7.265625 3.6484375 C-2.99183355 -0.51288575 -2.99183355 -0.51288575 0 0 Z " fill="#C0AE37" transform="translate(16.1875,2.375)"></path>
    <path d="M0 0 C0.99 0 1.98 0 3 0 C3.33 3.3 3.66 6.6 4 10 C2.68 10 1.36 10 0 10 C0 6.7 0 3.4 0 0 Z " fill="#EBCE39" transform="translate(23,15)"></path>
    <path d="M0 0 C2.475 0.99 2.475 0.99 5 2 C4.34 2.66 3.68 3.32 3 4 C3.66 4.33 4.32 4.66 5 5 C4.67 6.32 4.34 7.64 4 9 C2.68 9 1.36 9 0 9 C0 6.03 0 3.06 0 0 Z " fill="#F0D341" transform="translate(30,3)"></path>
    <path d="M0 0 C0.99 0.33 1.98 0.66 3 1 C2.71640113 2.4391134 2.42278601 3.87625518 2.125 5.3125 C1.88136719 6.51326172 1.88136719 6.51326172 1.6328125 7.73828125 C1 10 1 10 -1 13 C-0.34 13.33 0.32 13.66 1 14 C0.01 14.33 -0.98 14.66 -2 15 C-1.47462276 9.9697924 -0.89405214 4.98114761 0 0 Z " fill="#F4DD4F" transform="translate(44,22)"></path>
    <path d="M0 0 C0.33 0 0.66 0 1 0 C1 3.3 1 6.6 1 10 C0.01 9.67 -0.98 9.34 -2 9 C-2 10.98 -2 12.96 -2 15 C-2.33 15 -2.66 15 -3 15 C-3.33 12.69 -3.66 10.38 -4 8 C-3.34 8 -2.68 8 -2 8 C-1.855625 7.236875 -1.71125 6.47375 -1.5625 5.6875 C-1 3 -1 3 0 0 Z " fill="#F7F3D5" transform="translate(47,28)"></path>
    <path d="M0 0 C0.99 0.8971875 0.99 0.8971875 2 1.8125 C5.58183997 4.42425831 8.81377726 5.58094144 13 7 C13 7.33 13 7.66 13 8 C9.92576817 8.35471906 7.05991472 8.52666346 4 8 C0 3.51219512 0 3.51219512 0 0 Z " fill="#FEF8CE" transform="translate(6,40)"></path>
    <path d="M0 0 C2.40072955 2.88087546 4.47291037 5.56404834 6 9 C4.02 8.34 2.04 7.68 0 7 C0 4.69 0 2.38 0 0 Z " fill="#FEF8D0" transform="translate(0,31)"></path>
    <path d="M0 0 C1.32 0.66 2.64 1.32 4 2 C4 2.99 4 3.98 4 5 C2.68 4.67 1.36 4.34 0 4 C0 2.68 0 1.36 0 0 Z " fill="#F2D743" transform="translate(28,25)"></path>
    <path d="M0 0 C0.99 0 1.98 0 3 0 C4.35439668 2.70879335 4.06501451 5.00933268 4 8 C3.34 8 2.68 8 2 8 C1.34 5.36 0.68 2.72 0 0 Z " fill="#F9E67C" transform="translate(42,14)"></path>
    <path d="M0 0 C2.29633824 3.44450737 2.54016485 5.93812283 3 10 C1.5 8.9375 1.5 8.9375 0 7 C-0.1875 3.3125 -0.1875 3.3125 0 0 Z " fill="#F0DC50" transform="translate(2,28)"></path>
    <path d="M0 0 C0.99 0.33 1.98 0.66 3 1 C1.68 2.32 0.36 3.64 -1 5 C-1.99 4.67 -2.98 4.34 -4 4 C-2.68 2.68 -1.36 1.36 0 0 Z " fill="#F1D63F" transform="translate(12,5)"></path>
  </symbol>
  <symbol version="1.1" xmlns="http://www.w3.org/2000/svg" viewBox="0 0 48 48" id="img2">
    <path d="M0 0 C15.84 0 31.68 0 48 0 C48 15.84 48 31.68 48 48 C32.16 48 16.32 48 0 48 C0 32.16 0 16.32 0 0 Z " fill="#BEA523" transform="translate(0,0)"></path>
    <path d="M0 0 C15.84 0 31.68 0 48 0 C48 15.84 48 31.68 48 48 C32.16 48 16.32 48 0 48 C0 32.16 0 16.32 0 0 Z M16.3046875 2.23046875 C14.78617111 3.93236874 14.78617111 3.93236874 14.9609375 6.2265625 C15.09757813 7.01804687 15.23421875 7.80953125 15.375 8.625 C15.61489394 10.07847507 15.83092145 11.53659598 16 13 C14.29020752 14.70979248 11.96069337 14.32834799 9.625 14.5 C6.47979491 14.73236344 4.00372093 14.99875969 1 16 C1 20.29 1 24.58 1 29 C1.99 29 2.98 29 4 29 C3.83242188 29.69867187 3.66484375 30.39734375 3.4921875 31.1171875 C3.18667969 32.48230469 3.18667969 32.48230469 2.875 33.875 C2.66617187 34.77992187 2.45734375 35.68484375 2.2421875 36.6171875 C2.12230469 37.79667969 2.12230469 37.79667969 2 39 C2.66 39.66 3.32 40.32 4 41 C5.32 41 6.64 41 8 41 C8.33 41.99 8.66 42.98 9 44 C10.98 43.505 10.98 43.505 13 43 C12.01 42.67 11.02 42.34 10 42 C14.12494151 41.94215292 18.24977944 41.90645593 22.375 41.875 C23.550625 41.85824219 24.72625 41.84148438 25.9375 41.82421875 C27.61972656 41.81455078 27.61972656 41.81455078 29.3359375 41.8046875 C30.37282715 41.79421387 31.4097168 41.78374023 32.47802734 41.77294922 C35 42 35 42 37 44 C39.60280568 43.67958603 39.60280568 43.67958603 42 43 C42 42.34 42 41.68 42 41 C43.65 41 45.3 41 47 41 C46.62095792 37.70924004 46.62095792 37.70924004 45 35 C44.60430892 32.98688551 44.25747809 30.96402792 43.9375 28.9375 C43.76089844 27.83277344 43.58429687 26.72804688 43.40234375 25.58984375 C43.20318359 24.30787109 43.20318359 24.30787109 43 23 C43.99 23 44.98 23 46 23 C46 20.69 46 18.38 46 16 C43.36 16 40.72 16 38 16 C38 15.34 38 14.68 38 14 C31.4 14 24.8 14 18 14 C18.66 13.67 19.32 13.34 20 13 C19.34 11.68 18.68 10.36 18 9 C19.98 9 21.96 9 24 9 C23.01 10.485 23.01 10.485 22 12 C23.65 12 25.3 12 27 12 C27 10.35 27 8.7 27 7 C28.32 7 29.64 7 31 7 C31 5.68 31 4.36 31 3 C23.50784869 0.29805949 23.50784869 0.29805949 16.3046875 2.23046875 Z " fill="#FDFCF2" transform="translate(0,0)"></path>
    <path d="M0 0 C0 0.66 0 1.32 0 2 C2.64 2 5.28 2 8 2 C8 4.31 8 6.62 8 9 C7.01 9 6.02 9 5 9 C5.28168297 10.95979427 5.57566717 12.91782378 5.875 14.875 C6.03742187 15.96554688 6.19984375 17.05609375 6.3671875 18.1796875 C6.76256513 21.11932714 6.76256513 21.11932714 9 23 C9 24.32 9 25.64 9 27 C7.35 27 5.7 27 4 27 C3.67 27.99 3.34 28.98 3 30 C-1.875 29.125 -1.875 29.125 -3 28 C-5.32817964 27.63239269 -7.6618385 27.29758419 -10 27 C-9.34 26.34 -8.68 25.68 -8 25 C-8.1009857 21.20412565 -8.79999766 17.60000701 -10 14 C-11.65261839 12.97695052 -13.31791365 11.97383946 -15 11 C-15.45570813 7.96377597 -15.28755958 5.04813151 -15 2 C-15.99 1.67 -16.98 1.34 -18 1 C-15.56257869 0.83210874 -13.12507454 0.66563867 -10.6875 0.5 C-9.99720703 0.45230469 -9.30691406 0.40460937 -8.59570312 0.35546875 C-5.72337641 0.16120511 -2.87986212 0 0 0 Z " fill="#BAA015" transform="translate(38,14)"></path>
    <path d="M0 0 C4.95 0 9.9 0 15 0 C15.22786458 2.21354167 15.45572917 4.42708333 15.68359375 6.640625 C15.93490397 8.99537346 15.93490397 8.99537346 16.66015625 11.171875 C16.77230469 11.77515625 16.88445313 12.3784375 17 13 C14.14206684 15.85793316 11.85334416 15.40799941 7.875 15.625 C6.59367188 15.69976562 5.31234375 15.77453125 3.9921875 15.8515625 C3.00476563 15.90054687 2.01734375 15.94953125 1 16 C1 20.29 1 24.58 1 29 C1.99 29 2.98 29 4 29 C4.12752881 34.61126761 4.12752881 34.61126761 3.3515625 36.9765625 C2.78786194 39.03377051 2.78786194 39.03377051 3.92578125 40.8515625 C4.38339844 41.43679687 4.84101562 42.02203125 5.3125 42.625 C5.76238281 43.21539062 6.21226562 43.80578125 6.67578125 44.4140625 C8.05864458 46.11835884 8.05864458 46.11835884 10 48 C6.7 48 3.4 48 0 48 C0 32.16 0 16.32 0 0 Z " fill="#FDFDF5" transform="translate(0,0)"></path>
    <path d="M0 0 C2.94851556 2.34488245 3.93035506 3.42333987 4.390625 7.234375 C4.34421875 8.39453125 4.2978125 9.5546875 4.25 10.75 C4.21390625 11.92046875 4.1778125 13.0909375 4.140625 14.296875 C4.09421875 15.18890625 4.0478125 16.0809375 4 17 C-1.32017615 17.09906509 -6.63981247 17.17156072 -11.96069336 17.21972656 C-13.7697078 17.23981053 -15.57865757 17.26708341 -17.38745117 17.30175781 C-19.99153621 17.35041892 -22.59476115 17.37300051 -25.19921875 17.390625 C-26.40731453 17.42159271 -26.40731453 17.42159271 -27.63981628 17.45318604 C-31.60458787 17.45476131 -33.57126852 17.25820665 -37.05004883 15.16308594 C-39 13 -39 13 -39 10 C-37.66666667 10 -36.33333333 10 -35 10 C-34.18539307 9.98952637 -33.37078613 9.97905273 -32.53149414 9.96826172 C-29.04186283 9.9267966 -25.55228099 9.90075484 -22.0625 9.875 C-20.84369141 9.85824219 -19.62488281 9.84148438 -18.36914062 9.82421875 C-16.62600586 9.81455078 -16.62600586 9.81455078 -14.84765625 9.8046875 C-13.77523682 9.79421387 -12.70281738 9.78374023 -11.59790039 9.77294922 C-9 10 -9 10 -7 12 C-5.68 12 -4.36 12 -3 12 C-2.67 11.34 -2.34 10.68 -2 10 C-0.35 10 1.3 10 3 10 C2.690625 9.278125 2.38125 8.55625 2.0625 7.8125 C1.07439461 5.19692691 0.4712246 2.74881018 0 0 Z " fill="#F6DD51" transform="translate(44,31)"></path>
    <path d="M0 0 C2.00720923 0.28674418 4.0085944 0.61866701 6 1 C6 3.97 6 6.94 6 10 C7.32 10.33 8.64 10.66 10 11 C12.52480693 13.52480693 12.55738633 15.13823034 13.125 18.625 C13.29257812 19.62789062 13.46015625 20.63078125 13.6328125 21.6640625 C13.81457031 22.82035156 13.81457031 22.82035156 14 24 C12.68 24 11.36 24 10 24 C9.86464844 23.30132812 9.72929687 22.60265625 9.58984375 21.8828125 C8.92751188 19.08277479 8.24498223 16.59766188 7 14 C3.50656314 12.29755893 3.50656314 12.29755893 0 12 C-1 11 -1 11 -1.1328125 8.75 C-1.13023438 7.8425 -1.12765625 6.935 -1.125 6 C-1.12757812 5.0925 -1.13015625 4.185 -1.1328125 3.25 C-1 1 -1 1 0 0 Z " fill="#FADD47" transform="translate(17,15)"></path>
    <path d="M0 0 C1.60875 0.020625 3.2175 0.04125 4.875 0.0625 C5.205 3.6925 5.535 7.3225 5.875 11.0625 C1.585 11.0625 -2.705 11.0625 -7.125 11.0625 C-7.125 7.7625 -7.125 4.4625 -7.125 1.0625 C-4.60024538 -0.19987731 -2.81299534 -0.03606404 0 0 Z " fill="#F9DD44" transform="translate(9.125,16.9375)"></path>
    <path d="M0 0 C2.97 0 5.94 0 9 0 C9 7.92 9 15.84 9 24 C8.34 24 7.68 24 7 24 C6.79503906 23.08476563 6.59007812 22.16953125 6.37890625 21.2265625 C6.10949219 20.03804687 5.84007812 18.84953125 5.5625 17.625 C5.29566406 16.44164063 5.02882813 15.25828125 4.75390625 14.0390625 C4.14365305 11.10505419 4.14365305 11.10505419 3 9 C2.01 8.67 1.02 8.34 0 8 C0 5.36 0 2.72 0 0 Z " fill="#F6D941" transform="translate(25,16)"></path>
    <path d="M0 0 C2.38416056 0.56013411 4.66345825 1.25230664 7 2 C7 3.32 7 4.64 7 6 C5.68 6 4.36 6 3 6 C3 7.65 3 9.3 3 11 C1.35 11 -0.3 11 -2 11 C-1.34 10.01 -0.68 9.02 0 8 C-1.98 8 -3.96 8 -6 8 C-5.34 9.32 -4.68 10.64 -4 12 C-5.32 12.99 -6.64 13.98 -8 15 C-8 14.01 -8 13.02 -8 12 C-8.34342543 9.71601402 -8.69820587 7.43511594 -9.07421875 5.15625 C-9 3 -9 3 -7.69140625 1.23828125 C-5.08296006 -0.67136643 -3.17060044 -0.30486543 0 0 Z " fill="#BAAB50" transform="translate(24,1)"></path>
    <path d="M0 0 C0.33 0 0.66 0 1 0 C1 3.3 1 6.6 1 10 C2.32 10.66 3.64 11.32 5 12 C6.4375 14.8125 6.4375 14.8125 7 18 C5.66873553 20.92878184 4.26695035 22.73304965 2 25 C1.01 25 0.02 25 -1 25 C-1.02886984 21.02084841 -1.04675406 17.04172347 -1.0625 13.0625 C-1.07087891 11.92619141 -1.07925781 10.78988281 -1.08789062 9.61914062 C-1.09111328 8.53955078 -1.09433594 7.45996094 -1.09765625 6.34765625 C-1.10289307 5.34742432 -1.10812988 4.34719238 -1.11352539 3.31665039 C-1 1 -1 1 0 0 Z " fill="#F6D942" transform="translate(36,15)"></path>
    <path d="M0 0 C0.33 0 0.66 0 1 0 C1 3.96 1 7.92 1 12 C1.99 12 2.98 12 4 12 C4.12752881 17.61126761 4.12752881 17.61126761 3.3515625 19.9765625 C2.78786194 22.03377051 2.78786194 22.03377051 3.92578125 23.8515625 C4.38339844 24.43679687 4.84101562 25.02203125 5.3125 25.625 C5.76238281 26.21539062 6.21226562 26.80578125 6.67578125 27.4140625 C8.05864458 29.11835884 8.05864458 29.11835884 10 31 C6.7 31 3.4 31 0 31 C0 20.77 0 10.54 0 0 Z " fill="#FDFCED" transform="translate(0,17)"></path>
    <path d="M0 0 C1.0725 -0.01417969 2.145 -0.02835938 3.25 -0.04296875 C6 0.1875 6 0.1875 8 2.1875 C8.1953125 4.3515625 8.1953125 4.3515625 8.125 6.8125 C8.10695313 7.62976562 8.08890625 8.44703125 8.0703125 9.2890625 C8.04710938 9.91554688 8.02390625 10.54203125 8 11.1875 C7.34 11.1875 6.68 11.1875 6 11.1875 C5.67 9.5375 5.34 7.8875 5 6.1875 C-1.93 5.6925 -1.93 5.6925 -9 5.1875 C-8.67 3.8675 -8.34 2.5475 -8 1.1875 C-5.27457733 -0.17521133 -3.03912726 0.01826399 0 0 Z " fill="#EFD33B" transform="translate(14,28.8125)"></path>
    <path d="M0 0 C2.64 0 5.28 0 8 0 C7.01 1.485 7.01 1.485 6 3 C6.84304687 2.98839844 7.68609375 2.97679687 8.5546875 2.96484375 C9.65039062 2.95582031 10.74609375 2.94679688 11.875 2.9375 C12.96554688 2.92589844 14.05609375 2.91429687 15.1796875 2.90234375 C18 3 18 3 20 4 C20 4.66 20 5.32 20 6 C17.703463 7.1482685 16.41686833 7.11561175 13.8671875 7.09765625 C13.06152344 7.09443359 12.25585938 7.09121094 11.42578125 7.08789062 C10.58402344 7.07951172 9.74226563 7.07113281 8.875 7.0625 C8.02550781 7.05798828 7.17601562 7.05347656 6.30078125 7.04882812 C4.20049091 7.03702874 2.1002367 7.01909306 0 7 C0.33 6.34 0.66 5.68 1 5 C1.66 5 2.32 5 3 5 C2.01 3.35 1.02 1.7 0 0 Z " fill="#DFDA9F" transform="translate(17,8)"></path>
    <path d="M0 0 C0.77988281 -0.06058594 1.55976563 -0.12117188 2.36328125 -0.18359375 C4.6875 0.4375 4.6875 0.4375 8.6875 6.4375 C2.4175 6.4375 -3.8525 6.4375 -10.3125 6.4375 C-4.09623702 0.22123702 -4.09623702 0.22123702 0 0 Z " fill="#FDFDF6" transform="translate(26.3125,41.5625)"></path>
    <path d="M0 0 C1.08410156 0.00257812 2.16820312 0.00515625 3.28515625 0.0078125 C4.90744141 0.00394531 4.90744141 0.00394531 6.5625 0 C9.34765625 0.1328125 9.34765625 0.1328125 11.34765625 1.1328125 C11.34765625 2.4528125 11.34765625 3.7728125 11.34765625 5.1328125 C6.72765625 5.1328125 2.10765625 5.1328125 -2.65234375 5.1328125 C-2.98234375 3.8128125 -3.31234375 2.4928125 -3.65234375 1.1328125 C-2.65234375 0.1328125 -2.65234375 0.1328125 0 0 Z " fill="#EFD23B" transform="translate(7.65234375,34.8671875)"></path>
    <path d="M0 0 C0.99 0 1.98 0 3 0 C3.33 0.66 3.66 1.32 4 2 C5.66611905 2.042721 7.33382885 2.04063832 9 2 C9.33 1.67 9.66 1.34 10 1 C12.33297433 0.95907063 14.66705225 0.95758277 17 1 C13.25 5.875 13.25 5.875 11 7 C7.14809417 7.42798954 5.44580746 7.28105253 2.125 5.1875 C0 3 0 3 0 0 Z " fill="#F8E057" transform="translate(5,41)"></path>
    <path d="M0 0 C2.64 0 5.28 0 8 0 C8 2.31 8 4.62 8 7 C7.01 7 6.02 7 5 7 C4.67 7.99 4.34 8.98 4 10 C2.68 9.34 1.36 8.68 0 8 C0 5.36 0 2.72 0 0 Z " fill="#CEBF60" transform="translate(38,16)"></path>
    <path d="M0 0 C0.99 0.33 1.98 0.66 3 1 C3.94921875 3.72265625 3.94921875 3.72265625 4.6875 7.0625 C4.93886719 8.16722656 5.19023437 9.27195312 5.44921875 10.41015625 C5.63097656 11.26480469 5.81273437 12.11945312 6 13 C4.02 13 2.04 13 0 13 C0 8.71 0 4.42 0 0 Z " fill="#BFA311" transform="translate(22,28)"></path>
    <path d="M0 0 C3.79336648 0.21074258 6.76785416 1.03321333 10.375 2.1875 C10.045 3.1775 9.715 4.1675 9.375 5.1875 C4.375 5.1875 -0.625 5.1875 -5.625 5.1875 C-3.22643198 0.23045943 -3.22643198 0.23045943 0 0 Z " fill="#B5AC63" transform="translate(20.625,0.8125)"></path>
    <path d="M0 0 C2.94851556 2.34488245 3.93035506 3.42333987 4.390625 7.234375 C4.34421875 8.39453125 4.2978125 9.5546875 4.25 10.75 C4.21390625 11.92046875 4.1778125 13.0909375 4.140625 14.296875 C4.09421875 15.18890625 4.0478125 16.0809375 4 17 C2.02 17 0.04 17 -2 17 C-1.67 15.02 -1.34 13.04 -1 11 C0.32 10.67 1.64 10.34 3 10 C2.5359375 8.9171875 2.5359375 8.9171875 2.0625 7.8125 C1.07439461 5.19692691 0.4712246 2.74881018 0 0 Z " fill="#F5E05F" transform="translate(44,31)"></path>
    <path d="M0 0 C1.9296875 0.72265625 1.9296875 0.72265625 4 2 C4.7578125 4.05859375 4.7578125 4.05859375 5.125 6.4375 C5.66325452 9.77138261 6.05291502 11.07937253 8 14 C7.67 14.66 7.34 15.32 7 16 C5.02 16 3.04 16 1 16 C1 13 1 13 2.1875 10.125 C3.36961313 6.98539221 3.36961313 6.98539221 1.625 4.25 C1.08875 3.5075 0.5525 2.765 0 2 C0 1.34 0 0.68 0 0 Z " fill="#CEB525" transform="translate(39,24)"></path>
    <path d="M0 0 C0.66 0 1.32 0 2 0 C2 2.31 2 4.62 2 7 C2.93585937 7.11021484 2.93585937 7.11021484 3.890625 7.22265625 C6 8 6 8 7.046875 9.99609375 C7.27890625 10.80175781 7.5109375 11.60742188 7.75 12.4375 C8.11351562 13.64212891 8.11351562 13.64212891 8.484375 14.87109375 C9 17 9 17 9 19 C8.34 19 7.68 19 7 19 C6.82984375 18.37351562 6.6596875 17.74703125 6.484375 17.1015625 C6.24203125 16.28429687 5.9996875 15.46703125 5.75 14.625 C5.51796875 13.81289063 5.2859375 13.00078125 5.046875 12.1640625 C3.7785108 9.54214546 2.67576692 9.00617682 0 8 C0 5.36 0 2.72 0 0 Z " fill="#C8AA13" transform="translate(23,17)"></path>
    <path d="M0 0 C3.96 0 7.92 0 12 0 C11.67 0.99 11.34 1.98 11 3 C7.04 3 3.08 3 -1 3 C-0.67 2.01 -0.34 1.02 0 0 Z " fill="#FBE047" transform="translate(6,30)"></path>
    <path d="M0 0 C0.33 0 0.66 0 1 0 C1 3.96 1 7.92 1 12 C1.99 12 2.98 12 4 12 C4 13.98 4 15.96 4 18 C3.34 18.33 2.68 18.66 2 19 C-0.04898287 14.78103134 -0.21207997 11.34627854 -0.125 6.6875 C-0.10695312 5.43324219 -0.08890625 4.17898437 -0.0703125 2.88671875 C-0.03550781 1.45779297 -0.03550781 1.45779297 0 0 Z " fill="#F9EFC5" transform="translate(0,17)"></path>
    <path d="M0 0 C4.62 0 9.24 0 14 0 C14.33 0.99 14.66 1.98 15 3 C13.33388095 3.042721 11.66617115 3.04063832 10 3 C9.67 2.67 9.34 2.34 9 2 C4.96839809 1.73706944 3.44107266 1.70595156 0 4 C0 2.68 0 1.36 0 0 Z " fill="#FCF9DB" transform="translate(15,0)"></path>
    <path d="M0 0 C7.59 0 15.18 0 23 0 C23 0.33 23 0.66 23 1 C21.19402344 1.09087891 21.19402344 1.09087891 19.3515625 1.18359375 C17.77602923 1.26799732 16.20050904 1.35264541 14.625 1.4375 C13.8309375 1.47681641 13.036875 1.51613281 12.21875 1.55664062 C7.97398779 1.68893404 7.97398779 1.68893404 4 3 C1.875 2.0625 1.875 2.0625 0 1 C0 0.67 0 0.34 0 0 Z " fill="#E0C742" transform="translate(9,41)"></path>
    <path d="M0 0 C1.32 0 2.64 0 4 0 C4.33 2.31 4.66 4.62 5 7 C3.68 7 2.36 7 1 7 C0.67 4.69 0.34 2.38 0 0 Z " fill="#F5D93E" transform="translate(26,32)"></path>
    <path d="M0 0 C0.66 0 1.32 0 2 0 C2.66 3.3 3.32 6.6 4 10 C2.68 10 1.36 10 0 10 C0 6.7 0 3.4 0 0 Z " fill="#F6E369" transform="translate(2,18)"></path>
    <path d="M0 0 C-0.33 0.66 -0.66 1.32 -1 2 C-2.36125 1.87625 -2.36125 1.87625 -3.75 1.75 C-7.73735823 2.05671986 -8.32027434 3.23095015 -11 6 C-13.25 5.75 -13.25 5.75 -15 5 C-10.11364631 -0.01164481 -6.90153688 -0.69015369 0 0 Z " fill="#FEFBDC" transform="translate(31,42)"></path>
    <path d="M0 0 C2.31 0.33 4.62 0.66 7 1 C6.67 1.99 6.34 2.98 6 4 C3.69 4 1.38 4 -1 4 C-0.67 2.68 -0.34 1.36 0 0 Z " fill="#D4C983" transform="translate(24,2)"></path>
    <path d="M0 0 C0.33 0 0.66 0 1 0 C1 1.98 1 3.96 1 6 C-0.98 6 -2.96 6 -5 6 C-4.67 5.34 -4.34 4.68 -4 4 C-3.34 4 -2.68 4 -2 4 C-2 3.34 -2 2.68 -2 2 C-1.34 2 -0.68 2 0 2 C0 1.34 0 0.68 0 0 Z " fill="#FBF9D6" transform="translate(47,42)"></path>
    <path d="M0 0 C1.80330533 3.60661066 2.46599103 6.08393425 3 10 C2.01 10 1.02 10 0 10 C0 6.7 0 3.4 0 0 Z " fill="#EED143" transform="translate(23,30)"></path>
    <path d="M0 0 C2.64 0 5.28 0 8 0 C7.01 1.485 7.01 1.485 6 3 C3.5625 2.625 3.5625 2.625 1 2 C0.67 1.34 0.34 0.68 0 0 Z " fill="#FEFCE2" transform="translate(17,8)"></path>
    <path d="M0 0 C2.64 0 5.28 0 8 0 C7.01 0.33 6.02 0.66 5 1 C4.67 1.99 4.34 2.98 4 4 C2.68 3.34 1.36 2.68 0 2 C0 1.34 0 0.68 0 0 Z " fill="#E8D255" transform="translate(38,22)"></path>
    <path d="M0 0 C0.99 0.33 1.98 0.66 3 1 C2.67 1.99 2.34 2.98 2 4 C0.35 4 -1.3 4 -3 4 C-2.67 3.01 -2.34 2.02 -2 1 C-1.34 0.67 -0.68 0.34 0 0 Z " fill="#FBF6CD" transform="translate(20,2)"></path>
  </symbol>
  <symbol version="1.1" xmlns="http://www.w3.org/2000/svg" viewBox="0 0 48 48" id="img3">
    <path d="M0 0 C15.84 0 31.68 0 48 0 C48 15.84 48 31.68 48 48 C32.16 48 16.32 48 0 48 C0 32.16 0 16.32 0 0 Z " fill="#B8A42D" transform="translate(0,0)"></path>
    <path d="M0 0 C7.92 0 15.84 0 24 0 C24 15.84 24 31.68 24 48 C16.08 48 8.16 48 0 48 C5 43 5 43 8 42 C8.68620031 40.67661368 9.34786461 39.34050052 10 38 C12.52562802 34.82677506 15.13634437 31.86365563 18 29 C20.83909637 24.74135544 20.51085825 20.99683225 20 16 C18.68914549 12.68836756 17.92772454 11.460641 14.75 9.8828125 C11.72911667 8.9130403 9.35007969 8.79879326 6.1875 8.875 C5.21167969 8.89304687 4.23585938 8.91109375 3.23046875 8.9296875 C2.49441406 8.95289063 1.75835938 8.97609375 1 9 C1.020625 8.071875 1.04125 7.14375 1.0625 6.1875 C1.15769604 2.97713989 1.15769604 2.97713989 0 0 Z " fill="#FDFBEB" transform="translate(24,0)"></path>
    <path d="M0 0 C7.59 0 15.18 0 23 0 C22.67 2.97 22.34 5.94 22 9 C20.78763672 8.93039062 20.78763672 8.93039062 19.55078125 8.859375 C12.94048034 8.52531894 12.94048034 8.52531894 6.875 10.75 C3.16304498 15.20434603 2.49185145 18.10547677 3 24 C5.29301092 30.28284992 9.97732636 34.28006876 14.6875 38.8125 C16.25590257 40.33779369 17.82242232 41.8650267 19.38671875 43.39453125 C20.07983154 44.06331299 20.77294434 44.73209473 21.48706055 45.42114258 C23 47 23 47 23 48 C15.41 48 7.82 48 0 48 C0 32.16 0 16.32 0 0 Z " fill="#FDFCF5" transform="translate(0,0)"></path>
    <path d="M0 0 C0.86625 -0.01675781 1.7325 -0.03351562 2.625 -0.05078125 C5.44664997 0.38081981 6.15263902 1.2287208 8 3.3125 C8.66 3.3125 9.32 3.3125 10 3.3125 C10.14695312 4.25609375 10.14695312 4.25609375 10.296875 5.21875 C11.35486424 11.27482635 13.1030111 15.90478739 16 21.3125 C16 21.9725 16 22.6325 16 23.3125 C15.34 23.3125 14.68 23.3125 14 23.3125 C13.34 22.3225 12.68 21.3325 12 20.3125 C8.5 19.8125 8.5 19.8125 5 20.3125 C4.34 21.3025 3.68 22.2925 3 23.3125 C2.34 22.9825 1.68 22.6525 1 22.3125 C2.98 18.3525 4.96 14.3925 7 10.3125 C5.40177282 13.50895437 3.72199346 16.51094558 1.875 19.5625 C1.33617187 20.45453125 0.79734375 21.3465625 0.2421875 22.265625 C-0.16773438 22.94109375 -0.57765625 23.6165625 -1 24.3125 C-2.32 23.6525 -3.64 22.9925 -5 22.3125 C-5 21.6525 -5 20.9925 -5 20.3125 C-5.61875 20.065 -6.2375 19.8175 -6.875 19.5625 C-9.48998244 18.02427504 -10.06708246 17.18899576 -11 14.3125 C-11.45466086 9.31123056 -11.09261015 6.32143908 -8 2.3125 C-4.78169935 0.16696623 -3.73213493 0.01666132 0 0 Z " fill="#FBDF43" transform="translate(15,9.6875)"></path>
    <path d="M0 0 C3.01113945 1.27537931 3.80962762 2.31679384 6 5 C7.32346541 9.13489475 7.51859982 12.60626299 6 16.6875 C3.28757166 19.82374526 0.2369734 22.4192897 -3 25 C-4.34320438 22.67177907 -5.67527042 20.33865723 -7 18 C-7.37125 17.360625 -7.7425 16.72125 -8.125 16.0625 C-10.16914398 11.24416062 -11.32789905 6.24638488 -11 1 C-7.49759552 -0.75120224 -3.82168145 -0.54503846 0 0 Z " fill="#FBDE44" transform="translate(37,10)"></path>
    <path d="M0 0 C7.92 0 15.84 0 24 0 C24 5.28 24 10.56 24 16 C22.35 14.35 20.7 12.7 19 11 C13.11437249 8.52803645 7.26956905 8.79592723 1 9 C1.020625 8.071875 1.04125 7.14375 1.0625 6.1875 C1.15769604 2.97713989 1.15769604 2.97713989 0 0 Z " fill="#FDFDFA" transform="translate(24,0)"></path>
    <path d="M0 0 C3.160755 2.13167197 4.32031654 3.24263207 5.6875 6.8125 C5.91870475 10.16239986 5.86320724 13.46104715 5.6875 16.8125 C5.0275 17.1425 4.3675 17.4725 3.6875 17.8125 C3.72230469 17.22082031 3.75710937 16.62914063 3.79296875 16.01953125 C3.96180004 11.09126563 3.94669114 7.79595584 0.6875 3.8125 C-2.73344242 1.53187172 -3.99437222 1.59324993 -8 1.6875 C-8.99386719 1.70554687 -9.98773437 1.72359375 -11.01171875 1.7421875 C-11.77097656 1.76539063 -12.53023437 1.78859375 -13.3125 1.8125 C-13.00067931 3.22931634 -12.68801263 4.64594651 -12.375 6.0625 C-12.20097656 6.85140625 -12.02695312 7.6403125 -11.84765625 8.453125 C-11.58275391 9.62101562 -11.58275391 9.62101562 -11.3125 10.8125 C-11.09400391 11.88757813 -11.09400391 11.88757813 -10.87109375 12.984375 C-10.40002656 15.03804875 -10.40002656 15.03804875 -8.3125 16.8125 C-6.99368625 19.76043662 -6.01268878 22.66165051 -5.3125 25.8125 C-7.2925 25.8125 -9.2725 25.8125 -11.3125 25.8125 C-11.6425 24.8225 -11.9725 23.8325 -12.3125 22.8125 C-13.9625 22.4825 -15.6125 22.1525 -17.3125 21.8125 C-17.68375 22.451875 -18.055 23.09125 -18.4375 23.75 C-20.89302793 26.45108072 -22.75828805 26.49657005 -26.3125 26.8125 C-24.60924105 22.37925125 -22.52053673 18.23088295 -20.3359375 14.01953125 C-19.17227111 11.91556109 -19.17227111 11.91556109 -19.3125 9.8125 C-17.9925 10.1425 -16.6725 10.4725 -15.3125 10.8125 C-15.9725 10.8125 -16.6325 10.8125 -17.3125 10.8125 C-17.51746094 11.42738281 -17.72242188 12.04226562 -17.93359375 12.67578125 C-19.05989583 16.0546875 -20.18619792 19.43359375 -21.3125 22.8125 C-20.6525 21.8225 -19.9925 20.8325 -19.3125 19.8125 C-15.6875 19.625 -15.6875 19.625 -12.3125 19.8125 C-11.6525 21.1325 -10.9925 22.4525 -10.3125 23.8125 C-9.6525 23.8125 -8.9925 23.8125 -8.3125 23.8125 C-8.66183594 23.12542969 -9.01117187 22.43835938 -9.37109375 21.73046875 C-10.05365234 20.37888672 -10.05365234 20.37888672 -10.75 19 C-11.20246094 18.10667969 -11.65492187 17.21335937 -12.12109375 16.29296875 C-14.21231815 11.93910811 -14.40299628 8.60880306 -14.3125 3.8125 C-14.9725 3.8125 -15.6325 3.8125 -16.3125 3.8125 C-16.6425 5.1325 -16.9725 6.4525 -17.3125 7.8125 C-17.3125 5.8325 -17.3125 3.8525 -17.3125 1.8125 C-16.3225 1.8125 -15.3325 1.8125 -14.3125 1.8125 C-14.3125 1.1525 -14.3125 0.4925 -14.3125 -0.1875 C-9.25449996 -1.87350001 -4.94491784 -1.77270639 0 0 Z " fill="#C7AB1B" transform="translate(39.3125,9.1875)"></path>
    <path d="M0 0 C1.65 0.33 3.3 0.66 5 1 C5.33 2.32 5.66 3.64 6 5 C7.98 5 9.96 5 12 5 C11.06409496 6.1055189 10.12620142 7.20935453 9.1875 8.3125 C8.66542969 8.92738281 8.14335937 9.54226562 7.60546875 10.17578125 C6.12827531 11.85424679 4.59960869 13.43882034 3 15 C-0.18673962 13.59698853 -2.32221406 11.92234929 -4.75 9.4375 C-5.36359375 8.81746094 -5.9771875 8.19742188 -6.609375 7.55859375 C-8 6 -8 6 -8 5 C-6.8553125 4.87625 -6.8553125 4.87625 -5.6875 4.75 C-2.47626739 3.85384206 -1.70625501 2.78388975 0 0 Z " fill="#FBDF44" transform="translate(22,30)"></path>
    <path d="M0 0 C0.66 0 1.32 0 2 0 C2.14695312 0.94359375 2.14695312 0.94359375 2.296875 1.90625 C3.35486424 7.96232635 5.1030111 12.59228739 8 18 C8 18.66 8 19.32 8 20 C7.34 20 6.68 20 6 20 C5.34 19.01 4.68 18.02 4 17 C0.5 16.5 0.5 16.5 -3 17 C-3.66 17.99 -4.32 18.98 -5 20 C-5.66 19.67 -6.32 19.34 -7 19 C-5.02 15.04 -3.04 11.08 -1 7 C-1.66 6.34 -2.32 5.68 -3 5 C-1.625 2.5 -1.625 2.5 0 0 Z " fill="#D4B932" transform="translate(23,13)"></path>
    <path d="M0 0 C1.31677734 0.00966797 1.31677734 0.00966797 2.66015625 0.01953125 C4.9375 0.1875 4.9375 0.1875 6.9375 1.1875 C6.82262252 2.77159994 6.69515492 4.35478963 6.5625 5.9375 C6.49289063 6.81921875 6.42328125 7.7009375 6.3515625 8.609375 C5.93899945 11.17816382 5.22589043 12.94591015 3.9375 15.1875 C3.6075 15.1875 3.2775 15.1875 2.9375 15.1875 C2.98632812 12.16015625 2.98632812 12.16015625 3.03515625 9.1328125 C3.06399242 7.10564596 3.06399242 7.10564596 1.9375 5.1875 C0.9475 4.8575 -0.0425 4.5275 -1.0625 4.1875 C-1.0625 3.5275 -1.0625 2.8675 -1.0625 2.1875 C-3.0425 2.8475 -5.0225 3.5075 -7.0625 4.1875 C-7.7225 7.4875 -8.3825 10.7875 -9.0625 14.1875 C-9.7225 14.1875 -10.3825 14.1875 -11.0625 14.1875 C-11.35647316 9.18995633 -11.1604156 6.20331652 -8.0625 2.1875 C-4.79122414 0.00664943 -3.78873277 -0.06137859 0 0 Z " fill="#F9DE4C" transform="translate(15.0625,9.8125)"></path>
    <path d="M0 0 C3 3 3 3 3.07421875 5.04296875 C2.71614583 7.02864583 2.35807292 9.01432292 2 11 C0.95199219 10.98839844 -0.09601562 10.97679687 -1.17578125 10.96484375 C-2.55468572 10.95546345 -3.93359211 10.9463635 -5.3125 10.9375 C-6.00279297 10.92912109 -6.69308594 10.92074219 -7.40429688 10.91210938 C-10.5483025 10.89692094 -12.99420019 10.99806673 -16 12 C-17.21869929 14.50447516 -17.21869929 14.50447516 -18 17 C-18.66 16.34 -19.32 15.68 -20 15 C-17.78071806 12.09197539 -16.07030857 10.04687238 -13 8 C-10.84375 7.76953125 -10.84375 7.76953125 -8.5 7.8125 C-7.7265625 7.81894531 -6.953125 7.82539062 -6.15625 7.83203125 C-4 8 -4 8 -1 9 C-0.67 6.03 -0.34 3.06 0 0 Z " fill="#C0AC36" transform="translate(23,0)"></path>
    <path d="M0 0 C3.39527689 1.40494216 5.30647023 2.69761694 7 6 C8.10644697 11.45555041 7.20437482 15.31039745 4.25 20 C1.65277778 23.77777778 1.65277778 23.77777778 -1.203125 24.75 C-2.09257813 24.87375 -2.09257813 24.87375 -3 25 C-1.97407374 21.92222122 -1.24530756 21.15549526 1 19 C3.83320671 14.75018994 3.53392409 10.99102956 3 6 C1.67014431 2.4952235 1.67014431 2.4952235 0 0 Z " fill="#F7E573" transform="translate(41,10)"></path>
    <path d="M0 0 C5.33333333 -0.35555556 5.33333333 -0.35555556 7.875 1 C9.70488947 4.25313684 9.18128355 7.31390109 9 11 C7.35 11.33 5.7 11.66 4 12 C3.67 8.7 3.34 5.4 3 2 C2.01 1.67 1.02 1.34 0 1 C0 0.67 0 0.34 0 0 Z " fill="#F7E169" transform="translate(34,12)"></path>
    <path d="M0 0 C0.33 0.66 0.66 1.32 1 2 C0.54109375 2.51949219 0.0821875 3.03898437 -0.390625 3.57421875 C-1.00421875 4.27160156 -1.6178125 4.96898437 -2.25 5.6875 C-2.89453125 6.4196875 -3.5390625 7.151875 -4.203125 7.90625 C-5.52853358 9.45063913 -6.78499204 11.05483305 -8 12.6875 C-10.66036672 15.76354902 -13.62855155 17.73075585 -17 20 C-16.42619828 16.33622257 -15.02730342 14.67232775 -12.40234375 12.109375 C-11.68369141 11.40039062 -10.96503906 10.69140625 -10.22460938 9.9609375 C-9.46986328 9.23132812 -8.71511719 8.50171875 -7.9375 7.75 C-7.17888672 7.00492188 -6.42027344 6.25984375 -5.63867188 5.4921875 C-3.76567793 3.65453306 -1.88604389 1.82424276 0 0 Z " fill="#C6AB1C" transform="translate(42,27)"></path>
    <path d="M0 0 C0.33 0 0.66 0 1 0 C1 1.65 1 3.3 1 5 C2.32 5 3.64 5 5 5 C5.33 4.01 5.66 3.02 6 2 C10 8.75 10 8.75 10 11 C9.34 11 8.68 11 8 11 C7.34 10.01 6.68 9.02 6 8 C2.5 7.5 2.5 7.5 -1 8 C-1.99 9.485 -1.99 9.485 -3 11 C-3.66 10.67 -4.32 10.34 -5 10 C-3.35 6.7 -1.7 3.4 0 0 Z " fill="#F6DA46" transform="translate(21,22)"></path>
    <path d="M0 0 C1.22589844 0.01353516 1.22589844 0.01353516 2.4765625 0.02734375 C3.41628906 0.04474609 3.41628906 0.04474609 4.375 0.0625 C4.705 0.7225 5.035 1.3825 5.375 2.0625 C2.375 4.0625 2.375 4.0625 -0.6875 5.0625 C-3.70555734 5.84871891 -3.70555734 5.84871891 -5.625 8.0625 C-5.955 5.7525 -6.285 3.4425 -6.625 1.0625 C-4.21954362 -0.14022819 -2.67503047 -0.03821472 0 0 Z " fill="#F9DF53" transform="translate(32.625,9.9375)"></path>
    <path d="M0 0 C0.66 0.33 1.32 0.66 2 1 C2.37890625 3.328125 2.37890625 3.328125 2.5625 6.25 C2.80559241 9.92119148 3.20618904 13.40488921 4 17 C2 16 2 16 0.875 13.375 C-0.05654649 9.78189212 -0.14783375 6.69584376 0 3 C-0.66 3 -1.32 3 -2 3 C-2.33 4.32 -2.66 5.64 -3 7 C-3 5.02 -3 3.04 -3 1 C-2.01 0.67 -1.02 0.34 0 0 Z " fill="#C1A511" transform="translate(25,10)"></path>
    <path d="M0 0 C0.33 0 0.66 0 1 0 C1.16435547 0.99580078 1.16435547 0.99580078 1.33203125 2.01171875 C2.22808182 7.00191905 3.18438706 10.70954218 6 15 C5.67 15.66 5.34 16.32 5 17 C0.22562854 11.49110985 -1.28028297 8.56764032 -1 1 C-0.67 0.67 -0.34 0.34 0 0 Z " fill="#B1A336" transform="translate(3,16)"></path>
    <path d="M0 0 C0.33 0.66 0.66 1.32 1 2 C6.28 2 11.56 2 17 2 C17.33 2.99 17.66 3.98 18 5 C17.071875 4.835 16.14375 4.67 15.1875 4.5 C10.14266379 3.76299718 5.08564289 3.91723185 0 4 C0 2.68 0 1.36 0 0 Z " fill="#F8F1C9" transform="translate(25,5)"></path>
    <path d="M0 0 C0 0.66 0 1.32 0 2 C-0.61875 2.165 -1.2375 2.33 -1.875 2.5 C-5.27756949 4.90181375 -5.22612026 8.00162134 -6 12 C-6.66 12 -7.32 12 -8 12 C-8.43702768 7.54231767 -8.51445113 5.65349198 -5.6875 2.0625 C-3 0 -3 0 0 0 Z " fill="#C9A619" transform="translate(14,12)"></path>
    <path d="M0 0 C1.98 0 3.96 0 6 0 C6 0.66 6 1.32 6 2 C5.01 2 4.02 2 3 2 C3.33 2.99 3.66 3.98 4 5 C5.32 5 6.64 5 8 5 C8.33 5.66 8.66 6.32 9 7 C6.69 7 4.38 7 2 7 C1.34 4.69 0.68 2.38 0 0 Z " fill="#FBF9EA" transform="translate(24,0)"></path>
    <path d="M0 0 C0.33 0 0.66 0 1 0 C1.36258758 5.09636993 1.54014017 8.90042893 -0.75 13.5625 C-2.94390056 15.9392256 -3.82865008 16.77347501 -7 17 C-5.97407374 13.92222122 -5.24530756 13.15549526 -3 11 C-1.06604999 8.09907498 -0.69868059 7.10325263 -0.375 3.8125 C-0.189375 1.9253125 -0.189375 1.9253125 0 0 Z " fill="#ECD75B" transform="translate(45,18)"></path>
    <path d="M0 0 C0.33 0 0.66 0 1 0 C1.12117187 0.67546875 1.24234375 1.3509375 1.3671875 2.046875 C1.53476562 2.93890625 1.70234375 3.8309375 1.875 4.75 C2.03742188 5.63171875 2.19984375 6.5134375 2.3671875 7.421875 C2.96796264 9.86947744 3.77997117 11.80599857 5 14 C3.68 14.33 2.36 14.66 1 15 C-0.00109515 11.68929162 -0.10356134 8.69915231 -0.0625 5.25 C-0.05347656 4.26515625 -0.04445312 3.2803125 -0.03515625 2.265625 C-0.02355469 1.51796875 -0.01195313 0.7703125 0 0 Z " fill="#FBF7DE" transform="translate(1,17)"></path>
    <path d="M0 0 C2.375 0.3125 2.375 0.3125 5 1 C7.29013653 4.4352048 7.17842973 5.985331 7 10 C6.34 10 5.68 10 5 10 C5 8.02 5 6.04 5 4 C4.34 4 3.68 4 3 4 C3 3.34 3 2.68 3 2 C2.01 1.67 1.02 1.34 0 1 C0 0.67 0 0.34 0 0 Z " fill="#FEF9B4" transform="translate(34,12)"></path>
    <path d="M0 0 C1.5625 1.0625 1.5625 1.0625 3 3 C2.6875 6.6875 2.6875 6.6875 2 10 C1.34 10 0.68 10 0 10 C-1.125 3.375 -1.125 3.375 0 0 Z " fill="#C8C17A" transform="translate(23,0)"></path>
    <path d="M0 0 C0.66 0 1.32 0 2 0 C2 2.31 2 4.62 2 7 C0.35 6.67 -1.3 6.34 -3 6 C-2 4 -1 2 0 0 Z " fill="#E5CA33" transform="translate(23,13)"></path>
    <path d="M0 0 C0.99 0.33 1.98 0.66 3 1 C2.21625 1.226875 1.4325 1.45375 0.625 1.6875 C-2.21875 2.78125 -2.21875 2.78125 -3.3125 5.625 C-3.539375 6.40875 -3.76625 7.1925 -4 8 C-4.66 7.34 -5.32 6.68 -6 6 C-2.25 1.125 -2.25 1.125 0 0 Z " fill="#B8A83E" transform="translate(9,9)"></path>
  </symbol>
  <symbol fill="none" xmlns="http://www.w3.org/2000/svg" viewBox="0 0 24 24" id="loc">
    <path fill-rule="evenodd" clip-rule="evenodd" d="M12.0001 21.58L6.34006 15.92C3.22006 12.8 3.22006 7.73002 6.34006 4.61002C7.90006 3.05002 9.95006 2.27002 12.0001 2.27002C14.0501 2.27002 16.1001 3.05002 17.6601 4.61002C20.7801 7.73002 20.7801 12.8 17.6601 15.92L12.0001 21.58ZM12 13C13.6569 13 15 11.6568 15 9.99997C15 8.34311 13.6569 6.99997 12 6.99997C10.3432 6.99997 9.00003 8.34311 9.00003 9.99997C9.00003 11.6568 10.3432 13 12 13Z" fill="currentColor"></path>
  </symbol>
  <symbol version="1.1" xmlns="http://www.w3.org/2000/svg" viewBox="0 0 474 474" id="Logo">
    <path d="M0 0 C156.42 0 312.84 0 474 0 C474 156.42 474 312.84 474 474 C317.58 474 161.16 474 0 474 C0 317.58 0 161.16 0 0 Z " fill="#FDFDFD" transform="translate(0,0)"></path>
    <path d="M0 0 C0.73184006 -0.00807175 1.46368011 -0.01614349 2.21769714 -0.02445984 C3.76839874 -0.03825643 5.31913013 -0.04899827 6.86987305 -0.05688477 C8.42400292 -0.06829683 9.97809704 -0.08857334 11.53198242 -0.1184082 C22.79215075 -0.33400026 32.64507447 0.94364708 43.41796875 4.23828125 C44.25078369 4.48989014 45.08359863 4.74149902 45.94165039 5.00073242 C59.07451174 9.23213628 70.86730456 15.66276289 81.4296875 24.57421875 C83.51924484 26.38426283 83.51924484 26.38426283 86.41796875 28.23828125 C86.41796875 28.89828125 86.41796875 29.55828125 86.41796875 30.23828125 C86.99289062 30.48191406 87.5678125 30.72554687 88.16015625 30.9765625 C104.3604821 40.02968577 115.19335158 65.94672641 120.29296875 82.86328125 C125.66652156 101.95765339 126.30646828 122.00665464 121.41796875 141.23828125 C121.25167969 141.89393066 121.08539063 142.54958008 120.9140625 143.22509766 C114.19097096 168.74172008 99.23348168 190.17883508 78.41796875 206.23828125 C77.71414063 206.80546875 77.0103125 207.37265625 76.28515625 207.95703125 C56.74592041 222.80404916 34.20849035 228.40872333 10.13305664 228.47851562 C8.11888218 228.48821665 6.10573346 228.51934802 4.09179688 228.55078125 C-4.55931583 228.58479054 -12.258438 227.56265549 -20.58203125 225.23828125 C-21.67894287 224.94824219 -22.77585449 224.65820312 -23.90600586 224.359375 C-42.14417514 219.42474411 -56.9912846 209.10213221 -70.58203125 196.23828125 C-71.36707031 195.50609375 -72.15210938 194.77390625 -72.9609375 194.01953125 C-78.3050815 188.88336578 -82.61049963 183.4897662 -86.58203125 177.23828125 C-87.18015625 176.29984375 -87.77828125 175.36140625 -88.39453125 174.39453125 C-98.58203125 157.70810884 -98.58203125 157.70810884 -98.58203125 149.23828125 C-94.52730138 148.89401173 -90.62925805 148.75000992 -86.58203125 149.23828125 C-84.24357641 151.45365952 -83.72334281 152.37423526 -82.58203125 155.23828125 C-70.17834857 181.81760128 -49.98539361 199.97387926 -22.57080078 210.54248047 C-17.36628487 212.36335824 -12.01180861 213.36363928 -6.58203125 214.23828125 C-5.5146875 214.43357422 -5.5146875 214.43357422 -4.42578125 214.6328125 C21.50136674 218.75259237 48.98706139 210.36826393 70.06640625 195.3515625 C72.22922346 193.69531876 74.32770062 191.98452609 76.41796875 190.23828125 C77.90296875 189.12453125 77.90296875 189.12453125 79.41796875 187.98828125 C96.97541891 173.10578887 107.33897503 148.49701415 110.1015625 126.09765625 C112.47360483 97.16459676 105.41566244 70.6735863 86.41796875 48.23828125 C71.3913544 30.88780178 52.62556376 20.4593518 30.41796875 15.23828125 C29.08185547 14.89603516 29.08185547 14.89603516 27.71875 14.546875 C3.58662825 9.12945991 -22.88959263 15.23878264 -43.58203125 28.23828125 C-61.80927243 40.2854707 -73.60516527 55.06668927 -83.8046875 74.0703125 C-85.58203125 77.23828125 -85.58203125 77.23828125 -87.58203125 79.23828125 C-90.18359375 79.43359375 -90.18359375 79.43359375 -93.20703125 79.36328125 C-94.20992187 79.34523438 -95.2128125 79.3271875 -96.24609375 79.30859375 C-97.01695312 79.28539062 -97.7878125 79.2621875 -98.58203125 79.23828125 C-95.87076245 60.00521817 -82.94065071 44.40214547 -69.58203125 31.23828125 C-68.71449219 30.37203125 -67.84695312 29.50578125 -66.953125 28.61328125 C-51.70668128 14.14548622 -32.81105298 5.94792045 -12.58203125 1.23828125 C-11.45849243 0.96890747 -11.45849243 0.96890747 -10.31225586 0.6940918 C-6.87240772 0.11980972 -3.47795776 0.03725649 0 0 Z " fill="#070707" transform="translate(244.58203125,122.76171875)"></path>
    <path d="M0 0 C2.20692786 0.08911585 4.41627968 0.13017265 6.625 0.125 C7.73101562 0.12757813 8.83703125 0.13015625 9.9765625 0.1328125 C12.84057606 0.10948351 12.84057606 0.10948351 14.91821289 -0.48632812 C23.6353187 -2.6372359 31.53838365 0.01743596 39.76000977 2.94287109 C41.6875186 3.62500658 43.62434923 4.27265575 45.56445312 4.91796875 C60.57041077 10.14082154 60.57041077 10.14082154 64 17 C64.17878097 19.88980391 64.27779906 22.73325538 64.3125 25.625 C64.35600586 26.79869141 64.35600586 26.79869141 64.40039062 27.99609375 C64.46254545 33.76214917 63.34389427 38.23193245 60 43 C54.21281845 47.60612409 49.6092473 48.15593006 42.43286133 48.19287109 C41.55769867 48.20104858 40.68253601 48.20922607 39.78085327 48.21765137 C36.88125286 48.24248592 33.9817014 48.25901785 31.08203125 48.2734375 C29.59519113 48.28142302 29.59519113 48.28142302 28.07831383 48.28956985 C22.8301305 48.31629502 17.58197089 48.3356706 12.33374023 48.35009766 C7.99498376 48.36342967 3.6566984 48.3912698 -0.68188477 48.43212891 C-5.92440297 48.48149974 -11.16649425 48.50622445 -16.409235 48.51332474 C-18.40387951 48.52002901 -20.3985148 48.53522955 -22.39302635 48.55921555 C-25.19114835 48.59094159 -27.98763299 48.59089256 -30.78588867 48.58349609 C-31.60333054 48.59990143 -32.4207724 48.61630676 -33.26298523 48.63320923 C-39.20125093 48.569252 -43.49090455 46.93554191 -48 43 C-52.90141105 36.11536711 -52.82415487 28.17446632 -52 20 C-50.88193019 14.63191784 -48.40897414 12.03472854 -44 9 C-40.69189453 7.5144043 -40.69189453 7.5144043 -37.1328125 6.32421875 C-36.49439423 6.10933304 -35.85597595 5.89444733 -35.19821167 5.67304993 C-33.85746678 5.22555843 -32.51448276 4.78472441 -31.16943359 4.3503418 C-29.13084235 3.68939419 -27.1027415 3.00169812 -25.07421875 2.31054688 C-15.96125025 -0.73172664 -9.47290945 -1.65077511 0 0 Z " fill="#020202" transform="translate(248,249)"></path>
    <path d="M0 0 C0.64324219 0.4125 1.28648437 0.825 1.94921875 1.25 C2.64402344 1.6625 3.33882813 2.075 4.0546875 2.5 C10.83976696 6.98095304 14.35262157 13.25850706 17.32421875 20.6875 C19.22607568 31.52808448 17.30736107 39.89351632 12.19921875 49.5625 C6.02419488 56.93822296 -2.05665355 61.48507281 -11.6015625 62.703125 C-21.8734686 63.1647837 -29.6369115 60.99713702 -37.4296875 54.1640625 C-44.9420863 46.27811901 -47.67108849 39.04842314 -47.52172852 28.20288086 C-47.07432361 18.1214361 -43.31872084 11.10568251 -36.05078125 4.25 C-26.50979778 -3.90131849 -11.28905465 -6.19285284 0 0 Z " fill="#030303" transform="translate(269.05078125,179.75)"></path>
    <path d="M0 0 C2.2295249 1.77999438 4.10068481 3.46824886 6.0625 5.50390625 C6.61687744 6.06061508 7.17125488 6.61732391 7.74243164 7.19090271 C8.91136014 8.36955102 10.0742641 9.55420103 11.23144531 10.74438477 C12.98228207 12.54428555 14.75075118 14.3251571 16.5234375 16.10351562 C22.14357723 21.78120454 27.43927983 27.41138818 32 34 C31.6189209 34.40613525 31.2378418 34.81227051 30.84521484 35.23071289 C29.68884389 36.46326544 28.5326071 37.69594387 27.37646484 38.92871094 C26.03082274 40.3633184 24.68478754 41.79755724 23.33837891 43.23144531 C19.89971056 46.89603505 16.4697846 50.56791249 13.0625 54.26171875 C12.44197754 54.93259521 11.82145508 55.60347168 11.18212891 56.29467773 C10.00447458 57.56890544 8.8295294 58.84564397 7.65771484 60.12524414 C-0.19019946 68.60272671 -0.19019946 68.60272671 -4.5625 69.5625 C-7 69 -7 69 -9.375 66.8125 C-11 64 -11 64 -10.9609375 61.69921875 C-9.62047923 57.93394777 -7.09947165 55.67307578 -4.25 53 C-3.7240625 52.49210937 -3.198125 51.98421875 -2.65625 51.4609375 C-1.6123745 50.4532359 -0.56489214 49.44925601 0.48632812 48.44921875 C2.69391898 46.33562854 4.84654145 44.1685177 7 42 C7.99 41.01 7.99 41.01 9 40 C-19.05 39.67 -47.1 39.34 -76 39 C-76 34.71 -76 30.42 -76 26 C-48.94 26 -21.88 26 6 26 C1.06029518 20.35462306 -3.63737839 15.44293997 -9.15625 10.4921875 C-11 8 -11 8 -10.88671875 4.81640625 C-10 2 -10 2 -8.3125 0.0625 C-5.0590261 -1.43233936 -3.43693471 -0.96741618 0 0 Z " fill="#060606" transform="translate(181,203)"></path>
    <path d="M0 0 C0.99 0.33 1.98 0.66 3 1 C1.30753427 5.2208444 -1.68898309 8.17117098 -4.75 11.4375 C-5.26304687 11.99759766 -5.77609375 12.55769531 -6.3046875 13.13476562 C-15.15638561 22.66479738 -15.15638561 22.66479738 -19.75 23.5 C-22 23 -22 23 -24 20 C-22.35 19.67 -20.7 19.34 -19 19 C-18.67 18.01 -18.34 17.02 -18 16 C-16.68 16 -15.36 16 -14 16 C-14.33 15.01 -14.66 14.02 -15 13 C-14.34 13 -13.68 13 -13 13 C-13 12.34 -13 11.68 -13 11 C-12.34 11 -11.68 11 -11 11 C-10.67 10.34 -10.34 9.68 -10 9 C-10 9.66 -10 10.32 -10 11 C-9.34 11 -8.68 11 -8 11 C-7.731875 10.21625 -7.46375 9.4325 -7.1875 8.625 C-6 6 -6 6 -3 4 C-2.01 3.67 -1.02 3.34 0 3 C0 2.01 0 1.02 0 0 Z " fill="#0C0C0C" transform="translate(196,249)"></path>
    <path d="M0 0 C26.73 0 53.46 0 81 0 C79.35 1.65 77.7 3.3 76 5 C75.505 3.515 75.505 3.515 75 2 C50.25 1.67 25.5 1.34 0 1 C0 0.67 0 0.34 0 0 Z " fill="#EFEFEF" transform="translate(110,242)"></path>
    <path d="M0 0 C2.475 0.99 2.475 0.99 5 2 C-3.83878505 14.24065421 -3.83878505 14.24065421 -8.3125 15.8125 C-8.869375 15.874375 -9.42625 15.93625 -10 16 C-10.28875 15.38125 -10.5775 14.7625 -10.875 14.125 C-11.93720042 11.86674235 -11.93720042 11.86674235 -14 10 C-10.62182575 9.15545644 -8.32534757 8.89155081 -5 10 C-5.33 9.01 -5.66 8.02 -6 7 C-5.071875 6.6596875 -5.071875 6.6596875 -4.125 6.3125 C-1.38589791 4.62070165 -0.94975528 3.00755839 0 0 Z " fill="#0F0F0F" transform="translate(339,306)"></path>
    <path d="M0 0 C0.66 0.66 1.32 1.32 2 2 C1.01 2.495 1.01 2.495 0 3 C-0.33 3.99 -0.66 4.98 -1 6 C-0.01 6.33 0.98 6.66 2 7 C2 8.32 2 9.64 2 11 C-0.5 12.75 -0.5 12.75 -3 14 C-3.99 13.34 -4.98 12.68 -6 12 C-6.33 12.66 -6.66 13.32 -7 14 C-7.99 13.01 -8.98 12.02 -10 11 C-8.89718873 9.72799029 -7.79269231 8.45744147 -6.6875 7.1875 C-6.07261719 6.47980469 -5.45773438 5.77210938 -4.82421875 5.04296875 C-3.26665665 3.29863261 -1.67341125 1.63221959 0 0 Z " fill="#EBEBEB" transform="translate(202,248)"></path>
    <path d="M0 0 C0.99 0.33 1.98 0.66 3 1 C2.38125 1.5775 1.7625 2.155 1.125 2.75 C-0.81347053 4.80249821 -1.90014249 6.43366582 -3 9 C-3.99 9 -4.98 9 -6 9 C-6.33 9.99 -6.66 10.98 -7 12 C-8.66666667 12.66666667 -10.33333333 13.33333333 -12 14 C-12.33 14.99 -12.66 15.98 -13 17 C-13.66 17 -14.32 17 -15 17 C-13.49770909 13.17598678 -11.1988409 11.4791017 -8 9 C-7.34 8.01 -6.68 7.02 -6 6 C-5.34 6 -4.68 6 -4 6 C-3.566875 5.071875 -3.566875 5.071875 -3.125 4.125 C-2 2 -2 2 0 0 Z " fill="#E9E9E9" transform="translate(342,310)"></path>
    <path d="M0 0 C0.66 0.33 1.32 0.66 2 1 C1.34 1.66 0.68 2.32 0 3 C-0.39764263 4.98821313 -0.73775349 6.98944339 -1 9 C-1.66 9 -2.32 9 -3 9 C-3.33 9.66 -3.66 10.32 -4 11 C-5.32 11 -6.64 11 -8 11 C-8.66 10.34 -9.32 9.68 -10 9 C-6.7 6.03 -3.4 3.06 0 0 Z " fill="#040404" transform="translate(338,297)"></path>
    <path d="M0 0 C1.65 0 3.3 0 5 0 C5.33 0.99 5.66 1.98 6 3 C1.76038904 6.87621574 1.76038904 6.87621574 -1.6875 7.4375 C-2.8321875 7.2209375 -2.8321875 7.2209375 -4 7 C-4.66 6.01 -5.32 5.02 -6 4 C-4.35 3.67 -2.7 3.34 -1 3 C-0.67 2.01 -0.34 1.02 0 0 Z " fill="#151515" transform="translate(178,265)"></path>
    <path d="M0 0 C0.66 0.33 1.32 0.66 2 1 C1.34 1.66 0.68 2.32 0 3 C0.66 3.66 1.32 4.32 2 5 C1.14728516 4.9690625 1.14728516 4.9690625 0.27734375 4.9375 C-3.60353898 5.04116298 -6.10349568 5.20590535 -9.0859375 7.84765625 C-10.29474762 9.29363797 -11.46541505 10.77262687 -12.58984375 12.28515625 C-13.28787109 13.13400391 -13.28787109 13.13400391 -14 14 C-14.66 14 -15.32 14 -16 14 C-13.41351318 7.99565559 -8.12500665 4.2592632 -2.625 1 C-1.75875 0.67 -0.8925 0.34 0 0 Z " fill="#1C1C1C" transform="translate(243,178)"></path>
    <path d="M0 0 C1 3 1 3 0.3125 5.5 C-1.12928019 8.24624799 -2.35244403 9.42801364 -5 11 C-5.66 11 -6.32 11 -7 11 C-7 10.34 -7 9.68 -7 9 C-7.66 8.67 -8.32 8.34 -9 8 C-8.34 7.67 -7.68 7.34 -7 7 C-7.33 6.34 -7.66 5.68 -8 5 C-7.05125 4.731875 -6.1025 4.46375 -5.125 4.1875 C-1.74732727 3.25013412 -1.74732727 3.25013412 0 0 Z " fill="#E5E5E5" transform="translate(160,197)"></path>
    <path d="M0 0 C0.33 0.99 0.66 1.98 1 3 C0.34 3 -0.32 3 -1 3 C-0.34 4.65 0.32 6.3 1 8 C0.01 8.495 0.01 8.495 -1 9 C-3.125 8.0625 -3.125 8.0625 -5 7 C-4.67 7.99 -4.34 8.98 -4 10 C-5.65 10.33 -7.3 10.66 -9 11 C-7.59155282 7.78475695 -5.89655214 5.67816132 -3.375 3.25 C-2.74335938 2.63640625 -2.11171875 2.0228125 -1.4609375 1.390625 C-0.73777344 0.70226562 -0.73777344 0.70226562 0 0 Z " fill="#EEEEEE" transform="translate(191,260)"></path>
    <path d="M0 0 C3.3 0.99 6.6 1.98 10 3 C9.67 3.99 9.34 4.98 9 6 C5.86559131 7.0448029 4.97903963 7.15317663 2 6 C0 3 0 3 0 0 Z " fill="#0E0E0E" transform="translate(274,248)"></path>
    <path d="M0 0 C5 1 5 1 7 2 C7 4.64 7 7.28 7 10 C6.01 10.495 6.01 10.495 5 11 C3.35 7.37 1.7 3.74 0 0 Z " fill="#E8E8E8" transform="translate(280,189)"></path>
    <path d="M0 0 C3.465 1.98 3.465 1.98 7 4 C6.01 4.99 5.02 5.98 4 7 C3.67 6.34 3.34 5.68 3 5 C1.02 5.99 -0.96 6.98 -3 8 C-3.33 7.34 -3.66 6.68 -4 6 C-3.34 5.01 -2.68 4.02 -2 3 C-1.34 3 -0.68 3 0 3 C0 2.01 0 1.02 0 0 Z " fill="#111111" transform="translate(196,320)"></path>
    <path d="M0 0 C0.33 0.66 0.66 1.32 1 2 C-0.98 4.64 -2.96 7.28 -5 10 C-5.99 9.01 -6.98 8.02 -8 7 C-3.375 1.125 -3.375 1.125 0 0 Z " fill="#111111" transform="translate(178,167)"></path>
    <path d="M0 0 C1.32 0.66 2.64 1.32 4 2 C3.29445932 5.66881155 1.72264494 8.70450534 0 12 C-0.33 12 -0.66 12 -1 12 C-1.02687279 10.18757948 -1.04633715 8.37504767 -1.0625 6.5625 C-1.07410156 5.55316406 -1.08570313 4.54382813 -1.09765625 3.50390625 C-1 1 -1 1 0 0 Z " fill="#EEEEEE" transform="translate(155,169)"></path>
    <path d="M0 0 C0.99 0.33 1.98 0.66 3 1 C2.67 2.65 2.34 4.3 2 6 C0.02 6.66 -1.96 7.32 -4 8 C-2.66666667 5.33333333 -1.33333333 2.66666667 0 0 Z M-6 8 C-5.34 8.33 -4.68 8.66 -4 9 C-5.98 9.99 -5.98 9.99 -8 11 C-7.34 10.01 -6.68 9.02 -6 8 Z " fill="#E4E4E4" transform="translate(283,224)"></path>
    <path d="M0 0 C0.66 0.66 1.32 1.32 2 2 C1.67 2.598125 1.34 3.19625 1 3.8125 C-0.20787988 6.05386471 -0.20787988 6.05386471 0 9 C-0.99 9.66 -1.98 10.32 -3 11 C-3.33 10.01 -3.66 9.02 -4 8 C-4.66 8 -5.32 8 -6 8 C-4.768606 4.30581799 -2.79208646 2.64890254 0 0 Z " fill="#131313" transform="translate(189,151)"></path>
    <path d="M0 0 C0.99 0.33 1.98 0.66 3 1 C2.38125 1.5775 1.7625 2.155 1.125 2.75 C-0.81347053 4.80249821 -1.90014249 6.43366582 -3 9 C-4.32 8.34 -5.64 7.68 -7 7 C-6.01 6.67 -5.02 6.34 -4 6 C-2.90833725 4.06669397 -2.90833725 4.06669397 -2 2 C-1.34 1.34 -0.68 0.68 0 0 Z " fill="#D7D7D7" transform="translate(342,310)"></path>
    <path d="M0 0 C1.09570312 0.00902344 2.19140625 0.01804688 3.3203125 0.02734375 C4.16335938 0.03894531 5.00640625 0.05054688 5.875 0.0625 C5.875 0.3925 5.875 0.7225 5.875 1.0625 C3.235 1.0625 0.595 1.0625 -2.125 1.0625 C-2.125 1.7225 -2.125 2.3825 -2.125 3.0625 C-4.105 3.3925 -6.085 3.7225 -8.125 4.0625 C-8.125 3.0725 -8.125 2.0825 -8.125 1.0625 C-5.36047967 -0.31976016 -3.0788637 -0.03275387 0 0 Z " fill="#E3E3E3" transform="translate(252.125,241.9375)"></path>
    <path d="M0 0 C0.33 0.99 0.66 1.98 1 3 C1.33 2.01 1.66 1.02 2 0 C2.66 0 3.32 0 4 0 C4.66 1.65 5.32 3.3 6 5 C3 6 3 6 0.8125 5.0625 C0.214375 4.711875 -0.38375 4.36125 -1 4 C-0.67 2.68 -0.34 1.36 0 0 Z " fill="#020202" transform="translate(173,263)"></path>
    <path d="M0 0 C2 3.75 2 3.75 2 6 C1.34 6 0.68 6 0 6 C-0.33 6.66 -0.66 7.32 -1 8 C-1.99 7.01 -2.98 6.02 -4 5 C-2.68 3.35 -1.36 1.7 0 0 Z " fill="#E1E1E1" transform="translate(196,254)"></path>
    <path d="M0 0 C2.3125 0.1875 2.3125 0.1875 4 1 C3.67 1.99 3.34 2.98 3 4 C1.35 4 -0.3 4 -2 4 C-2 4.66 -2 5.32 -2 6 C-2.99 5.67 -3.98 5.34 -5 5 C-2.75 2.4375 -2.75 2.4375 0 0 Z " fill="#121212" transform="translate(171,158)"></path>
    <path d="M0 0 C0.33 0.66 0.66 1.32 1 2 C0.34 1.67 -0.32 1.34 -1 1 C-0.67 0.67 -0.34 0.34 0 0 Z M-1 2 C-1.33 3.65 -1.66 5.3 -2 7 C-3.32 7.33 -4.64 7.66 -6 8 C-6.33 7.01 -6.66 6.02 -7 5 C-3.25 2 -3.25 2 -1 2 Z " fill="#E9E9E9" transform="translate(201,150)"></path>
    <path d="M0 0 C0.66 0.66 1.32 1.32 2 2 C-3.29230769 6.92307692 -3.29230769 6.92307692 -6.875 7.3125 C-7.926875 7.1578125 -7.926875 7.1578125 -9 7 C-6.03716687 4.61327331 -3.05729491 2.2646629 0 0 Z " fill="#181818" transform="translate(316,317)"></path>
    <path d="M0 0 C1.98 0.495 1.98 0.495 4 1 C4 2.32 4 3.64 4 5 C3.01 4.67 2.02 4.34 1 4 C0.67 4.66 0.34 5.32 0 6 C-1.125 2.25 -1.125 2.25 0 0 Z " fill="#1A1A1A" transform="translate(155,272)"></path>
    <path d="M0 0 C3.16115776 1.36983503 3.9927092 1.9890638 6 5 C5.01 5.33 4.02 5.66 3 6 C0.3125 4.0625 0.3125 4.0625 -2 2 C-1.34 1.34 -0.68 0.68 0 0 Z " fill="#191919" transform="translate(306,146)"></path>
    <path d="M0 0 C0.66 0.33 1.32 0.66 2 1 C-0.05233685 3.2477975 -1.00667261 4.0022242 -4 5 C-4.66 5.66 -5.32 6.32 -6 7 C-6 6.34 -6 5.68 -6 5 C-6.66 4.67 -7.32 4.34 -8 4 C-6.71349294 3.30289269 -5.42059335 2.61757124 -4.125 1.9375 C-3.40570313 1.55464844 -2.68640625 1.17179687 -1.9453125 0.77734375 C-1.30335938 0.52082031 -0.66140625 0.26429688 0 0 Z " fill="#DEDEDE" transform="translate(311,336)"></path>
    <path d="M0 0 C0.99 0.33 1.98 0.66 3 1 C1.515 3.475 1.515 3.475 0 6 C-1.32 5.34 -2.64 4.68 -4 4 C-2.68 2.68 -1.36 1.36 0 0 Z " fill="#222222" transform="translate(332,302)"></path>
    <path d="M0 0 C0.99 0 1.98 0 3 0 C2.67 1.65 2.34 3.3 2 5 C0.68 4.67 -0.64 4.34 -2 4 C-1.34 2.68 -0.68 1.36 0 0 Z " fill="#1A1A1A" transform="translate(185,247)"></path>
    <path d="M0 0 C2.31 0 4.62 0 7 0 C5.35 1.65 3.7 3.3 2 5 C1.34 3.35 0.68 1.7 0 0 Z " fill="#DDDDDD" transform="translate(184,242)"></path>
    <path d="M0 0 C4.03384128 2.07143201 5.92856799 3.96615872 8 8 C4.63820226 6.55922954 2.40843732 4.75249979 0 2 C0 1.34 0 0.68 0 0 Z " fill="#232323" transform="translate(273,183)"></path>
    <path d="M0 0 C0.66 0.33 1.32 0.66 2 1 C1.01 2.485 1.01 2.485 0 4 C0.99 4.33 1.98 4.66 3 5 C2.01 5.495 2.01 5.495 1 6 C-1.625 5.0625 -1.625 5.0625 -4 4 C-2.68 2.68 -1.36 1.36 0 0 Z " fill="#D7D7D7" transform="translate(223,329)"></path>
    <path d="M0 0 C-0.33 0.99 -0.66 1.98 -1 3 C-2.65 2.67 -4.3 2.34 -6 2 C-6 1.34 -6 0.68 -6 0 C-3.50907189 -1.24546405 -2.58919267 -0.7767578 0 0 Z " fill="#131313" transform="translate(327,324)"></path>
    <path d="M0 0 C0.66 0.33 1.32 0.66 2 1 C1.43628586 4.26954202 0.50037734 5.82575883 -2 8 C-2.66 7.67 -3.32 7.34 -4 7 C-2.68 4.69 -1.36 2.38 0 0 Z " fill="#E0E0E0" transform="translate(356,289)"></path>
  </symbol>
  <symbol version="1.1" xmlns="http://www.w3.org/2000/svg" viewBox="0 0 24 24" id="menu">
    <path d="M0 0 C5.94 0 11.88 0 18 0 C18 0.66 18 1.32 18 2 C12.06 2 6.12 2 0 2 C0 1.34 0 0.68 0 0 Z " fill="currentcolor" transform="translate(3,16)"></path>
    <path d="M0 0 C5.94 0 11.88 0 18 0 C18 0.66 18 1.32 18 2 C12.06 2 6.12 2 0 2 C0 1.34 0 0.68 0 0 Z " fill="currentcolor" transform="translate(3,11)"></path>
    <path d="M0 0 C5.94 0 11.88 0 18 0 C18 0.66 18 1.32 18 2 C12.06 2 6.12 2 0 2 C0 1.34 0 0.68 0 0 Z " fill="currentcolor" transform="translate(3,6)"></path>
  </symbol>
  <symbol version="1.1" xmlns="http://www.w3.org/2000/svg" viewBox="0 0 512 512" id="cart">
    <path d="M0 0 C1.18588966 -0.0098568 1.18588966 -0.0098568 2.39573669 -0.01991272 C5.0127675 -0.03962754 7.62974098 -0.05130392 10.24682617 -0.0612793 C11.14125616 -0.06535482 12.03568615 -0.06943035 12.95722008 -0.07362938 C17.69087874 -0.09448184 22.42450848 -0.10878742 27.15820312 -0.11816406 C32.04418281 -0.12923003 36.92970727 -0.16363436 41.81552601 -0.20333576 C45.57566671 -0.22949448 49.33569878 -0.2378552 53.09592247 -0.24144554 C54.89682784 -0.24631301 56.6977283 -0.25793159 58.49854469 -0.27648354 C61.02153129 -0.30086078 63.54333766 -0.29991293 66.06640625 -0.29296875 C66.80688202 -0.30577881 67.54735779 -0.31858887 68.31027222 -0.33178711 C74.30728083 -0.27177307 77.84812147 1.79685595 82.01904297 5.96948242 C82.74667847 6.8727124 82.74667847 6.8727124 83.48901367 7.79418945 C84.04492188 8.47650635 84.60083008 9.15882324 85.17358398 9.86181641 C86.0354834 10.94595825 86.0354834 10.94595825 86.91479492 12.05200195 C87.82890137 13.18158325 87.82890137 13.18158325 88.76147461 14.33398438 C93.34868738 20.02004203 97.86732085 25.76120766 102.33666992 31.5402832 C102.77524348 32.0767093 103.21381704 32.61313541 103.66568071 33.16581684 C105.22729492 35.17700195 105.22729492 35.17700195 107.15682286 38.10579294 C111.75894389 44.61219167 111.75894389 44.61219167 118.59786284 48.28684437 C122.62261062 48.69508844 126.55918542 48.73465833 130.59468079 48.63783264 C132.14245557 48.64505778 133.69021309 48.65756465 135.23790807 48.6748628 C139.47115289 48.70707591 143.70084068 48.66498336 147.93373406 48.61035526 C152.50566637 48.56456064 157.07730638 48.58839452 161.64936829 48.60375977 C169.56502649 48.62102208 177.47957587 48.59485016 185.39504433 48.53926277 C196.84464893 48.45918457 208.29351155 48.44838469 219.74335637 48.45487802 C238.32814931 48.46382291 256.91244672 48.42149807 275.49707031 48.34472656 C293.53449823 48.27036597 311.57181486 48.21265628 329.609375 48.18261719 C330.7210571 48.18075529 331.83273919 48.1788934 332.97810862 48.17697508 C345.11108148 48.15714682 357.24405618 48.14217663 369.37703991 48.13096523 C370.97577214 48.12945969 370.97577214 48.12945969 372.60680198 48.12792374 C381.37558156 48.11969296 381.37558156 48.11969296 385.38749697 48.11640017 C397.86475493 48.10591872 410.3417846 48.08051497 422.81894239 48.0285899 C430.64008955 47.99616759 438.46122408 47.97289272 446.28242192 47.95682598 C451.66592349 47.94510273 457.0491697 47.92096804 462.43257524 47.88713831 C465.69483245 47.86978852 468.95701662 47.86487372 472.21931603 47.86368483 C473.71575178 47.86061978 475.21218744 47.85238715 476.70856229 47.83854295 C478.73866265 47.82043202 480.76891367 47.82256596 482.79909229 47.82576084 C483.92789619 47.82115457 485.05670009 47.8165483 486.21971017 47.81180245 C489.64322798 48.22750711 491.48124303 49.11978584 494.22729492 51.17700195 C497.15164582 55.56352831 496.84863108 59.01817155 496.22729492 64.17700195 C494.86416439 69.64268097 493.06767624 74.93806462 491.25073242 80.2668457 C490.72714433 81.83852457 490.20492188 83.41065896 489.68397522 84.98321533 C488.57905529 88.3094098 487.46507785 91.63236657 486.34347534 94.95297241 C484.58713867 100.15278968 482.85095016 105.35918961 481.11816406 110.56689453 C479.11707237 116.5770201 477.11178273 122.58570261 475.09963322 128.59213543 C471.49781956 139.34468494 467.95278802 150.11470153 464.46124268 160.90359497 C463.13554647 164.99980221 461.80400249 169.09410887 460.47338867 173.1887207 C460.08509888 174.38445961 460.08509888 174.38445961 459.68896484 175.60435486 C457.5739191 182.1163047 455.45061104 188.62554105 453.32495117 195.1340332 C452.98912521 196.16231735 452.65329926 197.1906015 452.30729675 198.25004578 C450.60997272 203.44631295 448.91170107 208.64226889 447.21240234 213.83789062 C443.87042762 224.05951212 440.54279296 234.28545541 437.24291992 244.52075195 C436.29139418 247.46591645 435.33949059 250.41095854 434.38745117 253.35595703 C433.78863974 255.21198333 433.19158529 257.06857756 432.59643555 258.92578125 C431.77464264 261.49012303 430.94686672 264.05246538 430.11791992 266.61450195 C429.88316956 267.35293335 429.64841919 268.09136475 429.40655518 268.85217285 C428.71608465 270.97502506 427.98219864 273.07625342 427.22729492 275.17700195 C426.81972961 276.37800537 426.81972961 276.37800537 426.40393066 277.60327148 C426.10039673 278.4023291 425.79686279 279.20138672 425.48413086 280.0246582 C425.22017517 280.74790283 424.95621948 281.47114746 424.68426514 282.21630859 C422.49803603 285.15838994 419.64991835 286.17994081 416.22729492 287.17700195 C412.79076039 287.58755599 409.39020382 287.56962268 405.93251038 287.5377655 C404.39833211 287.54161041 404.39833211 287.54161041 402.83316034 287.545533 C399.41367716 287.55046557 395.99463767 287.53398622 392.57519531 287.51757812 C390.12099213 287.51673174 387.66678819 287.51720721 385.21258545 287.51890564 C379.93279909 287.5195883 374.65315025 287.51109157 369.37339973 287.49419212 C361.73986204 287.46977462 354.10637807 287.46199405 346.47280555 287.45822815 C334.0868203 287.45166797 321.70089443 287.4317186 309.31494141 287.40332031 C297.28564755 287.3757685 285.25636984 287.35454042 273.22705078 287.34179688 C272.48512795 287.3410087 271.74320511 287.34022053 270.97879977 287.33940848 C267.25666057 287.33549327 263.53452125 287.33170217 259.81238186 287.32797277 C228.95064303 287.29689037 198.08897801 287.24384285 167.22729492 287.17700195 C167.43032132 287.98095587 167.63334772 288.78490978 167.84252644 289.61322594 C168.11043586 290.67852343 168.37834528 291.74382092 168.65437317 292.84140015 C168.91927457 293.89285406 169.18417597 294.94430798 169.45710468 296.02762413 C170.5827286 300.63040253 171.54720396 305.2602734 172.48901367 309.90356445 C172.68453323 310.85846771 172.8800528 311.81337097 173.08149719 312.79721069 C173.4885405 314.78829541 173.89430988 316.77964098 174.29882812 318.77124023 C174.92056609 321.830398 175.54729154 324.88850528 176.17456055 327.9465332 C176.57133761 329.8904839 176.96783251 331.83449222 177.36401367 333.77856445 C177.55146652 334.69304352 177.73891937 335.60752258 177.93205261 336.54971313 C178.1025563 337.39174286 178.27306 338.23377258 178.44873047 339.10131836 C178.59956589 339.84233795 178.75040131 340.58335754 178.9058075 341.34683228 C179.22729492 343.17700195 179.22729492 343.17700195 179.22729492 345.17700195 C183.18729492 345.17700195 187.14729492 345.17700195 191.22729492 345.17700195 C191.55729492 343.89825195 191.88729492 342.61950195 192.22729492 341.30200195 C195.4188113 331.8318482 202.44691057 324.70978157 211.22729492 320.17700195 C221.92718965 315.46682299 232.91954288 315.09606072 243.93432617 319.1809082 C253.74129692 323.74544297 260.64595214 330.31681092 265.22729492 340.17700195 C265.55729492 341.82700195 265.88729492 343.47700195 266.22729492 345.17700195 C317.21229492 344.68200195 317.21229492 344.68200195 369.22729492 344.17700195 C370.87729492 340.87700195 372.52729492 337.57700195 374.22729492 334.17700195 C381.03072757 324.47248294 389.48357413 318.73536685 401.16479492 316.67700195 C413.81528852 315.33591137 424.55582384 318.39726003 434.47729492 326.36450195 C442.83504637 334.18195432 447.16570017 344.74484701 447.60229492 356.11450195 C447.11725734 368.84673839 442.39719864 378.88299644 433.20385742 387.6105957 C424.46041656 394.53968619 413.24689837 397.43279722 402.22729492 396.17700195 C389.90863705 393.56485281 380.31177303 387.78015656 373.22729492 377.17700195 C371.74229492 372.72200195 371.74229492 372.72200195 370.22729492 368.17700195 C335.90729492 368.17700195 301.58729492 368.17700195 266.22729492 368.17700195 C265.56729492 370.48700195 264.90729492 372.79700195 264.22729492 375.17700195 C258.24703693 385.03890497 249.48028847 392.17510181 238.41479492 395.42700195 C227.82952516 397.69233206 216.94927839 396.23631633 207.61401367 390.59887695 C200.32216952 385.15756804 194.56519128 378.7180897 191.22729492 370.17700195 C191.22729492 369.51700195 191.22729492 368.85700195 191.22729492 368.17700195 C190.59227051 368.18747559 189.95724609 368.19794922 189.30297852 368.20874023 C186.40279153 368.25052662 183.5026681 368.27639967 180.60229492 368.30200195 C179.60327148 368.31875977 178.60424805 368.33551758 177.57495117 368.3527832 C166.02063791 368.42930183 166.02063791 368.42930183 161.1930542 364.53677368 C158.67075327 361.50890832 158.1130032 359.01554898 157.23608398 355.1784668 C157.07322025 354.4782308 156.91035652 353.7779948 156.74255753 353.05653954 C156.2180204 350.7672066 155.71917087 348.4735623 155.22729492 346.17700195 C155.06363937 345.41901558 154.89998383 344.66102921 154.73136902 343.88007355 C153.46759309 337.98100869 152.274197 332.06836448 151.08666992 326.15356445 C150.68763759 324.17942343 150.28834771 322.20533445 149.88882446 320.23129272 C148.80648444 314.87722901 147.72934325 309.52213196 146.65355682 304.16674805 C145.9724426 300.77785917 145.28992428 297.38925589 144.60699463 294.00073242 C135.58116353 249.20840466 126.72549869 204.38233899 117.94532013 159.54126549 C116.77186068 153.54950575 115.59205948 147.55915986 114.3972168 141.57162476 C112.21515092 130.59863466 110.1024056 119.62557727 108.22851372 108.59518433 C107.35635172 103.48692388 106.44553821 98.38587605 105.53178787 93.28491211 C105.11271047 90.88311196 104.71229921 88.47796144 104.33286667 86.06958008 C101.86405705 70.43115523 98.05123795 60.12776959 86.79288292 48.77921867 C84.70287931 46.64031704 82.83564255 44.34662462 80.97338867 42.0090332 C80.12744141 40.98132813 80.12744141 40.98132813 79.2644043 39.93286133 C78.16271542 38.59442368 77.06116075 37.25587554 75.9597168 35.91723633 C75.40735352 35.2462793 74.85499023 34.57532227 74.28588867 33.8840332 C73.81465576 33.31144775 73.34342285 32.7388623 72.85791016 32.14892578 C72.31980713 31.49819092 71.7817041 30.84745605 71.22729492 30.17700195 C70.51661865 29.1612912 69.80594238 28.14558044 69.07373047 27.09909058 C66.91142496 24.5239544 66.37729235 24.21028076 62.89503479 23.43769836 C61.62739792 23.44230576 60.35976105 23.44691315 59.05371094 23.45166016 C57.9990564 23.44294388 57.9990564 23.44294388 56.9230957 23.43405151 C54.60828281 23.42128568 52.29584964 23.44992643 49.98120117 23.4777832 C48.36603346 23.47414755 46.75087 23.46744305 45.13572693 23.45780945 C40.88808901 23.43875073 36.64126904 23.45275945 32.39367676 23.47631836 C25.599439 23.51071795 18.80540569 23.50486235 12.01115227 23.48018456 C9.64342501 23.47782037 7.27646018 23.49559113 4.90882874 23.51545715 C3.44931026 23.51570542 1.98979148 23.51530708 0.53027344 23.51416016 C-0.73815903 23.52115433 -2.00659149 23.5281485 -3.3134613 23.53535461 C-7.88223412 23.06206276 -11.18324798 21.55453144 -14.64770508 18.55200195 C-16.43196244 14.78523641 -16.54174233 11.25501601 -15.77270508 7.17700195 C-12.07508139 0.34844021 -7.12093647 0.02564805 0 0 Z M124.22729492 70.17700195 C124.97268808 78.06765546 124.97268808 78.06765546 126.22262573 85.78616333 C126.51637337 87.27566498 126.51637337 87.27566498 126.8160553 88.79525757 C127.13539284 90.37665024 127.13539284 90.37665024 127.46118164 91.98999023 C127.68749771 93.130448 127.91381378 94.27090576 128.14698792 95.44592285 C128.89586323 99.21395609 129.65143348 102.98061422 130.40698242 106.74731445 C130.94069068 109.42362251 131.47291172 112.10022571 132.00515747 114.77682495 C133.27032929 121.13498669 134.54020823 127.49219831 135.81191838 133.84905517 C137.35237167 141.55010989 138.88778126 149.25216782 140.42260742 156.9543457 C140.55887496 157.6381718 140.69514249 158.3219979 140.83553934 159.026546 C141.03998171 160.052499 141.03998171 160.052499 141.24855423 161.09917831 C141.38477086 161.7827447 141.52098749 162.46631108 141.66133189 163.17059159 C141.93612328 164.54956378 142.210905 165.9285379 142.485677 167.30751395 C143.30694127 171.42870821 144.12903539 175.54973594 144.95175576 179.67063975 C147.81286616 194.00262895 150.65851056 208.33744183 153.46655273 222.67993164 C153.59590438 223.34031646 153.72525603 224.00070127 153.85852742 224.68109775 C155.20804994 231.57111318 156.55443005 238.46172707 157.89596558 245.353302 C158.32554416 247.55219243 158.75515831 249.7510759 159.18481445 251.94995117 C159.37855778 252.95007107 159.5723011 253.95019096 159.77191544 254.98061752 C159.95023785 255.89160328 160.12856026 256.80258904 160.31228638 257.74118042 C160.4658919 258.53066008 160.61949741 259.32013973 160.77775764 260.13354301 C161.23025632 262.360915 161.23025632 262.360915 162.22729492 265.17700195 C242.74729492 265.17700195 323.26729492 265.17700195 406.22729492 265.17700195 C414.84905404 238.77286467 423.44755784 212.38897329 431.87744141 185.92773438 C435.96102077 173.1309261 440.1238311 160.36138112 444.32495117 147.6027832 C444.59075863 146.79539074 444.85656609 145.98799828 445.13042831 145.15613937 C447.79082848 137.07664051 450.45510561 128.99843638 453.12772465 120.92297077 C454.13374613 117.88175869 455.13769981 114.83986608 456.14135551 111.79787254 C456.60304368 110.40034146 457.06568004 109.0031231 457.52946663 107.606287 C461.65166777 95.19054781 465.41578171 82.70054535 469.22729492 70.17700195 C355.37729492 70.17700195 241.52729492 70.17700195 124.22729492 70.17700195 Z M213.78979492 347.23950195 C211.32532113 351.87271268 210.53880179 355.97505381 211.22729492 361.17700195 C213.38365579 366.98980082 217.23340774 370.43056776 222.47729492 373.48950195 C227.89117817 374.84297277 232.60908989 374.00137056 237.53979492 371.48950195 C242.27940568 367.41123223 245.00378305 363.1385342 245.47729492 356.86450195 C245.07940873 350.99568059 243.04553128 347.69887673 238.72729492 343.86450195 C234.85203757 340.62662245 231.51396123 339.81520638 226.41870117 339.8996582 C220.94200424 340.5927874 217.18457492 342.97426555 213.78979492 347.23950195 Z M394.47729492 346.05200195 C390.79946164 351.16010373 389.66306236 354.60472837 390.56713867 360.8293457 C391.95105812 365.75085807 394.7855415 369.60217359 399.08666992 372.3762207 C404.04613473 374.56830415 409.08043289 374.94931271 414.22729492 373.17700195 C418.15731089 370.65585964 421.23252895 367.75204807 423.72729492 363.80200195 C424.8374442 357.97371822 425.17408189 353.17035003 422.16479492 347.86450195 C419.47403481 344.08839322 416.68396393 341.59139391 412.22729492 340.17700195 C404.86026437 339.05844758 399.70285667 340.58891467 394.47729492 346.05200195 Z " fill="#000000" transform="translate(15.772705078125,57.822998046875)"></path>
    <path d="M0 0 C0.93754692 -0.00297112 1.87509385 -0.00594224 2.84105128 -0.0090034 C5.99623124 -0.01770501 9.15137331 -0.01919988 12.30656433 -0.02069092 C14.5632536 -0.02531804 16.81994208 -0.03034255 19.07662964 -0.03573608 C25.21715459 -0.04887188 31.35766861 -0.05530729 37.49820542 -0.05974674 C41.33239976 -0.06267543 45.16659109 -0.06677983 49.00078392 -0.07125092 C59.6166118 -0.08336097 70.23243706 -0.09374274 80.84827137 -0.09712601 C81.52770722 -0.09734557 82.20714308 -0.09756514 82.90716789 -0.09779136 C83.58822887 -0.09800964 84.26928986 -0.09822791 84.97098905 -0.09845281 C86.35107664 -0.09889627 87.73116424 -0.09934284 89.11125183 -0.09979248 C89.79582286 -0.10001391 90.48039389 -0.10023534 91.1857095 -0.10046348 C102.27805514 -0.10441144 113.37033508 -0.1218655 124.46265534 -0.145152 C135.85104925 -0.16886708 147.2393991 -0.18106995 158.6278221 -0.18249393 C165.02197823 -0.1835433 171.41604171 -0.18947932 177.81017494 -0.20731354 C183.82410729 -0.22376071 189.83787702 -0.22596599 195.85182381 -0.21717453 C198.06012659 -0.21640237 200.268438 -0.22077031 202.4767189 -0.23063278 C205.48963841 -0.24330058 208.50197743 -0.2375034 211.51489258 -0.22705078 C212.39028728 -0.23510719 213.26568198 -0.24316359 214.16760379 -0.25146413 C219.1639054 -0.21088016 222.63397543 0.33721804 226.94792175 3.14044189 C229.37597963 6.50839314 230.20216944 9.11956998 229.94792175 13.20294189 C229.21304507 17.41838838 227.35678308 19.52433902 223.94792175 22.14044189 C221.2285779 23.02143331 218.76222595 23.266705 215.91452312 23.27186966 C215.11666163 23.2757108 214.31880014 23.27955195 213.49676102 23.28350949 C212.19069601 23.28220977 212.19069601 23.28220977 210.85824585 23.28088379 C209.92871717 23.28385491 208.9991885 23.28682603 208.04149228 23.28988719 C204.91939135 23.29857526 201.79732875 23.30008253 198.67521667 23.30157471 C196.4397066 23.30620277 194.20419732 23.31122741 191.96868896 23.31661987 C185.89013758 23.32974623 179.81159724 23.33618919 173.7330339 23.34063053 C169.93651604 23.34356062 166.14000121 23.34766529 162.34348488 23.3521347 C151.82884347 23.36424287 141.31420385 23.37462537 130.79955578 23.3780098 C129.79048486 23.37833915 129.79048486 23.37833915 128.76102867 23.37867515 C128.08672114 23.37889343 127.41241361 23.3791117 126.71767253 23.3793366 C125.35130703 23.37978006 123.98494154 23.38022662 122.61857605 23.38067627 C121.94081406 23.3808977 121.26305207 23.38111913 120.56475184 23.38134727 C109.58307598 23.38529513 98.60146649 23.40274965 87.61981627 23.42603579 C76.34100098 23.44975874 65.06221782 23.46195416 53.78337365 23.46337771 C47.45235735 23.46442655 41.12143466 23.47035134 34.79044151 23.48819733 C28.83558818 23.5046565 22.88089907 23.5068439 16.92603111 23.49805832 C14.74072327 23.49728682 12.55540668 23.5016455 10.370121 23.51151657 C7.38606736 23.52420503 4.40259809 23.5183759 1.41854858 23.50793457 C0.12252182 23.52001918 0.12252182 23.52001918 -1.1996873 23.53234792 C-6.55643231 23.48853411 -10.31668295 22.70869346 -15.05207825 20.14044189 C-17.54741447 16.78733384 -18.29962437 14.17792459 -18.05207825 10.07794189 C-17.3267579 5.8710839 -15.41508752 3.78280632 -12.05207825 1.14044189 C-8.04068337 -0.19668973 -4.18280366 -0.00410881 0 0 Z " fill="#000000" transform="translate(201.0520782470703,176.85955810546875)"></path>
    <path d="M0 0 C0.7709757 -0.00226556 1.5419514 -0.00453111 2.33629 -0.00686532 C4.92176916 -0.01319948 7.50719582 -0.01237633 10.09268188 -0.0115509 C11.94558276 -0.01454275 13.79848302 -0.01794534 15.65138245 -0.02172852 C20.68651516 -0.03056997 25.72163088 -0.03290669 30.75677061 -0.0335443 C34.95909767 -0.03449348 39.16142076 -0.03817187 43.36374629 -0.0417164 C53.27778806 -0.04986148 63.19182075 -0.05230058 73.10586548 -0.05158997 C83.33506605 -0.05098912 93.5642139 -0.06154229 103.79340112 -0.07733363 C112.57397249 -0.09040598 121.35452661 -0.09577399 130.13510764 -0.09513456 C135.38010296 -0.09487948 140.62505144 -0.09773582 145.87003708 -0.10831261 C150.80300101 -0.11798845 155.73587326 -0.11807627 160.66884041 -0.11079597 C162.47883933 -0.1097495 164.28884394 -0.11211672 166.09883308 -0.11815643 C168.57079814 -0.12587049 171.0424461 -0.12123546 173.5144043 -0.11352539 C174.229588 -0.11866895 174.9447717 -0.12381252 175.68162763 -0.12911195 C181.09868735 -0.09180974 185.52740566 0.52784888 189.69668579 4.13371277 C192.41097246 7.35064512 192.77435629 9.80156245 192.74356079 14.02824402 C192.10836765 17.7496473 190.04439563 19.53684126 187.38418579 22.13371277 C184.31838468 23.66661333 181.10747997 23.28170783 177.74313354 23.28088379 C176.94528183 23.28456048 176.14743011 23.28823717 175.32540107 23.29202527 C172.63698175 23.30308745 169.94860105 23.30691023 167.26016235 23.31071472 C165.33859127 23.31697746 163.41702141 23.32362409 161.49545288 23.33062744 C156.26393455 23.34805484 151.03242538 23.35859395 145.8008852 23.36683297 C142.53405154 23.37197946 139.26722074 23.37805535 136.0003891 23.3843441 C125.78405498 23.40340107 115.56772812 23.4176311 105.35137963 23.42595607 C93.54942925 23.43573122 81.74766628 23.46205593 69.94578195 23.50245696 C60.82979809 23.53259492 51.71386802 23.54742274 42.5978353 23.55073708 C37.15041788 23.55309023 31.70320057 23.56208507 26.25583649 23.58719826 C21.13076922 23.61044332 16.00603431 23.61472652 10.88092804 23.60443687 C8.99996842 23.60394053 7.11899265 23.6102898 5.23808289 23.62399292 C2.66937977 23.6416595 0.10187616 23.6346319 -2.46682739 23.62145996 C-3.21061197 23.63242921 -3.95439655 23.64339845 -4.72072005 23.6547001 C-9.80832091 23.59174585 -12.69764847 22.33765721 -16.61581421 19.13371277 C-18.89570764 15.56518392 -18.9459972 12.23813208 -18.29159546 8.06730652 C-17.0392232 4.48392924 -14.7601107 3.16825756 -11.61581421 1.13371277 C-7.85301146 -0.22130296 -3.94792577 -0.00849553 0 0 Z " fill="#000000" transform="translate(219.61581420898438,248.8662872314453)"></path>
  </symbol>
</svg>